<svg width="150" height="41" viewBox="0 0 150 41" fill="none" xmlns="http://www.w3.org/2000/svg">
<g clip-path="url(#clip0_94_327)">
<mask id="mask0_94_327" style="mask-type:luminance" maskUnits="userSpaceOnUse" x="21" y="20" width="19" height="21">
<path d="M21.0453 20.6367H39.0258V40.421H21.0453V20.6367Z" fill="white"/>
</mask>
<g mask="url(#mask0_94_327)">
<path d="M31.5959 40.3341C28.2469 40.3341 25.6817 39.4953 23.8955 37.8176C22.1116 36.1391 21.2193 33.7503 21.2193 30.6471C21.2193 27.6118 22.0518 25.1887 23.7143 23.3785C25.3776 21.5675 27.7042 20.6616 30.6956 20.6616C33.4125 20.6616 35.4557 21.4302 36.8229 22.9643C38.1917 24.4991 38.8765 26.6963 38.8765 29.5561V31.6416H26.7632C26.8151 32.5028 26.9899 33.2251 27.2852 33.8014C27.5789 34.3824 27.9684 34.8414 28.4536 35.1853C28.9269 35.527 29.48 35.7728 30.1114 35.9236C30.7427 36.0697 31.4307 36.1439 32.1802 36.1439C32.8235 36.1439 33.4548 36.0697 34.0741 35.9236C34.6967 35.7728 35.2658 35.5764 35.7814 35.3346C36.2323 35.1239 36.6529 34.8972 37.036 34.6546C37.4223 34.4135 37.7336 34.1973 37.9762 34.0097H38.5613V38.7961C38.1095 38.9821 37.6945 39.1585 37.321 39.3173C36.9466 39.4769 36.4326 39.639 35.7814 39.8066C35.182 39.9702 34.5618 40.0995 33.9241 40.1945C33.2888 40.2863 32.5106 40.3341 31.5959 40.3341ZM33.4276 28.1482C33.3957 26.9222 33.1243 25.9908 32.6151 25.3491C32.1027 24.709 31.3214 24.3873 30.2686 24.3873C29.1967 24.3873 28.3555 24.7249 27.7489 25.3994C27.1431 26.0714 26.8095 26.9877 26.748 28.1482H33.4276Z" fill="white"/>
</g>
<path d="M59.3145 39.8364H53.7546V30.6147C53.7546 29.8637 53.7259 29.1158 53.666 28.368C53.6102 27.6249 53.5032 27.0758 53.3428 26.723C53.1552 26.304 52.8807 26.0031 52.5231 25.8203C52.1647 25.6384 51.6843 25.5466 51.0856 25.5466C50.6331 25.5466 50.1742 25.636 49.7121 25.8116C49.2475 25.9895 48.7527 26.2705 48.2259 26.656V39.8364H42.6988V21.243H48.2259V23.2958C49.1326 22.4889 50.0137 21.8608 50.8725 21.4058C51.7289 20.9549 52.6811 20.729 53.7227 20.729C55.5345 20.729 56.9176 21.3284 57.877 22.5256C58.8356 23.7228 59.3145 25.4596 59.3145 27.7319V39.8364Z" fill="white"/>
<mask id="mask1_94_327" style="mask-type:luminance" maskUnits="userSpaceOnUse" x="62" y="20" width="19" height="21">
<path d="M62.1143 20.6367H80.7078V40.421H62.1143V20.6367Z" fill="white"/>
</mask>
<g mask="url(#mask1_94_327)">
<path d="M80.6008 30.5521C80.6008 33.6113 79.8035 36.0201 78.208 37.78C76.6133 39.5415 74.3538 40.4211 71.435 40.4211C68.5433 40.4211 66.2918 39.5415 64.6859 37.78C63.0825 36.0201 62.2819 33.6113 62.2819 30.5521C62.2819 27.4609 63.0825 25.0409 64.6859 23.2906C66.2918 21.5411 68.5433 20.6655 71.435 20.6655C74.3434 20.6655 76.6005 21.5475 78.2008 23.3066C79.8011 25.0689 80.6008 27.4832 80.6008 30.5521ZM74.9284 30.5856C74.9284 29.4818 74.8398 28.5631 74.6667 27.8288C74.4935 27.0929 74.254 26.5063 73.9491 26.0657C73.6203 25.5996 73.2516 25.278 72.8421 25.096C72.4311 24.9148 71.961 24.823 71.435 24.823C70.9425 24.823 70.494 24.9036 70.0941 25.0633C69.695 25.2237 69.3271 25.5294 68.9911 25.9819C68.675 26.4129 68.422 27.0035 68.2321 27.7538C68.0429 28.5048 67.9479 29.4474 67.9479 30.5856C67.9479 31.7229 68.0373 32.6416 68.2161 33.3424C68.3957 34.0439 68.6255 34.6034 68.9121 35.0216C69.205 35.4542 69.5737 35.7687 70.0159 35.9674C70.4565 36.1662 70.9465 36.2643 71.4821 36.2643C71.925 36.2643 72.3768 36.1662 72.8333 35.9674C73.2915 35.7687 73.6578 35.471 73.93 35.0735C74.2588 34.5994 74.5054 34.0264 74.6754 33.3591C74.8446 32.6911 74.9284 31.7668 74.9284 30.5856Z" fill="white"/>
</g>
<mask id="mask2_94_327" style="mask-type:luminance" maskUnits="userSpaceOnUse" x="82" y="11" width="20" height="30">
<path d="M82.751 11.2378H101.344V40.4209H82.751V11.2378Z" fill="white"/>
</mask>
<g mask="url(#mask2_94_327)">
<path d="M95.5484 11.4004V22.1362C94.7566 21.7084 93.474 21.0754 92.7788 20.8903C92.1746 20.729 91.4244 20.5838 90.4969 20.5838C89.4777 20.5838 88.5072 20.8192 87.5925 21.2885C86.6739 21.7578 85.8965 22.3932 85.2548 23.1993C85.0999 23.3916 84.9571 23.5959 84.8206 23.8051C83.5475 25.4947 82.9098 27.7143 82.9098 30.4663C82.9098 33.5224 83.7112 35.932 85.3178 37.6943C86.9237 39.455 89.1744 40.3353 92.0709 40.3353C94.9881 40.3353 97.2436 39.455 98.8383 37.6943C100.384 35.9871 101.197 33.6677 101.245 30.7441V11.4004H95.5484ZM95.3073 33.2718C95.1405 33.9414 94.8915 34.5113 94.5659 34.987C94.2921 35.3837 93.9257 35.6822 93.4668 35.8809C93.0111 36.0772 92.5593 36.1794 92.118 36.1794C91.5808 36.1794 91.0908 36.0772 90.6494 35.8809C90.2064 35.6822 89.8385 35.3669 89.5416 34.9375C89.259 34.5169 89.0276 33.9566 88.8488 33.2558C88.6684 32.5559 88.579 31.6356 88.579 30.4991C88.579 29.3617 88.6756 28.4175 88.8639 27.6665C89.0531 26.9162 89.3085 26.3264 89.6222 25.8946C89.9582 25.4436 90.3285 25.1348 90.7284 24.9751C91.1283 24.8171 91.5744 24.7357 92.0709 24.7357C92.5968 24.7357 93.0654 24.8291 93.474 25.0095C93.8874 25.1914 94.2562 25.5139 94.581 25.9768C94.8875 26.4198 95.1261 27.008 95.2993 27.7407C95.4741 28.475 95.5603 29.3952 95.5603 30.4991C95.5603 31.6787 95.4765 32.6045 95.3073 33.2718Z" fill="white"/>
</g>
<mask id="mask3_94_327" style="mask-type:luminance" maskUnits="userSpaceOnUse" x="0" y="11" width="19" height="30">
<path d="M0 11.2378H18.3891V40.4209H0V11.2378Z" fill="white"/>
</mask>
<g mask="url(#mask3_94_327)">
<path d="M12.6393 11.4004V22.1362C11.8468 21.7084 10.5642 21.0754 9.86819 20.8903C9.26479 20.729 8.51454 20.5838 7.5879 20.5838C6.56868 20.5838 5.59814 20.8192 4.68268 21.2885C3.76482 21.7578 2.98663 22.3932 2.34413 23.1993C2.19089 23.3916 2.04723 23.5959 1.91074 23.8051C0.638511 25.4947 0 27.7143 0 30.4663C0 33.5224 0.802129 35.932 2.40798 37.6943C4.01464 39.455 6.26379 40.3353 9.16103 40.3353C12.0782 40.3353 14.3346 39.455 15.9285 37.6943C17.4744 35.9871 18.2877 33.6677 18.3348 30.7441V11.4004H12.6393ZM12.3991 33.2718C12.2307 33.9414 11.9833 34.5113 11.656 34.987C11.3823 35.3837 11.0159 35.6822 10.5578 35.8809C10.1012 36.0772 9.6495 36.1794 9.20812 36.1794C8.67098 36.1794 8.18172 36.0772 7.74035 35.8809C7.29738 35.6822 6.92784 35.3669 6.63333 34.9375C6.34999 34.5169 6.11853 33.9566 5.93815 33.2558C5.75857 32.5559 5.66918 31.6356 5.66918 30.4991C5.66918 29.3617 5.76575 28.4175 5.95411 27.6665C6.14327 26.9162 6.39708 26.3264 6.71314 25.8946C7.04996 25.4436 7.4195 25.1348 7.81936 24.9751C8.21843 24.8171 8.66459 24.7357 9.16103 24.7357C9.68781 24.7357 10.1555 24.8291 10.565 25.0095C10.9768 25.1914 11.3463 25.5139 11.6728 25.9768C11.9777 26.4198 12.2163 27.008 12.3911 27.7407C12.5651 28.475 12.6505 29.3952 12.6505 30.4991C12.6505 31.6787 12.5667 32.6045 12.3991 33.2718Z" fill="white"/>
</g>
<mask id="mask4_94_327" style="mask-type:luminance" maskUnits="userSpaceOnUse" x="104" y="20" width="19" height="21">
<path d="M104.205 20.4321H122.594V40.4207H104.205V20.4321Z" fill="white"/>
</mask>
<g mask="url(#mask4_94_327)">
<path d="M122.534 30.4663C122.534 33.5224 121.738 35.9328 120.142 37.6927C118.548 39.4549 116.29 40.3353 113.375 40.3353C110.479 40.3353 108.228 39.4549 106.623 37.6927C105.016 35.9328 104.214 33.5224 104.214 30.4663C104.214 27.3743 105.016 24.9544 106.623 23.2064C108.228 21.4553 110.479 20.5806 113.375 20.5806C116.28 20.5806 118.532 21.4593 120.133 23.2224C121.735 24.9839 122.534 27.3959 122.534 30.4663ZM116.864 30.4974C116.864 29.3944 116.779 28.4758 116.606 27.7431C116.431 27.008 116.191 26.4197 115.885 25.9784C115.558 25.5147 115.188 25.193 114.778 25.0102C114.369 24.8291 113.901 24.7357 113.375 24.7357C112.881 24.7357 112.431 24.8171 112.032 24.9767C111.632 25.1363 111.263 25.4436 110.927 25.8962C110.612 26.3256 110.359 26.9162 110.168 27.6688C109.979 28.4175 109.883 29.3617 109.883 30.4974C109.883 31.6348 109.972 32.5558 110.153 33.2558C110.331 33.9582 110.563 34.5169 110.848 34.9367C111.142 35.3669 111.51 35.6837 111.954 35.8809C112.395 36.0804 112.883 36.1786 113.422 36.1786C113.865 36.1786 114.315 36.0804 114.771 35.8809C115.23 35.6837 115.595 35.3844 115.869 34.987C116.196 34.5121 116.444 33.9398 116.612 33.2718C116.78 32.6053 116.864 31.6795 116.864 30.4974Z" fill="white"/>
</g>
<path d="M127.393 16.0693L130.244 21.0018L125.306 23.8512L122.455 18.9139L127.393 16.0693Z" fill="#F0534A"/>
<path d="M133.376 22.8076H139.08V28.5111H133.376V22.8076Z" fill="#F0534A"/>
<mask id="mask5_94_327" style="mask-type:luminance" maskUnits="userSpaceOnUse" x="142" y="15" width="8" height="9">
<path d="M142.209 15.937H150V23.9056H142.209V15.937Z" fill="white"/>
</mask>
<g mask="url(#mask5_94_327)">
<path d="M142.21 21.001L145.062 16.0693L150.001 18.9147L147.148 23.8504L142.21 21.001Z" fill="#F0534A"/>
</g>
<mask id="mask6_94_327" style="mask-type:luminance" maskUnits="userSpaceOnUse" x="142" y="4" width="8" height="9">
<path d="M142.209 4.49512H150V12.4637H142.209V4.49512Z" fill="white"/>
</mask>
<g mask="url(#mask6_94_327)">
<path d="M145.062 12.4485L142.211 7.51044L147.147 4.65869L150.001 9.59757L145.062 12.4485Z" fill="#F0534A"/>
</g>
<path d="M139.08 17.1104H133.377V11.4053H139.08V17.1104Z" fill="white"/>
<path d="M139.08 5.70252H133.377V-0.000976562L139.08 -0.000178424V5.70252Z" fill="#F0534A"/>
<path d="M130.244 7.51013L127.393 12.449L122.455 9.59806L125.306 4.65918L130.244 7.51013Z" fill="#F0534A"/>
</g>
<defs>
<clipPath id="clip0_94_327">
<rect width="150" height="40.4213" fill="white"/>
</clipPath>
</defs>
</svg>
