<svg width="1356" height="621" viewBox="0 0 1356 621" fill="none" xmlns="http://www.w3.org/2000/svg">
<g opacity="0.12">
<path opacity="0.5" d="M589.526 2.10064L589.526 8.27838L595.703 8.27838L595.703 2.10065L589.526 2.10064Z" fill="#FCA74E" stroke="#DD2F25" stroke-width="4.11881"/>
<path opacity="0.3" d="M570.457 2.05963L570.457 8.23736L576.635 8.23736L576.635 2.05963L570.457 2.05963Z" fill="#15FEFB" stroke="#DD2F25" stroke-width="4.11881"/>
<path opacity="0.3" d="M532.397 2.10064L532.397 8.27838L538.575 8.27838L538.575 2.10065L532.397 2.10064Z" fill="#F224B5" stroke="#DD2F25" stroke-width="4.11881"/>
<path opacity="0.3" d="M513.367 2.10064L513.367 8.27838L519.545 8.27838L519.545 2.10065L513.367 2.10064Z" fill="#15FEFB" stroke="#DD2F25" stroke-width="4.11881"/>
<path opacity="0.3" d="M494.341 2.05963L494.341 8.23736L500.519 8.23736L500.519 2.05963L494.341 2.05963Z" fill="#FCA74E" stroke="#DD2F25" stroke-width="4.11881"/>
<path opacity="0.3" d="M475.268 2.05963L475.268 8.23736L481.446 8.23736L481.446 2.05963L475.268 2.05963Z" fill="#FCA74E" stroke="#DD2F25" stroke-width="4.11881"/>
<path opacity="0.3" d="M456.242 2.05963L456.242 8.23736L462.42 8.23736L462.42 2.05963L456.242 2.05963Z" fill="#FCA74E" stroke="#DD2F25" stroke-width="4.11881"/>
<path opacity="0.75" d="M589.526 21.1285L589.526 27.3062L595.703 27.3062L595.703 21.1285L589.526 21.1285Z" fill="#F224B5" stroke="#DD2F25" stroke-width="4.11881"/>
<path opacity="0.3" d="M570.496 21.1285L570.496 27.3062L576.673 27.3062L576.673 21.1285L570.496 21.1285Z" fill="#15FEFB" stroke="#DD2F25" stroke-width="4.11881"/>
<path opacity="0.3" d="M551.466 21.1285L551.466 27.3062L557.644 27.3062L557.644 21.1285L551.466 21.1285Z" fill="#F224B5" stroke="#DD2F25" stroke-width="4.11881"/>
<path opacity="0.3" d="M532.397 21.1285L532.397 27.3062L538.575 27.3062L538.575 21.1285L532.397 21.1285Z" fill="#15FEFB" stroke="#DD2F25" stroke-width="4.11881"/>
<path opacity="0.3" d="M513.367 21.1285L513.367 27.3062L519.545 27.3062L519.545 21.1285L513.367 21.1285Z" fill="#15FEFB" stroke="#DD2F25" stroke-width="4.11881"/>
<path opacity="0.3" d="M494.341 21.1285L494.341 27.3062L500.519 27.3062L500.519 21.1285L494.341 21.1285Z" fill="#15FEFB" stroke="#DD2F25" stroke-width="4.11881"/>
<path opacity="0.3" d="M475.311 21.1285L475.311 27.3062L481.489 27.3062L481.489 21.1285L475.311 21.1285Z" fill="#FCA74E" stroke="#DD2F25" stroke-width="4.11881"/>
<path opacity="0.3" d="M456.281 21.1285L456.281 27.3062L462.459 27.3062L462.459 21.1285L456.281 21.1285Z" fill="#F224B5" stroke="#DD2F25" stroke-width="4.11881"/>
<path opacity="0.25" d="M589.526 40.1993L589.526 46.377L595.703 46.377L595.703 40.1993L589.526 40.1993Z" fill="#15FEFB" stroke="#DD2F25" stroke-width="4.11881"/>
<path opacity="0.3" d="M570.496 40.1993L570.496 46.377L576.673 46.377L576.673 40.1993L570.496 40.1993Z" fill="#15FEFB" stroke="#DD2F25" stroke-width="4.11881"/>
<path opacity="0.3" d="M551.466 40.1588L551.466 46.3365L557.644 46.3365L557.644 40.1588L551.466 40.1588Z" fill="#15FEFB" stroke="#DD2F25" stroke-width="4.11881"/>
<path opacity="0.3" d="M532.44 40.1588L532.44 46.3365L538.617 46.3365L538.617 40.1588L532.44 40.1588Z" fill="#F224B5" stroke="#DD2F25" stroke-width="4.11881"/>
<path opacity="0.3" d="M494.341 40.1993L494.341 46.377L500.519 46.377L500.519 40.1993L494.341 40.1993Z" fill="#15FEFB" stroke="#DD2F25" stroke-width="4.11881"/>
<path opacity="0.3" d="M456.281 40.1588L456.281 46.3365L462.459 46.3365L462.459 40.1588L456.281 40.1588Z" fill="#F224B5" stroke="#DD2F25" stroke-width="4.11881"/>
<path opacity="0.25" d="M589.526 59.2681L589.526 65.4459L595.703 65.4459L595.703 59.2681L589.526 59.2681Z" fill="#F224B5" stroke="#DD2F25" stroke-width="4.11881"/>
<path opacity="0.3" d="M570.496 59.2276L570.496 65.4053L576.673 65.4053L576.673 59.2276L570.496 59.2276Z" fill="#15FEFB" stroke="#DD2F25" stroke-width="4.11881"/>
<path opacity="0.3" d="M551.427 59.2276L551.427 65.4053L557.605 65.4053L557.605 59.2276L551.427 59.2276Z" fill="#15FEFB" stroke="#DD2F25" stroke-width="4.11881"/>
<path opacity="0.3" d="M513.367 59.2681L513.367 65.4459L519.545 65.4459L519.545 59.2681L513.367 59.2681Z" fill="#FCA74E" stroke="#DD2F25" stroke-width="4.11881"/>
<path opacity="0.3" d="M475.268 59.2276L475.268 65.4053L481.446 65.4053L481.446 59.2276L475.268 59.2276Z" fill="#F224B5" stroke="#DD2F25" stroke-width="4.11881"/>
<path opacity="0.3" d="M456.242 59.2276L456.242 65.4053L462.42 65.4053L462.42 59.2276L456.242 59.2276Z" fill="#F224B5" stroke="#DD2F25" stroke-width="4.11881"/>
<path opacity="0.5" d="M589.526 78.2984L589.526 84.4761L595.703 84.4761L595.703 78.2984L589.526 78.2984Z" fill="#15FEFB" stroke="#DD2F25" stroke-width="4.11881"/>
<path opacity="0.3" d="M570.496 78.2984L570.496 84.4761L576.673 84.4761L576.673 78.2984L570.496 78.2984Z" fill="#FCA74E" stroke="#DD2F25" stroke-width="4.11881"/>
<path opacity="0.3" d="M532.397 78.2984L532.397 84.4761L538.575 84.4761L538.575 78.2984L532.397 78.2984Z" fill="#FCA74E" stroke="#DD2F25" stroke-width="4.11881"/>
<path opacity="0.3" d="M475.311 78.2984L475.311 84.4761L481.489 84.4761L481.489 78.2984L475.311 78.2984Z" fill="#15FEFB" stroke="#DD2F25" stroke-width="4.11881"/>
<path opacity="0.5" d="M589.526 97.3687L589.526 103.546L595.703 103.546L595.703 97.3687L589.526 97.3687Z" fill="#F224B5" stroke="#DD2F25" stroke-width="4.11881"/>
<path opacity="0.3" d="M570.496 97.3687L570.496 103.546L576.673 103.546L576.673 97.3687L570.496 97.3687Z" fill="#FCA74E" stroke="#DD2F25" stroke-width="4.11881"/>
<path opacity="0.3" d="M551.466 97.3262L551.466 103.504L557.644 103.504L557.644 97.3262L551.466 97.3262Z" fill="#FCA74E" stroke="#DD2F25" stroke-width="4.11881"/>
<path opacity="0.3" d="M532.44 97.3262L532.44 103.504L538.617 103.504L538.617 97.3262L532.44 97.3262Z" fill="#F224B5" stroke="#DD2F25" stroke-width="4.11881"/>
<path opacity="0.3" d="M513.41 97.3687L513.41 103.546L519.587 103.546L519.587 97.3687L513.41 97.3687Z" fill="#FCA74E" stroke="#DD2F25" stroke-width="4.11881"/>
<path opacity="0.3" d="M494.341 97.3687L494.341 103.546L500.519 103.546L500.519 97.3687L494.341 97.3687Z" fill="#F224B5" stroke="#DD2F25" stroke-width="4.11881"/>
<path opacity="0.3" d="M475.311 97.3687L475.311 103.546L481.489 103.546L481.489 97.3687L475.311 97.3687Z" fill="#15FEFB" stroke="#DD2F25" stroke-width="4.11881"/>
<path opacity="0.3" d="M456.281 97.3262L456.281 103.504L462.459 103.504L462.459 97.3262L456.281 97.3262Z" fill="#15FEFB" stroke="#DD2F25" stroke-width="4.11881"/>
<path opacity="0.5" d="M589.526 116.438L589.526 122.616L595.703 122.616L595.703 116.438L589.526 116.438Z" fill="#F224B5" stroke="#DD2F25" stroke-width="4.11881"/>
<path opacity="0.3" d="M570.496 116.397L570.496 122.575L576.673 122.575L576.673 116.397L570.496 116.397Z" fill="#15FEFB" stroke="#DD2F25" stroke-width="4.11881"/>
<path opacity="0.3" d="M551.427 116.397L551.427 122.575L557.605 122.575L557.605 116.397L551.427 116.397Z" fill="#FCA74E" stroke="#DD2F25" stroke-width="4.11881"/>
<path opacity="0.3" d="M532.397 116.397L532.397 122.575L538.575 122.575L538.575 116.397L532.397 116.397Z" fill="#FCA74E" stroke="#DD2F25" stroke-width="4.11881"/>
<path opacity="0.3" d="M513.367 116.438L513.367 122.616L519.545 122.616L519.545 116.438L513.367 116.438Z" fill="#15FEFB" stroke="#DD2F25" stroke-width="4.11881"/>
<path opacity="0.3" d="M475.311 116.397L475.311 122.575L481.489 122.575L481.489 116.397L475.311 116.397Z" fill="#15FEFB" stroke="#DD2F25" stroke-width="4.11881"/>
<path opacity="0.3" d="M456.242 116.397L456.242 122.575L462.42 122.575L462.42 116.397L456.242 116.397Z" fill="#15FEFB" stroke="#DD2F25" stroke-width="4.11881"/>
<path opacity="0.5" d="M589.526 135.468L589.526 141.646L595.703 141.646L595.703 135.468L589.526 135.468Z" fill="#FCA74E" stroke="#DD2F25" stroke-width="4.11881"/>
<path opacity="0.3" d="M570.496 135.468L570.496 141.646L576.673 141.646L576.673 135.468L570.496 135.468Z" fill="#F224B5" stroke="#DD2F25" stroke-width="4.11881"/>
<path opacity="0.3" d="M551.466 135.468L551.466 141.646L557.644 141.646L557.644 135.468L551.466 135.468Z" fill="#15FEFB" stroke="#DD2F25" stroke-width="4.11881"/>
<path opacity="0.3" d="M513.367 135.468L513.367 141.646L519.545 141.646L519.545 135.468L513.367 135.468Z" fill="#F224B5" stroke="#DD2F25" stroke-width="4.11881"/>
<path opacity="0.3" d="M475.311 135.468L475.311 141.646L481.489 141.646L481.489 135.468L475.311 135.468Z" fill="#15FEFB" stroke="#DD2F25" stroke-width="4.11881"/>
<path opacity="0.25" d="M589.526 154.536L589.526 160.714L595.703 160.714L595.703 154.536L589.526 154.536Z" fill="#15FEFB" stroke="#DD2F25" stroke-width="4.11881"/>
<path opacity="0.3" d="M570.496 154.536L570.496 160.714L576.673 160.714L576.673 154.536L570.496 154.536Z" fill="#FCA74E" stroke="#DD2F25" stroke-width="4.11881"/>
<path opacity="0.5" d="M589.526 173.566L589.526 179.744L595.703 179.744L595.703 173.566L589.526 173.566Z" fill="#15FEFB" stroke="#DD2F25" stroke-width="4.11881"/>
<path opacity="0.3" d="M570.496 173.566L570.496 179.744L576.673 179.744L576.673 173.566L570.496 173.566Z" fill="#15FEFB" stroke="#DD2F25" stroke-width="4.11881"/>
<path opacity="0.3" d="M475.311 173.566L475.311 179.744L481.489 179.744L481.489 173.566L475.311 173.566Z" fill="#FCA74E" stroke="#DD2F25" stroke-width="4.11881"/>
<path opacity="0.3" d="M456.242 173.566L456.242 179.744L462.42 179.744L462.42 173.566L456.242 173.566Z" fill="#15FEFB" stroke="#DD2F25" stroke-width="4.11881"/>
<path d="M589.526 192.635L589.526 198.813L595.703 198.813L595.703 192.635L589.526 192.635Z" fill="#15FEFB" stroke="#DD2F25" stroke-width="4.11881"/>
<path opacity="0.3" d="M551.466 192.635L551.466 198.813L557.644 198.813L557.644 192.635L551.466 192.635Z" fill="#15FEFB" stroke="#DD2F25" stroke-width="4.11881"/>
<path opacity="0.3" d="M456.281 192.635L456.281 198.813L462.459 198.813L462.459 192.635L456.281 192.635Z" fill="#15FEFB" stroke="#DD2F25" stroke-width="4.11881"/>
<path opacity="0.75" d="M589.566 211.706L589.566 217.884L595.744 217.884L595.744 211.706L589.566 211.706Z" fill="#15FEFB" stroke="#DD2F25" stroke-width="4.11881"/>
<path opacity="0.3" d="M513.41 211.706L513.41 217.884L519.587 217.884L519.587 211.706L513.41 211.706Z" fill="#15FEFB" stroke="#DD2F25" stroke-width="4.11881"/>
<path opacity="0.3" d="M513.367 230.777L513.367 236.955L519.545 236.955L519.545 230.777L513.367 230.777Z" fill="#15FEFB" stroke="#DD2F25" stroke-width="4.11881"/>
<path opacity="0.75" d="M589.526 249.805L589.526 255.982L595.703 255.982L595.703 249.805L589.526 249.805Z" fill="#FCA74E" stroke="#DD2F25" stroke-width="4.11881"/>
<path opacity="0.3" d="M570.496 249.805L570.496 255.982L576.673 255.982L576.673 249.805L570.496 249.805Z" fill="#15FEFB" stroke="#DD2F25" stroke-width="4.11881"/>
<path opacity="0.3" d="M532.44 249.764L532.44 255.942L538.617 255.942L538.617 249.764L532.44 249.764Z" fill="#FCA74E" stroke="#DD2F25" stroke-width="4.11881"/>
<path opacity="0.3" d="M513.367 249.805L513.367 255.982L519.545 255.982L519.545 249.805L513.367 249.805Z" fill="#FCA74E" stroke="#DD2F25" stroke-width="4.11881"/>
<path opacity="0.3" d="M494.341 249.805L494.341 255.982L500.519 255.982L500.519 249.805L494.341 249.805Z" fill="#15FEFB" stroke="#DD2F25" stroke-width="4.11881"/>
<path opacity="0.3" d="M532.44 268.835L532.44 275.013L538.617 275.013L538.617 268.835L532.44 268.835Z" fill="#FCA74E" stroke="#DD2F25" stroke-width="4.11881"/>
<path opacity="0.25" d="M589.526 306.975L589.526 313.152L595.703 313.152L595.703 306.975L589.526 306.975Z" fill="#FCA74E" stroke="#DD2F25" stroke-width="4.11881"/>
<path opacity="0.3" d="M494.38 326.045L494.38 332.223L500.558 332.223L500.558 326.045L494.38 326.045Z" fill="#F224B5" stroke="#DD2F25" stroke-width="4.11881"/>
<path d="M589.526 345.073L589.526 351.251L595.703 351.251L595.703 345.073L589.526 345.073Z" fill="#FCA74E" stroke="#DD2F25" stroke-width="4.11881"/>
<path opacity="0.3" d="M551.427 345.073L551.427 351.251L557.605 351.251L557.605 345.073L551.427 345.073Z" fill="#15FEFB" stroke="#DD2F25" stroke-width="4.11881"/>
<path opacity="0.3" d="M513.367 345.114L513.367 351.292L519.545 351.292L519.545 345.114L513.367 345.114Z" fill="#F224B5" stroke="#DD2F25" stroke-width="4.11881"/>
<path opacity="0.5" d="M589.526 364.144L589.526 370.322L595.703 370.322L595.703 364.144L589.526 364.144Z" fill="#F224B5" stroke="#DD2F25" stroke-width="4.11881"/>
<path opacity="0.3" d="M494.341 364.144L494.341 370.322L500.519 370.322L500.519 364.144L494.341 364.144Z" fill="#15FEFB" stroke="#DD2F25" stroke-width="4.11881"/>
<path opacity="0.3" d="M494.38 383.213L494.38 389.391L500.558 389.391L500.558 383.213L494.38 383.213Z" fill="#FCA74E" stroke="#DD2F25" stroke-width="4.11881"/>
<path opacity="0.3" d="M475.311 402.243L475.311 408.42L481.489 408.42L481.489 402.243L475.311 402.243Z" fill="#15FEFB" stroke="#DD2F25" stroke-width="4.11881"/>
<path opacity="0.75" d="M589.526 478.482L589.526 484.659L595.703 484.659L595.703 478.482L589.526 478.482Z" fill="#FCA74E" stroke="#DD2F25" stroke-width="4.11881"/>
<path opacity="0.3" d="M532.44 478.44L532.44 484.618L538.617 484.618L538.617 478.44L532.44 478.44Z" fill="#F224B5" stroke="#DD2F25" stroke-width="4.11881"/>
<path opacity="0.3" d="M532.44 497.511L532.44 503.689L538.617 503.689L538.617 497.511L532.44 497.511Z" fill="#F224B5" stroke="#DD2F25" stroke-width="4.11881"/>
<path opacity="0.3" d="M494.341 516.58L494.341 522.758L500.519 522.758L500.519 516.58L494.341 516.58Z" fill="#15FEFB" stroke="#DD2F25" stroke-width="4.11881"/>
<path opacity="0.3" d="M513.41 535.651L513.41 541.829L519.588 541.829L519.588 535.651L513.41 535.651Z" fill="#15FEFB" stroke="#DD2F25" stroke-width="4.11881"/>
<path opacity="0.3" d="M551.466 554.679L551.466 560.857L557.644 560.857L557.644 554.679L551.466 554.679Z" fill="#15FEFB" stroke="#DD2F25" stroke-width="4.11881"/>
<path opacity="0.3" d="M513.41 554.72L513.41 560.898L519.588 560.898L519.588 554.72L513.41 554.72Z" fill="#15FEFB" stroke="#DD2F25" stroke-width="4.11881"/>
<path opacity="0.3" d="M570.496 573.75L570.496 579.928L576.673 579.928L576.673 573.75L570.496 573.75Z" fill="#15FEFB" stroke="#DD2F25" stroke-width="4.11881"/>
<path opacity="0.3" d="M532.44 592.778L532.44 598.956L538.617 598.956L538.617 592.778L532.44 592.778Z" fill="#15FEFB" stroke="#DD2F25" stroke-width="4.11881"/>
<path opacity="0.5" d="M589.526 611.89L589.526 618.067L595.703 618.067L595.703 611.89L589.526 611.89Z" fill="#F224B5" stroke="#DD2F25" stroke-width="4.11881"/>
<path opacity="0.3" d="M513.367 611.89L513.367 618.067L519.545 618.067L519.545 611.89L513.367 611.89Z" fill="#15FEFB" stroke="#DD2F25" stroke-width="4.11881"/>
<path opacity="0.5" d="M741.096 2.10064L741.096 8.27838L747.274 8.27838L747.274 2.10065L741.096 2.10064Z" fill="#F224B5" stroke="#DD2F25" stroke-width="4.11881"/>
<path opacity="0.25" d="M722.027 2.10064L722.027 8.27838L728.205 8.27838L728.205 2.10065L722.027 2.10064Z" fill="#FCA74E" stroke="#DD2F25" stroke-width="4.11881"/>
<path opacity="0.75" d="M702.997 2.10064L702.997 8.27838L709.175 8.27838L709.175 2.10065L702.997 2.10064Z" fill="#15FEFB" stroke="#DD2F25" stroke-width="4.11881"/>
<path opacity="0.5" d="M683.971 2.10064L683.971 8.27838L690.149 8.27838L690.149 2.10065L683.971 2.10064Z" fill="#FCA74E" stroke="#DD2F25" stroke-width="4.11881"/>
<path opacity="0.5" d="M664.941 2.05963L664.941 8.23736L671.119 8.23736L671.119 2.05963L664.941 2.05963Z" fill="#15FEFB" stroke="#DD2F25" stroke-width="4.11881"/>
<path d="M645.871 2.05963L645.871 8.23736L652.048 8.23736L652.048 2.05963L645.871 2.05963Z" fill="#FCA74E" stroke="#DD2F25" stroke-width="4.11881"/>
<path opacity="0.75" d="M626.842 2.05963L626.842 8.23736L633.02 8.23736L633.02 2.05963L626.842 2.05963Z" fill="#15FEFB" stroke="#DD2F25" stroke-width="4.11881"/>
<path opacity="0.25" d="M607.813 2.05963L607.813 8.23736L613.99 8.23736L613.99 2.05963L607.813 2.05963Z" fill="#FCA74E" stroke="#DD2F25" stroke-width="4.11881"/>
<path opacity="0.75" d="M741.096 21.1285L741.096 27.3062L747.274 27.3062L747.274 21.1285L741.096 21.1285Z" fill="#15FEFB" stroke="#DD2F25" stroke-width="4.11881"/>
<path opacity="0.5" d="M722.07 21.1285L722.07 27.3062L728.248 27.3062L728.248 21.1285L722.07 21.1285Z" fill="#F224B5" stroke="#DD2F25" stroke-width="4.11881"/>
<path opacity="0.5" d="M703.04 21.1285L703.04 27.3062L709.218 27.3062L709.218 21.1285L703.04 21.1285Z" fill="#15FEFB" stroke="#DD2F25" stroke-width="4.11881"/>
<path opacity="0.25" d="M683.971 21.1695L683.971 27.3472L690.149 27.3472L690.149 21.1695L683.971 21.1695Z" fill="#15FEFB" stroke="#DD2F25" stroke-width="4.11881"/>
<path opacity="0.5" d="M664.941 21.1285L664.941 27.3062L671.119 27.3062L671.119 21.1285L664.941 21.1285Z" fill="#F224B5" stroke="#DD2F25" stroke-width="4.11881"/>
<path d="M645.911 21.1285L645.911 27.3062L652.089 27.3062L652.089 21.1285L645.911 21.1285Z" fill="#FCA74E" stroke="#DD2F25" stroke-width="4.11881"/>
<path opacity="0.5" d="M626.881 21.1285L626.881 27.3062L633.059 27.3062L633.059 21.1285L626.881 21.1285Z" fill="#F224B5" stroke="#DD2F25" stroke-width="4.11881"/>
<path d="M607.813 21.1285L607.813 27.3062L613.99 27.3062L613.99 21.1285L607.813 21.1285Z" fill="#FCA74E" stroke="#DD2F25" stroke-width="4.11881"/>
<path opacity="0.25" d="M741.096 40.1993L741.096 46.377L747.274 46.377L747.274 40.1993L741.096 40.1993Z" fill="#F224B5" stroke="#DD2F25" stroke-width="4.11881"/>
<path opacity="0.75" d="M722.07 40.1993L722.07 46.377L728.248 46.377L728.248 40.1993L722.07 40.1993Z" fill="#F224B5" stroke="#DD2F25" stroke-width="4.11881"/>
<path opacity="0.25" d="M703.04 40.1588L703.04 46.3365L709.218 46.3365L709.218 40.1588L703.04 40.1588Z" fill="#FCA74E" stroke="#DD2F25" stroke-width="4.11881"/>
<path opacity="0.5" d="M684.01 40.1993L684.01 46.377L690.188 46.377L690.188 40.1993L684.01 40.1993Z" fill="#F224B5" stroke="#DD2F25" stroke-width="4.11881"/>
<path opacity="0.5" d="M664.941 40.1993L664.941 46.377L671.119 46.377L671.119 40.1993L664.941 40.1993Z" fill="#15FEFB" stroke="#DD2F25" stroke-width="4.11881"/>
<path d="M645.911 40.1993L645.911 46.377L652.089 46.377L652.089 40.1993L645.911 40.1993Z" fill="#15FEFB" stroke="#DD2F25" stroke-width="4.11881"/>
<path opacity="0.5" d="M626.881 40.1993L626.881 46.377L633.059 46.377L633.059 40.1993L626.881 40.1993Z" fill="#15FEFB" stroke="#DD2F25" stroke-width="4.11881"/>
<path opacity="0.25" d="M607.855 40.1588L607.855 46.3365L614.033 46.3365L614.033 40.1588L607.855 40.1588Z" fill="#15FEFB" stroke="#DD2F25" stroke-width="4.11881"/>
<path opacity="0.25" d="M741.096 59.2276L741.096 65.4053L747.274 65.4053L747.274 59.2276L741.096 59.2276Z" fill="#F224B5" stroke="#DD2F25" stroke-width="4.11881"/>
<path opacity="0.5" d="M722.027 59.2276L722.027 65.4053L728.205 65.4053L728.205 59.2276L722.027 59.2276Z" fill="#15FEFB" stroke="#DD2F25" stroke-width="4.11881"/>
<path opacity="0.25" d="M702.997 59.2276L702.997 65.4053L709.175 65.4053L709.175 59.2276L702.997 59.2276Z" fill="#15FEFB" stroke="#DD2F25" stroke-width="4.11881"/>
<path opacity="0.5" d="M683.971 59.2681L683.971 65.4459L690.149 65.4459L690.149 59.2681L683.971 59.2681Z" fill="#15FEFB" stroke="#DD2F25" stroke-width="4.11881"/>
<path opacity="0.75" d="M664.941 59.2681L664.941 65.4459L671.119 65.4459L671.119 59.2681L664.941 59.2681Z" fill="#15FEFB" stroke="#DD2F25" stroke-width="4.11881"/>
<path opacity="0.75" d="M645.911 59.2276L645.911 65.4053L652.089 65.4053L652.089 59.2276L645.911 59.2276Z" fill="#15FEFB" stroke="#DD2F25" stroke-width="4.11881"/>
<path opacity="0.5" d="M626.843 59.2276L626.843 65.4053L633.02 65.4053L633.02 59.2276L626.843 59.2276Z" fill="#F224B5" stroke="#DD2F25" stroke-width="4.11881"/>
<path d="M607.813 59.2276L607.813 65.4053L613.99 65.4053L613.99 59.2276L607.813 59.2276Z" fill="#15FEFB" stroke="#DD2F25" stroke-width="4.11881"/>
<path opacity="0.5" d="M741.096 78.2984L741.096 84.4761L747.274 84.4761L747.274 78.2984L741.096 78.2984Z" fill="#15FEFB" stroke="#DD2F25" stroke-width="4.11881"/>
<path opacity="0.75" d="M722.07 78.2984L722.07 84.4761L728.248 84.4761L728.248 78.2984L722.07 78.2984Z" fill="#FCA74E" stroke="#DD2F25" stroke-width="4.11881"/>
<path opacity="0.25" d="M703.04 78.2984L703.04 84.4761L709.218 84.4761L709.218 78.2984L703.04 78.2984Z" fill="#F224B5" stroke="#DD2F25" stroke-width="4.11881"/>
<path opacity="0.5" d="M683.971 78.2984L683.971 84.4761L690.149 84.4761L690.149 78.2984L683.971 78.2984Z" fill="#FCA74E" stroke="#DD2F25" stroke-width="4.11881"/>
<path d="M664.941 78.2984L664.941 84.4761L671.119 84.4761L671.119 78.2984L664.941 78.2984Z" fill="#F224B5" stroke="#DD2F25" stroke-width="4.11881"/>
<path opacity="0.5" d="M645.911 78.2984L645.911 84.4761L652.089 84.4761L652.089 78.2984L645.911 78.2984Z" fill="#15FEFB" stroke="#DD2F25" stroke-width="4.11881"/>
<path opacity="0.5" d="M626.881 78.2984L626.881 84.4761L633.059 84.4761L633.059 78.2984L626.881 78.2984Z" fill="#F224B5" stroke="#DD2F25" stroke-width="4.11881"/>
<path opacity="0.5" d="M607.855 78.2984L607.855 84.4761L614.033 84.4761L614.033 78.2984L607.855 78.2984Z" fill="#15FEFB" stroke="#DD2F25" stroke-width="4.11881"/>
<path opacity="0.5" d="M741.096 97.3687L741.096 103.546L747.274 103.546L747.274 97.3687L741.096 97.3687Z" fill="#FCA74E" stroke="#DD2F25" stroke-width="4.11881"/>
<path opacity="0.5" d="M722.07 97.3687L722.07 103.546L728.248 103.546L728.248 97.3687L722.07 97.3687Z" fill="#15FEFB" stroke="#DD2F25" stroke-width="4.11881"/>
<path opacity="0.5" d="M703.04 97.3262L703.04 103.504L709.218 103.504L709.218 97.3262L703.04 97.3262Z" fill="#FCA74E" stroke="#DD2F25" stroke-width="4.11881"/>
<path opacity="0.5" d="M684.01 97.3687L684.01 103.546L690.188 103.546L690.188 97.3687L684.01 97.3687Z" fill="#FCA74E" stroke="#DD2F25" stroke-width="4.11881"/>
<path d="M664.982 97.3687L664.982 103.546L671.16 103.546L671.16 97.3687L664.982 97.3687Z" fill="#15FEFB" stroke="#DD2F25" stroke-width="4.11881"/>
<path opacity="0.75" d="M645.911 97.3687L645.911 103.546L652.089 103.546L652.089 97.3687L645.911 97.3687Z" fill="#FCA74E" stroke="#DD2F25" stroke-width="4.11881"/>
<path d="M626.881 97.3687L626.881 103.546L633.059 103.546L633.059 97.3687L626.881 97.3687Z" fill="#FCA74E" stroke="#DD2F25" stroke-width="4.11881"/>
<path opacity="0.25" d="M607.855 97.3262L607.855 103.504L614.033 103.504L614.033 97.3262L607.855 97.3262Z" fill="#15FEFB" stroke="#DD2F25" stroke-width="4.11881"/>
<path opacity="0.5" d="M741.096 116.397L741.096 122.575L747.274 122.575L747.274 116.397L741.096 116.397Z" fill="#FCA74E" stroke="#DD2F25" stroke-width="4.11881"/>
<path opacity="0.25" d="M722.07 116.397L722.07 122.575L728.248 122.575L728.248 116.397L722.07 116.397Z" fill="#15FEFB" stroke="#DD2F25" stroke-width="4.11881"/>
<path opacity="0.75" d="M702.997 116.397L702.997 122.575L709.175 122.575L709.175 116.397L702.997 116.397Z" fill="#F224B5" stroke="#DD2F25" stroke-width="4.11881"/>
<path opacity="0.75" d="M683.971 116.438L683.971 122.616L690.149 122.616L690.149 116.438L683.971 116.438Z" fill="#15FEFB" stroke="#DD2F25" stroke-width="4.11881"/>
<path opacity="0.75" d="M664.941 116.438L664.941 122.616L671.119 122.616L671.119 116.438L664.941 116.438Z" fill="#15FEFB" stroke="#DD2F25" stroke-width="4.11881"/>
<path opacity="0.75" d="M645.911 116.397L645.911 122.575L652.089 122.575L652.089 116.397L645.911 116.397Z" fill="#15FEFB" stroke="#DD2F25" stroke-width="4.11881"/>
<path d="M626.843 116.397L626.843 122.575L633.02 122.575L633.02 116.397L626.843 116.397Z" fill="#FCA74E" stroke="#DD2F25" stroke-width="4.11881"/>
<path opacity="0.75" d="M607.813 116.397L607.813 122.575L613.99 122.575L613.99 116.397L607.813 116.397Z" fill="#F224B5" stroke="#DD2F25" stroke-width="4.11881"/>
<path opacity="0.25" d="M703.04 135.468L703.04 141.646L709.218 141.646L709.218 135.468L703.04 135.468Z" fill="#15FEFB" stroke="#DD2F25" stroke-width="4.11881"/>
<path opacity="0.5" d="M683.971 135.468L683.971 141.646L690.149 141.646L690.149 135.468L683.971 135.468Z" fill="#FCA74E" stroke="#DD2F25" stroke-width="4.11881"/>
<path opacity="0.25" d="M664.941 135.468L664.941 141.646L671.119 141.646L671.119 135.468L664.941 135.468Z" fill="#F224B5" stroke="#DD2F25" stroke-width="4.11881"/>
<path opacity="0.75" d="M645.911 135.468L645.911 141.646L652.089 141.646L652.089 135.468L645.911 135.468Z" fill="#F224B5" stroke="#DD2F25" stroke-width="4.11881"/>
<path d="M607.855 135.468L607.855 141.646L614.033 141.646L614.033 135.468L607.855 135.468Z" fill="#FCA74E" stroke="#DD2F25" stroke-width="4.11881"/>
<path opacity="0.5" d="M722.07 154.536L722.07 160.714L728.248 160.714L728.248 154.536L722.07 154.536Z" fill="#F224B5" stroke="#DD2F25" stroke-width="4.11881"/>
<path d="M703.04 154.496L703.04 160.673L709.218 160.673L709.218 154.496L703.04 154.496Z" fill="#F224B5" stroke="#DD2F25" stroke-width="4.11881"/>
<path opacity="0.5" d="M684.01 154.536L684.01 160.714L690.188 160.714L690.188 154.536L684.01 154.536Z" fill="#FCA74E" stroke="#DD2F25" stroke-width="4.11881"/>
<path opacity="0.5" d="M645.911 154.536L645.911 160.714L652.089 160.714L652.089 154.536L645.911 154.536Z" fill="#FCA74E" stroke="#DD2F25" stroke-width="4.11881"/>
<path opacity="0.5" d="M741.096 173.566L741.096 179.744L747.274 179.744L747.274 173.566L741.096 173.566Z" fill="#15FEFB" stroke="#DD2F25" stroke-width="4.11881"/>
<path opacity="0.75" d="M722.07 173.566L722.07 179.744L728.248 179.744L728.248 173.566L722.07 173.566Z" fill="#15FEFB" stroke="#DD2F25" stroke-width="4.11881"/>
<path opacity="0.75" d="M702.997 173.566L702.997 179.744L709.175 179.744L709.175 173.566L702.997 173.566Z" fill="#15FEFB" stroke="#DD2F25" stroke-width="4.11881"/>
<path opacity="0.75" d="M664.941 173.607L664.941 179.785L671.119 179.785L671.119 173.607L664.941 173.607Z" fill="#15FEFB" stroke="#DD2F25" stroke-width="4.11881"/>
<path d="M645.911 173.566L645.911 179.744L652.089 179.744L652.089 173.566L645.911 173.566Z" fill="#15FEFB" stroke="#DD2F25" stroke-width="4.11881"/>
<path d="M626.843 173.566L626.843 179.744L633.02 179.744L633.02 173.566L626.843 173.566Z" fill="#F224B5" stroke="#DD2F25" stroke-width="4.11881"/>
<path opacity="0.5" d="M683.971 192.635L683.971 198.813L690.149 198.813L690.149 192.635L683.971 192.635Z" fill="#F224B5" stroke="#DD2F25" stroke-width="4.11881"/>
<path opacity="0.5" d="M645.911 192.635L645.911 198.813L652.089 198.813L652.089 192.635L645.911 192.635Z" fill="#15FEFB" stroke="#DD2F25" stroke-width="4.11881"/>
<path opacity="0.75" d="M607.855 192.635L607.855 198.813L614.033 198.813L614.033 192.635L607.855 192.635Z" fill="#FCA74E" stroke="#DD2F25" stroke-width="4.11881"/>
<path opacity="0.75" d="M741.096 211.706L741.096 217.884L747.274 217.884L747.274 211.706L741.096 211.706Z" fill="#FCA74E" stroke="#DD2F25" stroke-width="4.11881"/>
<path opacity="0.5" d="M722.07 211.706L722.07 217.884L728.248 217.884L728.248 211.706L722.07 211.706Z" fill="#FCA74E" stroke="#DD2F25" stroke-width="4.11881"/>
<path opacity="0.75" d="M684.01 211.706L684.01 217.884L690.188 217.884L690.188 211.706L684.01 211.706Z" fill="#F224B5" stroke="#DD2F25" stroke-width="4.11881"/>
<path opacity="0.5" d="M664.982 211.706L664.982 217.884L671.16 217.884L671.16 211.706L664.982 211.706Z" fill="#FCA74E" stroke="#DD2F25" stroke-width="4.11881"/>
<path opacity="0.25" d="M645.911 211.706L645.911 217.884L652.089 217.884L652.089 211.706L645.911 211.706Z" fill="#FCA74E" stroke="#DD2F25" stroke-width="4.11881"/>
<path opacity="0.25" d="M607.855 211.665L607.855 217.843L614.033 217.843L614.033 211.665L607.855 211.665Z" fill="#F224B5" stroke="#DD2F25" stroke-width="4.11881"/>
<path opacity="0.25" d="M722.07 230.736L722.07 236.914L728.248 236.914L728.248 230.736L722.07 230.736Z" fill="#15FEFB" stroke="#DD2F25" stroke-width="4.11881"/>
<path opacity="0.75" d="M607.813 230.734L607.813 236.912L613.99 236.912L613.99 230.734L607.813 230.734Z" fill="#F224B5" stroke="#DD2F25" stroke-width="4.11881"/>
<path opacity="0.75" d="M741.096 249.805L741.096 255.982L747.274 255.982L747.274 249.805L741.096 249.805Z" fill="#15FEFB" stroke="#DD2F25" stroke-width="4.11881"/>
<path opacity="0.5" d="M722.07 249.805L722.07 255.982L728.248 255.982L728.248 249.805L722.07 249.805Z" fill="#F224B5" stroke="#DD2F25" stroke-width="4.11881"/>
<path opacity="0.75" d="M664.941 249.805L664.941 255.982L671.119 255.982L671.119 249.805L664.941 249.805Z" fill="#15FEFB" stroke="#DD2F25" stroke-width="4.11881"/>
<path opacity="0.5" d="M607.855 249.805L607.855 255.982L614.033 255.982L614.033 249.805L607.855 249.805Z" fill="#F224B5" stroke="#DD2F25" stroke-width="4.11881"/>
<path opacity="0.5" d="M741.096 268.876L741.096 275.053L747.274 275.053L747.274 268.876L741.096 268.876Z" fill="#F224B5" stroke="#DD2F25" stroke-width="4.11881"/>
<path opacity="0.5" d="M702.997 287.904L702.997 294.082L709.175 294.082L709.175 287.904L702.997 287.904Z" fill="#F224B5" stroke="#DD2F25" stroke-width="4.11881"/>
<path d="M645.911 287.904L645.911 294.082L652.089 294.082L652.089 287.904L645.911 287.904Z" fill="#FCA74E" stroke="#DD2F25" stroke-width="4.11881"/>
<path opacity="0.75" d="M703.04 326.003L703.04 332.18L709.218 332.18L709.218 326.003L703.04 326.003Z" fill="#FCA74E" stroke="#DD2F25" stroke-width="4.11881"/>
<path opacity="0.5" d="M645.911 326.045L645.911 332.223L652.089 332.223L652.089 326.045L645.911 326.045Z" fill="#15FEFB" stroke="#DD2F25" stroke-width="4.11881"/>
<path opacity="0.75" d="M683.971 345.114L683.971 351.292L690.149 351.292L690.149 345.114L683.971 345.114Z" fill="#FCA74E" stroke="#DD2F25" stroke-width="4.11881"/>
<path d="M645.911 345.073L645.911 351.251L652.089 351.251L652.089 345.073L645.911 345.073Z" fill="#15FEFB" stroke="#DD2F25" stroke-width="4.11881"/>
<path opacity="0.5" d="M741.096 364.144L741.096 370.322L747.274 370.322L747.274 364.144L741.096 364.144Z" fill="#15FEFB" stroke="#DD2F25" stroke-width="4.11881"/>
<path opacity="0.25" d="M684.01 364.144L684.01 370.322L690.188 370.322L690.188 364.144L684.01 364.144Z" fill="#FCA74E" stroke="#DD2F25" stroke-width="4.11881"/>
<path opacity="0.5" d="M664.982 383.213L664.982 389.391L671.16 389.391L671.16 383.213L664.982 383.213Z" fill="#15FEFB" stroke="#DD2F25" stroke-width="4.11881"/>
<path opacity="0.5" d="M684.01 440.382L684.01 446.56L690.188 446.56L690.188 440.382L684.01 440.382Z" fill="#15FEFB" stroke="#DD2F25" stroke-width="4.11881"/>
<path opacity="0.5" d="M607.855 440.341L607.855 446.519L614.033 446.519L614.033 440.341L607.855 440.341Z" fill="#FCA74E" stroke="#DD2F25" stroke-width="4.11881"/>
<path d="M702.997 459.411L702.997 465.588L709.175 465.588L709.175 459.411L702.997 459.411Z" fill="#15FEFB" stroke="#DD2F25" stroke-width="4.11881"/>
<path opacity="0.25" d="M703.04 497.511L703.04 503.689L709.218 503.689L709.218 497.511L703.04 497.511Z" fill="#15FEFB" stroke="#DD2F25" stroke-width="4.11881"/>
<path d="M664.982 497.552L664.982 503.73L671.16 503.73L671.16 497.552L664.982 497.552Z" fill="#15FEFB" stroke="#DD2F25" stroke-width="4.11881"/>
<path opacity="0.5" d="M626.881 497.511L626.881 503.689L633.059 503.689L633.059 497.511L626.881 497.511Z" fill="#F224B5" stroke="#DD2F25" stroke-width="4.11881"/>
<path opacity="0.75" d="M664.941 535.651L664.941 541.829L671.119 541.829L671.119 535.651L664.941 535.651Z" fill="#15FEFB" stroke="#DD2F25" stroke-width="4.11881"/>
<path opacity="0.25" d="M683.971 573.791L683.971 579.969L690.149 579.969L690.149 573.791L683.971 573.791Z" fill="#15FEFB" stroke="#DD2F25" stroke-width="4.11881"/>
<path opacity="0.75" d="M664.941 573.75L664.941 579.928L671.119 579.928L671.119 573.75L664.941 573.75Z" fill="#15FEFB" stroke="#DD2F25" stroke-width="4.11881"/>
<path opacity="0.75" d="M703.04 592.777L703.04 598.955L709.218 598.955L709.218 592.777L703.04 592.777Z" fill="#F224B5" stroke="#DD2F25" stroke-width="4.11881"/>
<path opacity="0.75" d="M607.855 592.777L607.855 598.955L614.033 598.955L614.033 592.777L607.855 592.777Z" fill="#FCA74E" stroke="#DD2F25" stroke-width="4.11881"/>
<path opacity="0.3" d="M892.67 2.05963L892.67 8.23736L898.848 8.23736L898.848 2.05963L892.67 2.05963Z" fill="#FCA74E" stroke="#DD2F25" stroke-width="4.11881"/>
<path opacity="0.3" d="M835.542 2.05963L835.542 8.23736L841.719 8.23736L841.719 2.05963L835.542 2.05963Z" fill="#15FEFB" stroke="#DD2F25" stroke-width="4.11881"/>
<path opacity="0.5" d="M816.473 2.05963L816.473 8.23736L822.651 8.23736L822.651 2.05963L816.473 2.05963Z" fill="#15FEFB" stroke="#DD2F25" stroke-width="4.11881"/>
<path d="M797.443 2.05963L797.443 8.23736L803.621 8.23736L803.621 2.05963L797.443 2.05963Z" fill="#15FEFB" stroke="#DD2F25" stroke-width="4.11881"/>
<path opacity="0.75" d="M778.413 2.05963L778.413 8.23736L784.591 8.23736L784.591 2.05963L778.413 2.05963Z" fill="#F224B5" stroke="#DD2F25" stroke-width="4.11881"/>
<path opacity="0.25" d="M759.383 2.05963L759.383 8.23736L765.561 8.23736L765.561 2.05963L759.383 2.05963Z" fill="#15FEFB" stroke="#DD2F25" stroke-width="4.11881"/>
<path opacity="0.3" d="M854.572 21.1285L854.572 27.3062L860.749 27.3062L860.749 21.1285L854.572 21.1285Z" fill="#FCA74E" stroke="#DD2F25" stroke-width="4.11881"/>
<path opacity="0.3" d="M835.542 21.1285L835.542 27.3062L841.719 27.3062L841.719 21.1285L835.542 21.1285Z" fill="#FCA74E" stroke="#DD2F25" stroke-width="4.11881"/>
<path opacity="0.5" d="M816.512 21.1285L816.512 27.3062L822.69 27.3062L822.69 21.1285L816.512 21.1285Z" fill="#15FEFB" stroke="#DD2F25" stroke-width="4.11881"/>
<path d="M797.484 21.1285L797.484 27.3062L803.662 27.3062L803.662 21.1285L797.484 21.1285Z" fill="#FCA74E" stroke="#DD2F25" stroke-width="4.11881"/>
<path opacity="0.5" d="M778.456 21.1285L778.456 27.3062L784.634 27.3062L784.634 21.1285L778.456 21.1285Z" fill="#15FEFB" stroke="#DD2F25" stroke-width="4.11881"/>
<path d="M759.383 21.1285L759.383 27.3062L765.561 27.3062L765.561 21.1285L759.383 21.1285Z" fill="#15FEFB" stroke="#DD2F25" stroke-width="4.11881"/>
<path opacity="0.3" d="M892.67 40.1993L892.67 46.377L898.848 46.377L898.848 40.1993L892.67 40.1993Z" fill="#FCA74E" stroke="#DD2F25" stroke-width="4.11881"/>
<path opacity="0.3" d="M873.64 40.1993L873.64 46.377L879.818 46.377L879.818 40.1993L873.64 40.1993Z" fill="#F224B5" stroke="#DD2F25" stroke-width="4.11881"/>
<path opacity="0.5" d="M816.512 40.1993L816.512 46.377L822.69 46.377L822.69 40.1993L816.512 40.1993Z" fill="#F224B5" stroke="#DD2F25" stroke-width="4.11881"/>
<path d="M797.484 40.1993L797.484 46.377L803.662 46.377L803.662 40.1993L797.484 40.1993Z" fill="#15FEFB" stroke="#DD2F25" stroke-width="4.11881"/>
<path opacity="0.5" d="M778.456 40.1588L778.456 46.3365L784.634 46.3365L784.634 40.1588L778.456 40.1588Z" fill="#15FEFB" stroke="#DD2F25" stroke-width="4.11881"/>
<path opacity="0.25" d="M759.426 40.1588L759.426 46.3365L765.604 46.3365L765.604 40.1588L759.426 40.1588Z" fill="#F224B5" stroke="#DD2F25" stroke-width="4.11881"/>
<path opacity="0.3" d="M873.598 59.2276L873.598 65.4053L879.775 65.4053L879.775 59.2276L873.598 59.2276Z" fill="#15FEFB" stroke="#DD2F25" stroke-width="4.11881"/>
<path opacity="0.3" d="M835.542 59.2681L835.542 65.4459L841.719 65.4459L841.719 59.2681L835.542 59.2681Z" fill="#15FEFB" stroke="#DD2F25" stroke-width="4.11881"/>
<path opacity="0.75" d="M816.512 59.2681L816.512 65.4459L822.69 65.4459L822.69 59.2681L816.512 59.2681Z" fill="#15FEFB" stroke="#DD2F25" stroke-width="4.11881"/>
<path opacity="0.75" d="M797.484 59.2276L797.484 65.4053L803.662 65.4053L803.662 59.2276L797.484 59.2276Z" fill="#F224B5" stroke="#DD2F25" stroke-width="4.11881"/>
<path opacity="0.5" d="M778.413 59.2276L778.413 65.4053L784.591 65.4053L784.591 59.2276L778.413 59.2276Z" fill="#F224B5" stroke="#DD2F25" stroke-width="4.11881"/>
<path d="M759.383 59.2276L759.383 65.4053L765.561 65.4053L765.561 59.2276L759.383 59.2276Z" fill="#15FEFB" stroke="#DD2F25" stroke-width="4.11881"/>
<path opacity="0.3" d="M892.67 78.2984L892.67 84.4761L898.848 84.4761L898.848 78.2984L892.67 78.2984Z" fill="#FCA74E" stroke="#DD2F25" stroke-width="4.11881"/>
<path opacity="0.3" d="M873.64 78.2984L873.64 84.4761L879.818 84.4761L879.818 78.2984L873.64 78.2984Z" fill="#FCA74E" stroke="#DD2F25" stroke-width="4.11881"/>
<path opacity="0.3" d="M854.611 78.2984L854.611 84.4761L860.788 84.4761L860.788 78.2984L854.611 78.2984Z" fill="#15FEFB" stroke="#DD2F25" stroke-width="4.11881"/>
<path d="M816.512 78.2984L816.512 84.4761L822.69 84.4761L822.69 78.2984L816.512 78.2984Z" fill="#15FEFB" stroke="#DD2F25" stroke-width="4.11881"/>
<path opacity="0.5" d="M797.484 78.2984L797.484 84.4761L803.662 84.4761L803.662 78.2984L797.484 78.2984Z" fill="#15FEFB" stroke="#DD2F25" stroke-width="4.11881"/>
<path opacity="0.5" d="M778.456 78.2984L778.456 84.4761L784.634 84.4761L784.634 78.2984L778.456 78.2984Z" fill="#F224B5" stroke="#DD2F25" stroke-width="4.11881"/>
<path opacity="0.5" d="M759.383 78.2984L759.383 84.4761L765.561 84.4761L765.561 78.2984L759.383 78.2984Z" fill="#FCA74E" stroke="#DD2F25" stroke-width="4.11881"/>
<path opacity="0.3" d="M892.67 97.3687L892.67 103.546L898.848 103.546L898.848 97.3687L892.67 97.3687Z" fill="#15FEFB" stroke="#DD2F25" stroke-width="4.11881"/>
<path opacity="0.3" d="M854.611 97.3262L854.611 103.504L860.788 103.504L860.788 97.3262L854.611 97.3262Z" fill="#F224B5" stroke="#DD2F25" stroke-width="4.11881"/>
<path d="M816.512 97.3687L816.512 103.546L822.69 103.546L822.69 97.3687L816.512 97.3687Z" fill="#15FEFB" stroke="#DD2F25" stroke-width="4.11881"/>
<path opacity="0.75" d="M797.484 97.3687L797.484 103.546L803.662 103.546L803.662 97.3687L797.484 97.3687Z" fill="#15FEFB" stroke="#DD2F25" stroke-width="4.11881"/>
<path d="M778.456 97.3262L778.456 103.504L784.634 103.504L784.634 97.3262L778.456 97.3262Z" fill="#15FEFB" stroke="#DD2F25" stroke-width="4.11881"/>
<path opacity="0.25" d="M759.426 97.3262L759.426 103.504L765.604 103.504L765.604 97.3262L759.426 97.3262Z" fill="#15FEFB" stroke="#DD2F25" stroke-width="4.11881"/>
<path opacity="0.3" d="M835.542 116.438L835.542 122.616L841.719 122.616L841.719 116.438L835.542 116.438Z" fill="#FCA74E" stroke="#DD2F25" stroke-width="4.11881"/>
<path opacity="0.75" d="M816.512 116.438L816.512 122.616L822.69 122.616L822.69 116.438L816.512 116.438Z" fill="#15FEFB" stroke="#DD2F25" stroke-width="4.11881"/>
<path opacity="0.75" d="M797.484 116.397L797.484 122.575L803.662 122.575L803.662 116.397L797.484 116.397Z" fill="#F224B5" stroke="#DD2F25" stroke-width="4.11881"/>
<path d="M778.413 116.397L778.413 122.575L784.591 122.575L784.591 116.397L778.413 116.397Z" fill="#FCA74E" stroke="#DD2F25" stroke-width="4.11881"/>
<path opacity="0.75" d="M759.383 116.397L759.383 122.575L765.561 122.575L765.561 116.397L759.383 116.397Z" fill="#15FEFB" stroke="#DD2F25" stroke-width="4.11881"/>
<path opacity="0.3" d="M835.542 135.468L835.542 141.646L841.719 141.646L841.719 135.468L835.542 135.468Z" fill="#FCA74E" stroke="#DD2F25" stroke-width="4.11881"/>
<path opacity="0.25" d="M816.512 135.468L816.512 141.646L822.69 141.646L822.69 135.468L816.512 135.468Z" fill="#FCA74E" stroke="#DD2F25" stroke-width="4.11881"/>
<path opacity="0.75" d="M797.484 135.468L797.484 141.646L803.662 141.646L803.662 135.468L797.484 135.468Z" fill="#15FEFB" stroke="#DD2F25" stroke-width="4.11881"/>
<path d="M759.383 135.468L759.383 141.646L765.561 141.646L765.561 135.468L759.383 135.468Z" fill="#15FEFB" stroke="#DD2F25" stroke-width="4.11881"/>
<path opacity="0.5" d="M797.484 154.536L797.484 160.714L803.662 160.714L803.662 154.536L797.484 154.536Z" fill="#15FEFB" stroke="#DD2F25" stroke-width="4.11881"/>
<path opacity="0.3" d="M835.542 173.607L835.542 179.785L841.719 179.785L841.719 173.607L835.542 173.607Z" fill="#F224B5" stroke="#DD2F25" stroke-width="4.11881"/>
<path d="M778.413 173.566L778.413 179.744L784.591 179.744L784.591 173.566L778.413 173.566Z" fill="#FCA74E" stroke="#DD2F25" stroke-width="4.11881"/>
<path d="M759.383 173.566L759.383 179.744L765.561 179.744L765.561 173.566L759.383 173.566Z" fill="#15FEFB" stroke="#DD2F25" stroke-width="4.11881"/>
<path opacity="0.3" d="M892.67 211.706L892.67 217.884L898.848 217.884L898.848 211.706L892.67 211.706Z" fill="#FCA74E" stroke="#DD2F25" stroke-width="4.11881"/>
<path opacity="0.3" d="M854.611 211.665L854.611 217.843L860.788 217.843L860.788 211.665L854.611 211.665Z" fill="#15FEFB" stroke="#DD2F25" stroke-width="4.11881"/>
<path opacity="0.3" d="M835.583 211.706L835.583 217.884L841.76 217.884L841.76 211.706L835.583 211.706Z" fill="#15FEFB" stroke="#DD2F25" stroke-width="4.11881"/>
<path opacity="0.5" d="M816.512 211.706L816.512 217.884L822.69 217.884L822.69 211.706L816.512 211.706Z" fill="#FCA74E" stroke="#DD2F25" stroke-width="4.11881"/>
<path opacity="0.75" d="M778.456 211.665L778.456 217.843L784.634 217.843L784.634 211.665L778.456 211.665Z" fill="#15FEFB" stroke="#DD2F25" stroke-width="4.11881"/>
<path opacity="0.25" d="M759.426 211.665L759.426 217.843L765.604 217.843L765.604 211.665L759.426 211.665Z" fill="#15FEFB" stroke="#DD2F25" stroke-width="4.11881"/>
<path opacity="0.3" d="M873.598 230.736L873.598 236.914L879.775 236.914L879.775 230.736L873.598 230.736Z" fill="#15FEFB" stroke="#DD2F25" stroke-width="4.11881"/>
<path opacity="0.3" d="M854.572 230.736L854.572 236.914L860.749 236.914L860.749 230.736L854.572 230.736Z" fill="#15FEFB" stroke="#DD2F25" stroke-width="4.11881"/>
<path opacity="0.3" d="M835.542 230.777L835.542 236.955L841.719 236.955L841.719 230.777L835.542 230.777Z" fill="#FCA74E" stroke="#DD2F25" stroke-width="4.11881"/>
<path opacity="0.25" d="M816.512 230.734L816.512 236.912L822.69 236.912L822.69 230.734L816.512 230.734Z" fill="#15FEFB" stroke="#DD2F25" stroke-width="4.11881"/>
<path opacity="0.25" d="M778.413 230.736L778.413 236.914L784.591 236.914L784.591 230.736L778.413 230.736Z" fill="#15FEFB" stroke="#DD2F25" stroke-width="4.11881"/>
<path opacity="0.75" d="M759.383 230.734L759.383 236.912L765.561 236.912L765.561 230.734L759.383 230.734Z" fill="#F224B5" stroke="#DD2F25" stroke-width="4.11881"/>
<path opacity="0.3" d="M892.67 249.805L892.67 255.982L898.848 255.982L898.848 249.805L892.67 249.805Z" fill="#15FEFB" stroke="#DD2F25" stroke-width="4.11881"/>
<path opacity="0.3" d="M873.641 249.805L873.641 255.982L879.818 255.982L879.818 249.805L873.641 249.805Z" fill="#F224B5" stroke="#DD2F25" stroke-width="4.11881"/>
<path opacity="0.75" d="M816.512 249.805L816.512 255.982L822.69 255.982L822.69 249.805L816.512 249.805Z" fill="#FCA74E" stroke="#DD2F25" stroke-width="4.11881"/>
<path opacity="0.5" d="M816.555 268.876L816.555 275.053L822.732 275.053L822.732 268.876L816.555 268.876Z" fill="#F224B5" stroke="#DD2F25" stroke-width="4.11881"/>
<path opacity="0.25" d="M797.484 268.876L797.484 275.053L803.662 275.053L803.662 268.876L797.484 268.876Z" fill="#FCA74E" stroke="#DD2F25" stroke-width="4.11881"/>
<path opacity="0.3" d="M854.611 306.934L854.611 313.112L860.788 313.112L860.788 306.934L854.611 306.934Z" fill="#F224B5" stroke="#DD2F25" stroke-width="4.11881"/>
<path opacity="0.5" d="M797.484 306.975L797.484 313.152L803.662 313.152L803.662 306.975L797.484 306.975Z" fill="#F224B5" stroke="#DD2F25" stroke-width="4.11881"/>
<path d="M778.456 326.003L778.456 332.18L784.634 332.18L784.634 326.003L778.456 326.003Z" fill="#F224B5" stroke="#DD2F25" stroke-width="4.11881"/>
<path d="M797.484 345.073L797.484 351.251L803.662 351.251L803.662 345.073L797.484 345.073Z" fill="#FCA74E" stroke="#DD2F25" stroke-width="4.11881"/>
<path opacity="0.3" d="M835.542 364.144L835.542 370.322L841.719 370.322L841.719 364.144L835.542 364.144Z" fill="#15FEFB" stroke="#DD2F25" stroke-width="4.11881"/>
<path opacity="0.5" d="M778.456 364.144L778.456 370.322L784.634 370.322L784.634 364.144L778.456 364.144Z" fill="#F224B5" stroke="#DD2F25" stroke-width="4.11881"/>
<path opacity="0.3" d="M892.67 383.213L892.67 389.391L898.848 389.391L898.848 383.213L892.67 383.213Z" fill="#FCA74E" stroke="#DD2F25" stroke-width="4.11881"/>
<path opacity="0.5" d="M816.555 383.213L816.555 389.391L822.732 389.391L822.732 383.213L816.555 383.213Z" fill="#FCA74E" stroke="#DD2F25" stroke-width="4.11881"/>
<path opacity="0.5" d="M797.484 402.243L797.484 408.421L803.662 408.421L803.662 402.243L797.484 402.243Z" fill="#15FEFB" stroke="#DD2F25" stroke-width="4.11881"/>
<path opacity="0.3" d="M854.611 421.271L854.611 427.449L860.788 427.449L860.788 421.271L854.611 421.271Z" fill="#15FEFB" stroke="#DD2F25" stroke-width="4.11881"/>
<path opacity="0.25" d="M778.456 421.312L778.456 427.489L784.634 427.489L784.634 421.312L778.456 421.312Z" fill="#F224B5" stroke="#DD2F25" stroke-width="4.11881"/>
<path opacity="0.25" d="M816.555 440.382L816.555 446.56L822.732 446.56L822.732 440.382L816.555 440.382Z" fill="#FCA74E" stroke="#DD2F25" stroke-width="4.11881"/>
<path opacity="0.5" d="M778.456 440.342L778.456 446.52L784.634 446.52L784.634 440.342L778.456 440.342Z" fill="#F224B5" stroke="#DD2F25" stroke-width="4.11881"/>
<path opacity="0.5" d="M797.484 459.411L797.484 465.588L803.662 465.588L803.662 459.411L797.484 459.411Z" fill="#F224B5" stroke="#DD2F25" stroke-width="4.11881"/>
<path d="M816.512 478.481L816.512 484.659L822.69 484.659L822.69 478.481L816.512 478.481Z" fill="#F224B5" stroke="#DD2F25" stroke-width="4.11881"/>
<path opacity="0.5" d="M797.484 478.481L797.484 484.659L803.662 484.659L803.662 478.481L797.484 478.481Z" fill="#F224B5" stroke="#DD2F25" stroke-width="4.11881"/>
<path opacity="0.3" d="M892.67 497.511L892.67 503.689L898.848 503.689L898.848 497.511L892.67 497.511Z" fill="#15FEFB" stroke="#DD2F25" stroke-width="4.11881"/>
<path opacity="0.3" d="M854.611 497.511L854.611 503.689L860.788 503.689L860.788 497.511L854.611 497.511Z" fill="#15FEFB" stroke="#DD2F25" stroke-width="4.11881"/>
<path opacity="0.25" d="M778.456 535.651L778.456 541.829L784.634 541.829L784.634 535.651L778.456 535.651Z" fill="#15FEFB" stroke="#DD2F25" stroke-width="4.11881"/>
<path opacity="0.3" d="M854.572 611.848L854.572 618.025L860.749 618.025L860.749 611.848L854.572 611.848Z" fill="#F224B5" stroke="#DD2F25" stroke-width="4.11881"/>
<path opacity="0.3" d="M1044.08 2.10064L1044.08 8.27838L1050.25 8.27838L1050.25 2.10065L1044.08 2.10064Z" fill="#FCA74E" stroke="#DD2F25" stroke-width="4.11881"/>
<path opacity="0.3" d="M986.949 2.10064L986.949 8.27838L993.126 8.27838L993.126 2.10065L986.949 2.10064Z" fill="#F224B5" stroke="#DD2F25" stroke-width="4.11881"/>
<path opacity="0.3" d="M967.921 2.10064L967.921 8.27838L974.099 8.27838L974.099 2.10065L967.921 2.10064Z" fill="#15FEFB" stroke="#DD2F25" stroke-width="4.11881"/>
<path opacity="0.3" d="M948.891 2.10064L948.891 8.27838L955.069 8.27838L955.069 2.10065L948.891 2.10064Z" fill="#FCA74E" stroke="#DD2F25" stroke-width="4.11881"/>
<path opacity="0.3" d="M929.863 2.05963L929.863 8.23736L936.041 8.23736L936.041 2.05963L929.863 2.05963Z" fill="#FCA74E" stroke="#DD2F25" stroke-width="4.11881"/>
<path opacity="0.3" d="M1044.08 21.1285L1044.08 27.3062L1050.25 27.3062L1050.25 21.1285L1044.08 21.1285Z" fill="#F224B5" stroke="#DD2F25" stroke-width="4.11881"/>
<path opacity="0.3" d="M986.99 21.1285L986.99 27.3062L993.167 27.3062L993.167 21.1285L986.99 21.1285Z" fill="#15FEFB" stroke="#DD2F25" stroke-width="4.11881"/>
<path opacity="0.3" d="M929.863 21.1285L929.863 27.3062L936.041 27.3062L936.041 21.1285L929.863 21.1285Z" fill="#FCA74E" stroke="#DD2F25" stroke-width="4.11881"/>
<path opacity="0.3" d="M1006.02 40.1993L1006.02 46.377L1012.2 46.377L1012.2 40.1993L1006.02 40.1993Z" fill="#15FEFB" stroke="#DD2F25" stroke-width="4.11881"/>
<path opacity="0.3" d="M986.99 40.1588L986.99 46.3365L993.167 46.3365L993.167 40.1588L986.99 40.1588Z" fill="#F224B5" stroke="#DD2F25" stroke-width="4.11881"/>
<path opacity="0.3" d="M967.962 40.1588L967.962 46.3365L974.139 46.3365L974.139 40.1588L967.962 40.1588Z" fill="#15FEFB" stroke="#DD2F25" stroke-width="4.11881"/>
<path opacity="0.3" d="M948.932 40.1993L948.932 46.377L955.109 46.377L955.109 40.1993L948.932 40.1993Z" fill="#15FEFB" stroke="#DD2F25" stroke-width="4.11881"/>
<path opacity="0.3" d="M929.863 40.1993L929.863 46.377L936.041 46.377L936.041 40.1993L929.863 40.1993Z" fill="#FCA74E" stroke="#DD2F25" stroke-width="4.11881"/>
<path opacity="0.3" d="M967.921 59.2276L967.921 65.4053L974.099 65.4053L974.099 59.2276L967.921 59.2276Z" fill="#FCA74E" stroke="#DD2F25" stroke-width="4.11881"/>
<path opacity="0.3" d="M948.891 59.2681L948.891 65.4459L955.069 65.4459L955.069 59.2681L948.891 59.2681Z" fill="#15FEFB" stroke="#DD2F25" stroke-width="4.11881"/>
<path opacity="0.3" d="M929.863 59.2276L929.863 65.4053L936.041 65.4053L936.041 59.2276L929.863 59.2276Z" fill="#F224B5" stroke="#DD2F25" stroke-width="4.11881"/>
<path opacity="0.3" d="M910.792 59.2276L910.792 65.4053L916.97 65.4053L916.97 59.2276L910.792 59.2276Z" fill="#F224B5" stroke="#DD2F25" stroke-width="4.11881"/>
<path opacity="0.3" d="M1006.02 78.2984L1006.02 84.4761L1012.2 84.4761L1012.2 78.2984L1006.02 78.2984Z" fill="#15FEFB" stroke="#DD2F25" stroke-width="4.11881"/>
<path opacity="0.3" d="M967.921 78.2984L967.921 84.4761L974.099 84.4761L974.099 78.2984L967.921 78.2984Z" fill="#FCA74E" stroke="#DD2F25" stroke-width="4.11881"/>
<path opacity="0.3" d="M948.891 78.2984L948.891 84.4761L955.069 84.4761L955.069 78.2984L948.891 78.2984Z" fill="#FCA74E" stroke="#DD2F25" stroke-width="4.11881"/>
<path opacity="0.3" d="M910.833 78.2984L910.833 84.4761L917.011 84.4761L917.011 78.2984L910.833 78.2984Z" fill="#F224B5" stroke="#DD2F25" stroke-width="4.11881"/>
<path opacity="0.3" d="M1044.12 97.3687L1044.12 103.546L1050.3 103.546L1050.3 97.3687L1044.12 97.3687Z" fill="#F224B5" stroke="#DD2F25" stroke-width="4.11881"/>
<path opacity="0.3" d="M1025.05 97.3687L1025.05 103.546L1031.23 103.546L1031.23 97.3687L1025.05 97.3687Z" fill="#FCA74E" stroke="#DD2F25" stroke-width="4.11881"/>
<path opacity="0.3" d="M1006.02 97.3687L1006.02 103.546L1012.2 103.546L1012.2 97.3687L1006.02 97.3687Z" fill="#FCA74E" stroke="#DD2F25" stroke-width="4.11881"/>
<path opacity="0.3" d="M910.833 97.3687L910.833 103.546L917.011 103.546L917.011 97.3687L910.833 97.3687Z" fill="#15FEFB" stroke="#DD2F25" stroke-width="4.11881"/>
<path opacity="0.3" d="M1025.05 116.397L1025.05 122.575L1031.23 122.575L1031.23 116.397L1025.05 116.397Z" fill="#15FEFB" stroke="#DD2F25" stroke-width="4.11881"/>
<path opacity="0.3" d="M986.949 116.397L986.949 122.575L993.126 122.575L993.126 116.397L986.949 116.397Z" fill="#FCA74E" stroke="#DD2F25" stroke-width="4.11881"/>
<path opacity="0.3" d="M948.891 116.438L948.891 122.616L955.069 122.616L955.069 116.438L948.891 116.438Z" fill="#FCA74E" stroke="#DD2F25" stroke-width="4.11881"/>
<path opacity="0.3" d="M929.863 116.397L929.863 122.575L936.041 122.575L936.041 116.397L929.863 116.397Z" fill="#15FEFB" stroke="#DD2F25" stroke-width="4.11881"/>
<path opacity="0.3" d="M1025.05 135.468L1025.05 141.646L1031.23 141.646L1031.23 135.468L1025.05 135.468Z" fill="#F224B5" stroke="#DD2F25" stroke-width="4.11881"/>
<path opacity="0.3" d="M1006.02 154.537L1006.02 160.714L1012.2 160.714L1012.2 154.537L1006.02 154.537Z" fill="#15FEFB" stroke="#DD2F25" stroke-width="4.11881"/>
<path opacity="0.3" d="M986.99 154.496L986.99 160.673L993.167 160.673L993.167 154.496L986.99 154.496Z" fill="#FCA74E" stroke="#DD2F25" stroke-width="4.11881"/>
<path opacity="0.3" d="M967.962 154.496L967.962 160.673L974.139 160.673L974.139 154.496L967.962 154.496Z" fill="#FCA74E" stroke="#DD2F25" stroke-width="4.11881"/>
<path opacity="0.3" d="M948.932 154.536L948.932 160.714L955.109 160.714L955.109 154.536L948.932 154.536Z" fill="#FCA74E" stroke="#DD2F25" stroke-width="4.11881"/>
<path opacity="0.3" d="M910.833 154.496L910.833 160.673L917.011 160.673L917.011 154.496L910.833 154.496Z" fill="#15FEFB" stroke="#DD2F25" stroke-width="4.11881"/>
<path opacity="0.3" d="M986.949 173.566L986.949 179.744L993.126 179.744L993.126 173.566L986.949 173.566Z" fill="#15FEFB" stroke="#DD2F25" stroke-width="4.11881"/>
<path opacity="0.3" d="M967.921 173.566L967.921 179.744L974.099 179.744L974.099 173.566L967.921 173.566Z" fill="#15FEFB" stroke="#DD2F25" stroke-width="4.11881"/>
<path opacity="0.3" d="M929.863 173.566L929.863 179.744L936.041 179.744L936.041 173.566L929.863 173.566Z" fill="#FCA74E" stroke="#DD2F25" stroke-width="4.11881"/>
<path opacity="0.3" d="M986.99 192.635L986.99 198.813L993.167 198.813L993.167 192.635L986.99 192.635Z" fill="#15FEFB" stroke="#DD2F25" stroke-width="4.11881"/>
<path opacity="0.3" d="M948.891 192.635L948.891 198.813L955.069 198.813L955.069 192.635L948.891 192.635Z" fill="#15FEFB" stroke="#DD2F25" stroke-width="4.11881"/>
<path opacity="0.3" d="M986.949 230.736L986.949 236.914L993.126 236.914L993.126 230.736L986.949 230.736Z" fill="#15FEFB" stroke="#DD2F25" stroke-width="4.11881"/>
<path opacity="0.3" d="M967.921 230.736L967.921 236.914L974.099 236.914L974.099 230.736L967.921 230.736Z" fill="#15FEFB" stroke="#DD2F25" stroke-width="4.11881"/>
<path opacity="0.3" d="M929.863 230.736L929.863 236.914L936.041 236.914L936.041 230.736L929.863 230.736Z" fill="#15FEFB" stroke="#DD2F25" stroke-width="4.11881"/>
<path opacity="0.3" d="M967.921 249.764L967.921 255.942L974.099 255.942L974.099 249.764L967.921 249.764Z" fill="#FCA74E" stroke="#DD2F25" stroke-width="4.11881"/>
<path opacity="0.3" d="M986.949 287.904L986.949 294.082L993.126 294.082L993.126 287.904L986.949 287.904Z" fill="#F224B5" stroke="#DD2F25" stroke-width="4.11881"/>
<path opacity="0.3" d="M948.891 306.975L948.891 313.152L955.069 313.152L955.069 306.975L948.891 306.975Z" fill="#15FEFB" stroke="#DD2F25" stroke-width="4.11881"/>
<path opacity="0.3" d="M948.932 326.045L948.932 332.223L955.109 332.223L955.109 326.045L948.932 326.045Z" fill="#F224B5" stroke="#DD2F25" stroke-width="4.11881"/>
<path opacity="0.3" d="M967.921 345.073L967.921 351.251L974.099 351.251L974.099 345.073L967.921 345.073Z" fill="#F224B5" stroke="#DD2F25" stroke-width="4.11881"/>
<path opacity="0.3" d="M948.932 383.213L948.932 389.391L955.109 389.391L955.109 383.213L948.932 383.213Z" fill="#FCA74E" stroke="#DD2F25" stroke-width="4.11881"/>
<path opacity="0.3" d="M948.891 421.312L948.891 427.489L955.069 427.489L955.069 421.312L948.891 421.312Z" fill="#15FEFB" stroke="#DD2F25" stroke-width="4.11881"/>
<path opacity="0.3" d="M948.932 440.382L948.932 446.56L955.109 446.56L955.109 440.382L948.932 440.382Z" fill="#FCA74E" stroke="#DD2F25" stroke-width="4.11881"/>
<path opacity="0.3" d="M1006.02 459.411L1006.02 465.588L1012.2 465.588L1012.2 459.411L1006.02 459.411Z" fill="#F224B5" stroke="#DD2F25" stroke-width="4.11881"/>
<path opacity="0.3" d="M948.891 516.58L948.891 522.758L955.069 522.758L955.069 516.58L948.891 516.58Z" fill="#15FEFB" stroke="#DD2F25" stroke-width="4.11881"/>
<path opacity="0.3" d="M1006.02 554.679L1006.02 560.857L1012.2 560.857L1012.2 554.679L1006.02 554.679Z" fill="#15FEFB" stroke="#DD2F25" stroke-width="4.11881"/>
<path opacity="0.3" d="M986.99 592.777L986.99 598.955L993.167 598.955L993.167 592.777L986.99 592.777Z" fill="#15FEFB" stroke="#DD2F25" stroke-width="4.11881"/>
<path opacity="0.3" d="M948.891 592.82L948.891 598.998L955.069 598.998L955.069 592.82L948.891 592.82Z" fill="#F224B5" stroke="#DD2F25" stroke-width="4.11881"/>
<path opacity="0.17" d="M1100.46 2.05963L1100.46 8.23736L1106.64 8.23736L1106.64 2.05963L1100.46 2.05963Z" fill="#FCA74E" stroke="#DD2F25" stroke-width="4.11881"/>
<path opacity="0.17" d="M1176.62 21.1285L1176.62 27.3062L1182.8 27.3062L1182.8 21.1285L1176.62 21.1285Z" fill="#F224B5" stroke="#DD2F25" stroke-width="4.11881"/>
<path opacity="0.17" d="M1138.52 21.1285L1138.52 27.3062L1144.7 27.3062L1144.7 21.1285L1138.52 21.1285Z" fill="#15FEFB" stroke="#DD2F25" stroke-width="4.11881"/>
<path opacity="0.17" d="M1119.49 21.1285L1119.49 27.3062L1125.67 27.3062L1125.67 21.1285L1119.49 21.1285Z" fill="#F224B5" stroke="#DD2F25" stroke-width="4.11881"/>
<path opacity="0.17" d="M1195.65 40.1993L1195.65 46.377L1201.83 46.377L1201.83 40.1993L1195.65 40.1993Z" fill="#F224B5" stroke="#DD2F25" stroke-width="4.11881"/>
<path opacity="0.3" d="M1081.44 40.1993L1081.44 46.377L1087.61 46.377L1087.61 40.1993L1081.44 40.1993Z" fill="#15FEFB" stroke="#DD2F25" stroke-width="4.11881"/>
<path opacity="0.3" d="M1062.36 59.2276L1062.36 65.4053L1068.54 65.4053L1068.54 59.2276L1062.36 59.2276Z" fill="#15FEFB" stroke="#DD2F25" stroke-width="4.11881"/>
<path opacity="0.17" d="M1157.59 78.2984L1157.59 84.4761L1163.77 84.4761L1163.77 78.2984L1157.59 78.2984Z" fill="#F224B5" stroke="#DD2F25" stroke-width="4.11881"/>
<path opacity="0.17" d="M1157.59 97.3687L1157.59 103.546L1163.77 103.546L1163.77 97.3687L1157.59 97.3687Z" fill="#FCA74E" stroke="#DD2F25" stroke-width="4.11881"/>
<path opacity="0.17" d="M1100.46 116.438L1100.46 122.616L1106.64 122.616L1106.64 116.438L1100.46 116.438Z" fill="#15FEFB" stroke="#DD2F25" stroke-width="4.11881"/>
<path opacity="0.17" d="M1195.65 135.468L1195.65 141.646L1201.83 141.646L1201.83 135.468L1195.65 135.468Z" fill="#15FEFB" stroke="#DD2F25" stroke-width="4.11881"/>
<path opacity="0.17" d="M1157.59 154.496L1157.59 160.673L1163.77 160.673L1163.77 154.496L1157.59 154.496Z" fill="#F224B5" stroke="#DD2F25" stroke-width="4.11881"/>
<path opacity="0.17" d="M1195.65 192.635L1195.65 198.813L1201.83 198.813L1201.83 192.635L1195.65 192.635Z" fill="#FCA74E" stroke="#DD2F25" stroke-width="4.11881"/>
<path opacity="0.17" d="M1176.62 192.635L1176.62 198.813L1182.8 198.813L1182.8 192.635L1176.62 192.635Z" fill="#F224B5" stroke="#DD2F25" stroke-width="4.11881"/>
<path opacity="0.17" d="M1157.59 192.635L1157.59 198.813L1163.77 198.813L1163.77 192.635L1157.59 192.635Z" fill="#FCA74E" stroke="#DD2F25" stroke-width="4.11881"/>
<path opacity="0.17" d="M1119.49 192.635L1119.49 198.813L1125.67 198.813L1125.67 192.635L1119.49 192.635Z" fill="#FCA74E" stroke="#DD2F25" stroke-width="4.11881"/>
<path opacity="0.17" d="M1138.56 211.665L1138.56 217.843L1144.74 217.843L1144.74 211.665L1138.56 211.665Z" fill="#F224B5" stroke="#DD2F25" stroke-width="4.11881"/>
<path opacity="0.17" d="M1157.59 345.073L1157.59 351.251L1163.77 351.251L1163.77 345.073L1157.59 345.073Z" fill="#F224B5" stroke="#DD2F25" stroke-width="4.11881"/>
<path opacity="0.3" d="M1081.44 516.58L1081.44 522.758L1087.61 522.758L1087.61 516.58L1081.44 516.58Z" fill="#15FEFB" stroke="#DD2F25" stroke-width="4.11881"/>
<path opacity="0.17" d="M1290.09 2.10064L1290.09 8.27838L1296.27 8.27838L1296.27 2.10065L1290.09 2.10064Z" fill="#15FEFB" stroke="#DD2F25" stroke-width="4.11881"/>
<path opacity="0.17" d="M1252.04 21.1285L1252.04 27.3062L1258.21 27.3062L1258.21 21.1285L1252.04 21.1285Z" fill="#FCA74E" stroke="#DD2F25" stroke-width="4.11881"/>
<path opacity="0.17" d="M1252.04 40.1993L1252.04 46.377L1258.21 46.377L1258.21 40.1993L1252.04 40.1993Z" fill="#15FEFB" stroke="#DD2F25" stroke-width="4.11881"/>
<path opacity="0.17" d="M1347.22 78.2984L1347.22 84.4761L1353.4 84.4761L1353.4 78.2984L1347.22 78.2984Z" fill="#FCA74E" stroke="#DD2F25" stroke-width="4.11881"/>
<path opacity="0.17" d="M1213.98 78.2984L1213.98 84.4761L1220.16 84.4761L1220.16 78.2984L1213.98 78.2984Z" fill="#FCA74E" stroke="#DD2F25" stroke-width="4.11881"/>
<path opacity="0.17" d="M1309.16 97.3262L1309.16 103.504L1315.34 103.504L1315.34 97.3262L1309.16 97.3262Z" fill="#F224B5" stroke="#DD2F25" stroke-width="4.11881"/>
<path opacity="0.17" d="M1213.98 97.3262L1213.98 103.504L1220.16 103.504L1220.16 97.3262L1213.98 97.3262Z" fill="#15FEFB" stroke="#DD2F25" stroke-width="4.11881"/>
<path opacity="0.17" d="M1290.09 135.468L1290.09 141.646L1296.27 141.646L1296.27 135.468L1290.09 135.468Z" fill="#FCA74E" stroke="#DD2F25" stroke-width="4.11881"/>
<path opacity="0.17" d="M1213.98 135.468L1213.98 141.646L1220.16 141.646L1220.16 135.468L1213.98 135.468Z" fill="#15FEFB" stroke="#DD2F25" stroke-width="4.11881"/>
<path opacity="0.17" d="M1290.13 154.496L1290.13 160.673L1296.31 160.673L1296.31 154.496L1290.13 154.496Z" fill="#15FEFB" stroke="#DD2F25" stroke-width="4.11881"/>
<path opacity="0.17" d="M1213.94 173.566L1213.94 179.744L1220.11 179.744L1220.11 173.566L1213.94 173.566Z" fill="#15FEFB" stroke="#DD2F25" stroke-width="4.11881"/>
<path opacity="0.17" d="M1252.04 192.635L1252.04 198.813L1258.21 198.813L1258.21 192.635L1252.04 192.635Z" fill="#F224B5" stroke="#DD2F25" stroke-width="4.11881"/>
<path opacity="0.17" d="M1328.19 249.805L1328.19 255.982L1334.37 255.982L1334.37 249.805L1328.19 249.805Z" fill="#F224B5" stroke="#DD2F25" stroke-width="4.11881"/>
<path opacity="0.17" d="M1309.12 287.904L1309.12 294.082L1315.3 294.082L1315.3 287.904L1309.12 287.904Z" fill="#15FEFB" stroke="#DD2F25" stroke-width="4.11881"/>
<path opacity="0.17" d="M1328.19 306.975L1328.19 313.152L1334.37 313.152L1334.37 306.975L1328.19 306.975Z" fill="#F224B5" stroke="#DD2F25" stroke-width="4.11881"/>
<path opacity="0.17" d="M1309.12 345.073L1309.12 351.251L1315.3 351.251L1315.3 345.073L1309.12 345.073Z" fill="#15FEFB" stroke="#DD2F25" stroke-width="4.11881"/>
<path opacity="0.17" d="M1233.01 345.073L1233.01 351.251L1239.18 351.251L1239.18 345.073L1233.01 345.073Z" fill="#FCA74E" stroke="#DD2F25" stroke-width="4.11881"/>
<path opacity="0.17" d="M1252.04 516.58L1252.04 522.758L1258.21 522.758L1258.21 516.58L1252.04 516.58Z" fill="#15FEFB" stroke="#DD2F25" stroke-width="4.11881"/>
<path opacity="0.17" d="M2.05972 2.05963L2.05972 8.23736L8.23745 8.23736L8.23745 2.05963L2.05972 2.05963Z" fill="#FCA74E" stroke="#DD2F25" stroke-width="4.11881"/>
<path opacity="0.17" d="M59.1866 21.1285L59.1866 27.3062L65.3643 27.3062L65.3643 21.1285L59.1866 21.1285Z" fill="#15FEFB" stroke="#DD2F25" stroke-width="4.11881"/>
<path opacity="0.17" d="M135.345 40.1993L135.345 46.377L141.523 46.377L141.523 40.1993L135.345 40.1993Z" fill="#15FEFB" stroke="#DD2F25" stroke-width="4.11881"/>
<path opacity="0.17" d="M2.10061 40.1588L2.10061 46.3365L8.27835 46.3365L8.27835 40.1588L2.10061 40.1588Z" fill="#F224B5" stroke="#DD2F25" stroke-width="4.11881"/>
<path opacity="0.17" d="M135.345 59.2681L135.345 65.4459L141.523 65.4459L141.523 59.2681L135.345 59.2681Z" fill="#F224B5" stroke="#DD2F25" stroke-width="4.11881"/>
<path opacity="0.17" d="M116.315 116.397L116.315 122.575L122.493 122.575L122.493 116.397L116.315 116.397Z" fill="#15FEFB" stroke="#DD2F25" stroke-width="4.11881"/>
<path opacity="0.17" d="M21.1305 154.536L21.1305 160.714L27.3082 160.714L27.3082 154.536L21.1305 154.536Z" fill="#15FEFB" stroke="#DD2F25" stroke-width="4.11881"/>
<path opacity="0.17" d="M40.1586 249.805L40.1586 255.982L46.3363 255.982L46.3363 249.805L40.1586 249.805Z" fill="#15FEFB" stroke="#DD2F25" stroke-width="4.11881"/>
<path opacity="0.17" d="M97.2853 345.074L97.2853 351.252L103.463 351.252L103.463 345.074L97.2853 345.074Z" fill="#15FEFB" stroke="#DD2F25" stroke-width="4.11881"/>
<path opacity="0.17" d="M40.1993 497.552L40.1993 503.73L46.3771 503.73L46.3771 497.552L40.1993 497.552Z" fill="#15FEFB" stroke="#DD2F25" stroke-width="4.11881"/>
<path opacity="0.27" d="M248.86 21.1285L248.86 27.3062L255.038 27.3062L255.038 21.1285L248.86 21.1285Z" fill="#15FEFB" stroke="#DD2F25" stroke-width="4.11881"/>
<path opacity="0.27" d="M248.86 40.1588L248.86 46.3365L255.038 46.3365L255.038 40.1588L248.86 40.1588Z" fill="#FCA74E" stroke="#DD2F25" stroke-width="4.11881"/>
<path opacity="0.27" d="M229.83 40.1588L229.83 46.3365L236.007 46.3365L236.007 40.1588L229.83 40.1588Z" fill="#F224B5" stroke="#DD2F25" stroke-width="4.11881"/>
<path opacity="0.17" d="M153.673 40.1588L153.673 46.3365L159.851 46.3365L159.851 40.1588L153.673 40.1588Z" fill="#15FEFB" stroke="#DD2F25" stroke-width="4.11881"/>
<path opacity="0.17" d="M172.701 78.2984L172.701 84.4761L178.879 84.4761L178.879 78.2984L172.701 78.2984Z" fill="#F224B5" stroke="#DD2F25" stroke-width="4.11881"/>
<path opacity="0.27" d="M210.8 97.3687L210.8 103.546L216.978 103.546L216.978 97.3687L210.8 97.3687Z" fill="#15FEFB" stroke="#DD2F25" stroke-width="4.11881"/>
<path opacity="0.27" d="M286.916 116.438L286.916 122.616L293.093 122.616L293.093 116.438L286.916 116.438Z" fill="#FCA74E" stroke="#DD2F25" stroke-width="4.11881"/>
<path opacity="0.27" d="M267.888 116.397L267.888 122.575L274.065 122.575L274.065 116.397L267.888 116.397Z" fill="#15FEFB" stroke="#DD2F25" stroke-width="4.11881"/>
<path opacity="0.27" d="M248.817 116.397L248.817 122.575L254.995 122.575L254.995 116.397L248.817 116.397Z" fill="#F224B5" stroke="#DD2F25" stroke-width="4.11881"/>
<path opacity="0.27" d="M210.759 116.438L210.759 122.616L216.937 122.616L216.937 116.438L210.759 116.438Z" fill="#15FEFB" stroke="#DD2F25" stroke-width="4.11881"/>
<path opacity="0.27" d="M286.916 135.468L286.916 141.646L293.093 141.646L293.093 135.468L286.916 135.468Z" fill="#15FEFB" stroke="#DD2F25" stroke-width="4.11881"/>
<path opacity="0.27" d="M248.86 154.496L248.86 160.673L255.038 160.673L255.038 154.496L248.86 154.496Z" fill="#F224B5" stroke="#DD2F25" stroke-width="4.11881"/>
<path opacity="0.17" d="M191.731 154.536L191.731 160.714L197.909 160.714L197.909 154.536L191.731 154.536Z" fill="#FCA74E" stroke="#DD2F25" stroke-width="4.11881"/>
<path opacity="0.17" d="M172.701 173.566L172.701 179.744L178.879 179.744L178.879 173.566L172.701 173.566Z" fill="#F224B5" stroke="#DD2F25" stroke-width="4.11881"/>
<path opacity="0.17" d="M172.701 211.665L172.701 217.843L178.879 217.843L178.879 211.665L172.701 211.665Z" fill="#15FEFB" stroke="#DD2F25" stroke-width="4.11881"/>
<path opacity="0.17" d="M191.731 249.805L191.731 255.982L197.909 255.982L197.909 249.805L191.731 249.805Z" fill="#F224B5" stroke="#DD2F25" stroke-width="4.11881"/>
<path opacity="0.17" d="M172.701 249.805L172.701 255.982L178.879 255.982L178.879 249.805L172.701 249.805Z" fill="#15FEFB" stroke="#DD2F25" stroke-width="4.11881"/>
<path opacity="0.17" d="M172.701 306.975L172.701 313.152L178.879 313.152L178.879 306.975L172.701 306.975Z" fill="#15FEFB" stroke="#DD2F25" stroke-width="4.11881"/>
<path opacity="0.27" d="M267.888 326.045L267.888 332.223L274.065 332.223L274.065 326.045L267.888 326.045Z" fill="#15FEFB" stroke="#DD2F25" stroke-width="4.11881"/>
<path opacity="0.27" d="M286.916 345.073L286.916 351.251L293.093 351.251L293.093 345.073L286.916 345.073Z" fill="#F224B5" stroke="#DD2F25" stroke-width="4.11881"/>
<path opacity="0.27" d="M210.759 345.114L210.759 351.292L216.937 351.292L216.937 345.114L210.759 345.114Z" fill="#F224B5" stroke="#DD2F25" stroke-width="4.11881"/>
<path opacity="0.17" d="M191.772 383.213L191.772 389.391L197.949 389.391L197.949 383.213L191.772 383.213Z" fill="#15FEFB" stroke="#DD2F25" stroke-width="4.11881"/>
<path opacity="0.27" d="M210.759 421.312L210.759 427.489L216.937 427.489L216.937 421.312L210.759 421.312Z" fill="#F224B5" stroke="#DD2F25" stroke-width="4.11881"/>
<path opacity="0.27" d="M210.759 459.411L210.759 465.588L216.937 465.588L216.937 459.411L210.759 459.411Z" fill="#FCA74E" stroke="#DD2F25" stroke-width="4.11881"/>
<path opacity="0.17" d="M172.701 554.679L172.701 560.857L178.879 560.857L178.879 554.679L172.701 554.679Z" fill="#15FEFB" stroke="#DD2F25" stroke-width="4.11881"/>
<path opacity="0.3" d="M400.389 2.10064L400.389 8.27838L406.567 8.27838L406.567 2.10065L400.389 2.10064Z" fill="#15FEFB" stroke="#DD2F25" stroke-width="4.11881"/>
<path opacity="0.3" d="M381.361 2.10064L381.361 8.27838L387.539 8.27838L387.539 2.10065L381.361 2.10064Z" fill="#15FEFB" stroke="#DD2F25" stroke-width="4.11881"/>
<path opacity="0.27" d="M305.203 2.05963L305.203 8.23736L311.38 8.23736L311.38 2.05963L305.203 2.05963Z" fill="#15FEFB" stroke="#DD2F25" stroke-width="4.11881"/>
<path opacity="0.5" d="M324.275 21.1285L324.275 27.3062L330.453 27.3062L330.453 21.1285L324.275 21.1285Z" fill="#15FEFB" stroke="#DD2F25" stroke-width="4.11881"/>
<path opacity="0.27" d="M305.203 21.1285L305.203 27.3062L311.38 27.3062L311.38 21.1285L305.203 21.1285Z" fill="#15FEFB" stroke="#DD2F25" stroke-width="4.11881"/>
<path opacity="0.3" d="M438.488 40.1993L438.488 46.377L444.666 46.377L444.666 40.1993L438.488 40.1993Z" fill="#FCA74E" stroke="#DD2F25" stroke-width="4.11881"/>
<path opacity="0.3" d="M400.43 40.1588L400.43 46.3365L406.608 46.3365L406.608 40.1588L400.43 40.1588Z" fill="#15FEFB" stroke="#DD2F25" stroke-width="4.11881"/>
<path opacity="0.42" d="M343.301 40.1993L343.301 46.377L349.479 46.377L349.479 40.1993L343.301 40.1993Z" fill="#15FEFB" stroke="#DD2F25" stroke-width="4.11881"/>
<path opacity="0.3" d="M438.488 59.2276L438.488 65.4053L444.666 65.4053L444.666 59.2276L438.488 59.2276Z" fill="#15FEFB" stroke="#DD2F25" stroke-width="4.11881"/>
<path opacity="0.3" d="M438.488 78.2984L438.488 84.4761L444.666 84.4761L444.666 78.2984L438.488 78.2984Z" fill="#FCA74E" stroke="#DD2F25" stroke-width="4.11881"/>
<path opacity="0.3" d="M438.488 97.3687L438.488 103.546L444.666 103.546L444.666 97.3687L438.488 97.3687Z" fill="#15FEFB" stroke="#DD2F25" stroke-width="4.11881"/>
<path opacity="0.3" d="M419.46 97.3687L419.46 103.546L425.638 103.546L425.638 97.3687L419.46 97.3687Z" fill="#15FEFB" stroke="#DD2F25" stroke-width="4.11881"/>
<path opacity="0.42" d="M362.331 97.3687L362.331 103.546L368.509 103.546L368.509 97.3687L362.331 97.3687Z" fill="#15FEFB" stroke="#DD2F25" stroke-width="4.11881"/>
<path opacity="0.42" d="M343.301 97.3687L343.301 103.546L349.479 103.546L349.479 97.3687L343.301 97.3687Z" fill="#15FEFB" stroke="#DD2F25" stroke-width="4.11881"/>
<path opacity="0.3" d="M419.419 116.397L419.419 122.575L425.597 122.575L425.597 116.397L419.419 116.397Z" fill="#15FEFB" stroke="#DD2F25" stroke-width="4.11881"/>
<path opacity="0.3" d="M381.361 116.438L381.361 122.616L387.539 122.616L387.539 116.438L381.361 116.438Z" fill="#FCA74E" stroke="#DD2F25" stroke-width="4.11881"/>
<path opacity="0.42" d="M343.301 116.397L343.301 122.575L349.479 122.575L349.479 116.397L343.301 116.397Z" fill="#F224B5" stroke="#DD2F25" stroke-width="4.11881"/>
<path opacity="0.3" d="M381.361 135.468L381.361 141.646L387.539 141.646L387.539 135.468L381.361 135.468Z" fill="#FCA74E" stroke="#DD2F25" stroke-width="4.11881"/>
<path opacity="0.3" d="M419.46 154.536L419.46 160.714L425.638 160.714L425.638 154.536L419.46 154.536Z" fill="#F224B5" stroke="#DD2F25" stroke-width="4.11881"/>
<path opacity="0.3" d="M400.43 154.496L400.43 160.673L406.608 160.673L406.608 154.496L400.43 154.496Z" fill="#F224B5" stroke="#DD2F25" stroke-width="4.11881"/>
<path opacity="0.3" d="M438.488 173.566L438.488 179.744L444.666 179.744L444.666 173.566L438.488 173.566Z" fill="#15FEFB" stroke="#DD2F25" stroke-width="4.11881"/>
<path d="M324.233 173.566L324.233 179.744L330.41 179.744L330.41 173.566L324.233 173.566Z" fill="#FCA74E" stroke="#DD2F25" stroke-width="4.11881"/>
<path opacity="0.27" d="M305.203 173.566L305.203 179.744L311.38 179.744L311.38 173.566L305.203 173.566Z" fill="#15FEFB" stroke="#DD2F25" stroke-width="4.11881"/>
<path opacity="0.3" d="M438.488 230.736L438.488 236.914L444.666 236.914L444.666 230.736L438.488 230.736Z" fill="#15FEFB" stroke="#DD2F25" stroke-width="4.11881"/>
<path opacity="0.3" d="M400.389 230.736L400.389 236.914L406.567 236.914L406.567 230.736L400.389 230.736Z" fill="#15FEFB" stroke="#DD2F25" stroke-width="4.11881"/>
<path opacity="0.3" d="M400.43 268.835L400.43 275.013L406.608 275.013L406.608 268.835L400.43 268.835Z" fill="#F224B5" stroke="#DD2F25" stroke-width="4.11881"/>
<path opacity="0.3" d="M400.389 287.904L400.389 294.082L406.567 294.082L406.567 287.904L400.389 287.904Z" fill="#15FEFB" stroke="#DD2F25" stroke-width="4.11881"/>
<path opacity="0.27" d="M305.245 306.934L305.245 313.111L311.423 313.111L311.423 306.934L305.245 306.934Z" fill="#15FEFB" stroke="#DD2F25" stroke-width="4.11881"/>
<path opacity="0.3" d="M438.488 326.045L438.488 332.223L444.666 332.223L444.666 326.045L438.488 326.045Z" fill="#F224B5" stroke="#DD2F25" stroke-width="4.11881"/>
<path opacity="0.42" d="M362.374 326.045L362.374 332.223L368.552 332.223L368.552 326.045L362.374 326.045Z" fill="#15FEFB" stroke="#DD2F25" stroke-width="4.11881"/>
<path opacity="0.42" d="M362.331 364.144L362.331 370.322L368.509 370.322L368.509 364.144L362.331 364.144Z" fill="#15FEFB" stroke="#DD2F25" stroke-width="4.11881"/>
<path opacity="0.5" d="M324.275 364.144L324.275 370.322L330.453 370.322L330.453 364.144L324.275 364.144Z" fill="#F224B5" stroke="#DD2F25" stroke-width="4.11881"/>
<path opacity="0.3" d="M419.46 402.243L419.46 408.42L425.638 408.42L425.638 402.243L419.46 402.243Z" fill="#15FEFB" stroke="#DD2F25" stroke-width="4.11881"/>
<path opacity="0.3" d="M381.4 421.312L381.4 427.489L387.578 427.489L387.578 421.312L381.4 421.312Z" fill="#15FEFB" stroke="#DD2F25" stroke-width="4.11881"/>
<path opacity="0.42" d="M343.301 459.411L343.301 465.588L349.479 465.588L349.479 459.411L343.301 459.411Z" fill="#F224B5" stroke="#DD2F25" stroke-width="4.11881"/>
<path opacity="0.3" d="M438.529 497.552L438.529 503.73L444.707 503.73L444.707 497.552L438.529 497.552Z" fill="#15FEFB" stroke="#DD2F25" stroke-width="4.11881"/>
<path opacity="0.3" d="M381.4 497.552L381.4 503.73L387.578 503.73L387.578 497.552L381.4 497.552Z" fill="#15FEFB" stroke="#DD2F25" stroke-width="4.11881"/>
<path opacity="0.3" d="M419.46 516.58L419.46 522.758L425.638 522.758L425.638 516.58L419.46 516.58Z" fill="#15FEFB" stroke="#DD2F25" stroke-width="4.11881"/>
<path opacity="0.3" d="M419.46 535.651L419.46 541.829L425.638 541.829L425.638 535.651L419.46 535.651Z" fill="#F224B5" stroke="#DD2F25" stroke-width="4.11881"/>
<path opacity="0.42" d="M343.344 554.679L343.344 560.857L349.522 560.857L349.522 554.679L343.344 554.679Z" fill="#F224B5" stroke="#DD2F25" stroke-width="4.11881"/>
</g>
</svg>
