<svg width="592" height="426" viewBox="0 0 592 426" fill="none" xmlns="http://www.w3.org/2000/svg">
<g opacity="0.2" clip-path="url(#clip0_53_146)">
<mask id="mask0_53_146" style="mask-type:alpha" maskUnits="userSpaceOnUse" x="-64" y="-71" width="656" height="497">
<rect x="-64" y="-71" width="656" height="496.642" fill="url(#paint0_radial_53_146)"/>
</mask>
<g mask="url(#mask0_53_146)">
<path d="M18.7736 24.9245V-36.9623H80.6604V24.9245H18.7736Z" stroke="#1F212A" stroke-width="0.773585"/>
<path d="M79.8868 24.9245V-36.9623H141.774V24.9245H79.8868Z" stroke="#1F212A" stroke-width="0.773585"/>
<path d="M141 24.9245V-36.9623H202.887V24.9245H141Z" stroke="#1F212A" stroke-width="0.773585"/>
<path d="M202.113 24.9245V-36.9623H264V24.9245H202.113Z" stroke="#1F212A" stroke-width="0.773585"/>
<path d="M263.226 24.9245V-36.9623H325.113V24.9245H263.226Z" stroke="#1F212A" stroke-width="0.773585"/>
<path d="M324.34 24.9245V-36.9623H386.226V24.9245H324.34Z" stroke="#1F212A" stroke-width="0.773585"/>
<path d="M385.453 24.9245V-36.9623H447.34V24.9245H385.453Z" stroke="#1F212A" stroke-width="0.773585"/>
<path d="M446.566 24.9245V-36.9623H508.453V24.9245H446.566Z" stroke="#1F212A" stroke-width="0.773585"/>
<path d="M18.7736 86.0377V24.1509H80.6604V86.0377H18.7736Z" stroke="#1F212A" stroke-width="0.773585"/>
<path d="M79.8868 86.0377V24.1509H141.774V86.0377H79.8868Z" stroke="#1F212A" stroke-width="0.773585"/>
<path d="M141 86.0377V24.1509H202.887V86.0377H141Z" stroke="#1F212A" stroke-width="0.773585"/>
<path d="M202.113 86.0377V24.1509H264V86.0377H202.113Z" stroke="#1F212A" stroke-width="0.773585"/>
<path d="M263.226 86.0377V24.1509H325.113V86.0377H263.226Z" stroke="#1F212A" stroke-width="0.773585"/>
<path d="M324.34 86.0377V24.1509H386.226V86.0377H324.34Z" stroke="#1F212A" stroke-width="0.773585"/>
<path d="M385.453 86.0377V24.1509H447.34V86.0377H385.453Z" stroke="#1F212A" stroke-width="0.773585"/>
<path d="M446.566 86.0377V24.1509H508.453V86.0377H446.566Z" stroke="#1F212A" stroke-width="0.773585"/>
<path d="M18.7736 147.151V85.2642H80.6604V147.151H18.7736Z" stroke="#1F212A" stroke-width="0.773585"/>
<path d="M79.8868 147.151V85.2642H141.774V147.151H79.8868Z" stroke="#1F212A" stroke-width="0.773585"/>
<path d="M141 147.151V85.2642H202.887V147.151H141Z" stroke="#1F212A" stroke-width="0.773585"/>
<path d="M202.113 147.151V85.2642H264V147.151H202.113Z" stroke="#1F212A" stroke-width="0.773585"/>
<path d="M263.226 147.151V85.2642H325.113V147.151H263.226Z" stroke="#1F212A" stroke-width="0.773585"/>
<path d="M324.34 147.151V85.2642H386.226V147.151H324.34Z" stroke="#1F212A" stroke-width="0.773585"/>
<path d="M385.453 147.151V85.2642H447.34V147.151H385.453Z" stroke="#1F212A" stroke-width="0.773585"/>
<path d="M446.566 147.151V85.2642H508.453V147.151H446.566Z" stroke="#1F212A" stroke-width="0.773585"/>
<path d="M18.7736 208.264V146.377H80.6604V208.264H18.7736Z" stroke="#1F212A" stroke-width="0.773585"/>
<path d="M79.8868 208.264V146.377H141.774V208.264H79.8868Z" stroke="#1F212A" stroke-width="0.773585"/>
<path d="M141 208.264V146.377H202.887V208.264H141Z" stroke="#1F212A" stroke-width="0.773585"/>
<path d="M202.113 208.264V146.377H264V208.264H202.113Z" stroke="#1F212A" stroke-width="0.773585"/>
<path d="M263.226 208.264V146.377H325.113V208.264H263.226Z" stroke="#1F212A" stroke-width="0.773585"/>
<path d="M324.34 208.264V146.377H386.226V208.264H324.34Z" stroke="#1F212A" stroke-width="0.773585"/>
<path d="M385.453 208.264V146.377H447.34V208.264H385.453Z" stroke="#1F212A" stroke-width="0.773585"/>
<path d="M446.566 208.264V146.377H508.453V208.264H446.566Z" stroke="#1F212A" stroke-width="0.773585"/>
<path d="M18.7736 269.377V207.491H80.6604V269.377H18.7736Z" stroke="#1F212A" stroke-width="0.773585"/>
<path d="M79.8868 269.377V207.491H141.774V269.377H79.8868Z" stroke="#1F212A" stroke-width="0.773585"/>
<path d="M141 269.377V207.491H202.887V269.377H141Z" stroke="#1F212A" stroke-width="0.773585"/>
<path d="M202.113 269.377V207.491H264V269.377H202.113Z" stroke="#1F212A" stroke-width="0.773585"/>
<path d="M263.226 269.377V207.491H325.113V269.377H263.226Z" stroke="#1F212A" stroke-width="0.773585"/>
<path d="M324.34 269.377V207.491H386.226V269.377H324.34Z" stroke="#1F212A" stroke-width="0.773585"/>
<path d="M385.453 269.377V207.491H447.34V269.377H385.453Z" stroke="#1F212A" stroke-width="0.773585"/>
<path d="M446.566 269.377V207.491H508.453V269.377H446.566Z" stroke="#1F212A" stroke-width="0.773585"/>
<path d="M18.7736 330.491V268.604H80.6604V330.491H18.7736Z" stroke="#1F212A" stroke-width="0.773585"/>
<path d="M79.8868 330.491V268.604H141.774V330.491H79.8868Z" stroke="#1F212A" stroke-width="0.773585"/>
<path d="M141 330.491V268.604H202.887V330.491H141Z" stroke="#1F212A" stroke-width="0.773585"/>
<path d="M202.113 330.491V268.604H264V330.491H202.113Z" stroke="#1F212A" stroke-width="0.773585"/>
<path d="M263.226 330.491V268.604H325.113V330.491H263.226Z" stroke="#1F212A" stroke-width="0.773585"/>
<path d="M324.34 330.491V268.604H386.226V330.491H324.34Z" stroke="#1F212A" stroke-width="0.773585"/>
<path d="M385.453 330.491V268.604H447.34V330.491H385.453Z" stroke="#1F212A" stroke-width="0.773585"/>
<path d="M446.566 330.491V268.604H508.453V330.491H446.566Z" stroke="#1F212A" stroke-width="0.773585"/>
<path d="M18.7736 391.604V329.717H80.6604V391.604H18.7736Z" stroke="#1F212A" stroke-width="0.773585"/>
<path d="M79.8868 391.604V329.717H141.774V391.604H79.8868Z" stroke="#1F212A" stroke-width="0.773585"/>
<path d="M141 391.604V329.717H202.887V391.604H141Z" stroke="#1F212A" stroke-width="0.773585"/>
<path d="M202.113 391.604V329.717H264V391.604H202.113Z" stroke="#1F212A" stroke-width="0.773585"/>
<path d="M263.226 391.604V329.717H325.113V391.604H263.226Z" stroke="#1F212A" stroke-width="0.773585"/>
<path d="M324.34 391.604V329.717H386.226V391.604H324.34Z" stroke="#1F212A" stroke-width="0.773585"/>
<path d="M385.453 391.604V329.717H447.34V391.604H385.453Z" stroke="#1F212A" stroke-width="0.773585"/>
<path d="M446.566 391.604V329.717H508.453V391.604H446.566Z" stroke="#1F212A" stroke-width="0.773585"/>
</g>
</g>
<defs>
<radialGradient id="paint0_radial_53_146" cx="0" cy="0" r="1" gradientUnits="userSpaceOnUse" gradientTransform="translate(-763.5 -1040) rotate(52.6446) scale(1793.96 3263.13)">
<stop stop-color="#D9D9D9"/>
<stop offset="1" stop-color="white" stop-opacity="0"/>
</radialGradient>
<clipPath id="clip0_53_146">
<rect width="656" height="496.642" fill="white" transform="translate(-64 -71)"/>
</clipPath>
</defs>
</svg>
