<svg width="412" height="497" viewBox="0 0 412 497" fill="none" xmlns="http://www.w3.org/2000/svg">
<g opacity="0.25" clip-path="url(#clip0_154_1429)">
<mask id="mask0_154_1429" style="mask-type:alpha" maskUnits="userSpaceOnUse" x="-244" y="0" width="656" height="497">
<rect width="656" height="496.642" transform="matrix(-1 0 0 1 412 0)" fill="url(#paint0_radial_154_1429)"/>
</mask>
<g mask="url(#mask0_154_1429)">
<path d="M329.226 95.9246V34.0378H267.34V95.9246H329.226Z" stroke="#1F212A" stroke-width="0.773585"/>
<path d="M268.113 95.9246V34.0378H206.226V95.9246H268.113Z" stroke="#1F212A" stroke-width="0.773585"/>
<path d="M207 95.9246V34.0378H145.113V95.9246H207Z" stroke="#1F212A" stroke-width="0.773585"/>
<path d="M145.887 95.9246V34.0378H84V95.9246H145.887Z" stroke="#1F212A" stroke-width="0.773585"/>
<path d="M84.7736 95.9246V34.0378H22.8868V95.9246H84.7736Z" stroke="#1F212A" stroke-width="0.773585"/>
<path d="M23.6604 95.9246V34.0378H-38.2264V95.9246H23.6604Z" stroke="#1F212A" stroke-width="0.773585"/>
<path d="M329.226 157.038V95.1511H267.34V157.038H329.226Z" stroke="#1F212A" stroke-width="0.773585"/>
<path d="M268.113 157.038V95.1511H206.226V157.038H268.113Z" stroke="#1F212A" stroke-width="0.773585"/>
<path d="M207 157.038V95.1511H145.113V157.038H207Z" stroke="#1F212A" stroke-width="0.773585"/>
<path d="M145.887 157.038V95.1511H84V157.038H145.887Z" stroke="#1F212A" stroke-width="0.773585"/>
<path d="M84.7736 157.038V95.1511H22.8868V157.038H84.7736Z" stroke="#1F212A" stroke-width="0.773585"/>
<path d="M23.6604 157.038V95.1511H-38.2264V157.038H23.6604Z" stroke="#1F212A" stroke-width="0.773585"/>
<path d="M329.226 218.151V156.264H267.34V218.151H329.226Z" stroke="#1F212A" stroke-width="0.773585"/>
<path d="M268.113 218.151V156.264H206.226V218.151H268.113Z" stroke="#1F212A" stroke-width="0.773585"/>
<path d="M207 218.151V156.264H145.113V218.151H207Z" stroke="#1F212A" stroke-width="0.773585"/>
<path d="M145.887 218.151V156.264H84V218.151H145.887Z" stroke="#1F212A" stroke-width="0.773585"/>
<path d="M84.7736 218.151V156.264H22.8868V218.151H84.7736Z" stroke="#1F212A" stroke-width="0.773585"/>
<path d="M23.6604 218.151V156.264H-38.2264V218.151H23.6604Z" stroke="#1F212A" stroke-width="0.773585"/>
<path d="M329.226 279.264V217.377H267.34V279.264H329.226Z" stroke="#1F212A" stroke-width="0.773585"/>
<path d="M268.113 279.264V217.377H206.226V279.264H268.113Z" stroke="#1F212A" stroke-width="0.773585"/>
<path d="M207 279.264V217.377H145.113V279.264H207Z" stroke="#1F212A" stroke-width="0.773585"/>
<path d="M145.887 279.264V217.377H84V279.264H145.887Z" stroke="#1F212A" stroke-width="0.773585"/>
<path d="M84.7736 279.264V217.377H22.8868V279.264H84.7736Z" stroke="#1F212A" stroke-width="0.773585"/>
<path d="M23.6604 279.264V217.377H-38.2264V279.264H23.6604Z" stroke="#1F212A" stroke-width="0.773585"/>
<path d="M329.226 340.378V278.491H267.34V340.378H329.226Z" stroke="#1F212A" stroke-width="0.773585"/>
<path d="M268.113 340.378V278.491H206.226V340.378H268.113Z" stroke="#1F212A" stroke-width="0.773585"/>
<path d="M207 340.378V278.491H145.113V340.378H207Z" stroke="#1F212A" stroke-width="0.773585"/>
<path d="M145.887 340.378V278.491H84V340.378H145.887Z" stroke="#1F212A" stroke-width="0.773585"/>
<path d="M84.7736 340.378V278.491H22.8868V340.378H84.7736Z" stroke="#1F212A" stroke-width="0.773585"/>
<path d="M23.6604 340.378V278.491H-38.2264V340.378H23.6604Z" stroke="#1F212A" stroke-width="0.773585"/>
<path d="M329.226 401.491V339.604H267.34V401.491H329.226Z" stroke="#1F212A" stroke-width="0.773585"/>
<path d="M268.113 401.491V339.604H206.226V401.491H268.113Z" stroke="#1F212A" stroke-width="0.773585"/>
<path d="M207 401.491V339.604H145.113V401.491H207Z" stroke="#1F212A" stroke-width="0.773585"/>
<path d="M145.887 401.491V339.604H84V401.491H145.887Z" stroke="#1F212A" stroke-width="0.773585"/>
<path d="M84.7736 401.491V339.604H22.8868V401.491H84.7736Z" stroke="#1F212A" stroke-width="0.773585"/>
<path d="M23.6604 401.491V339.604H-38.2264V401.491H23.6604Z" stroke="#1F212A" stroke-width="0.773585"/>
<path d="M329.226 462.604V400.717H267.34V462.604H329.226Z" stroke="#1F212A" stroke-width="0.773585"/>
<path d="M268.113 462.604V400.717H206.226V462.604H268.113Z" stroke="#1F212A" stroke-width="0.773585"/>
<path d="M207 462.604V400.717H145.113V462.604H207Z" stroke="#1F212A" stroke-width="0.773585"/>
<path d="M145.887 462.604V400.717H84V462.604H145.887Z" stroke="#1F212A" stroke-width="0.773585"/>
<path d="M84.7736 462.604V400.717H22.8868V462.604H84.7736Z" stroke="#1F212A" stroke-width="0.773585"/>
<path d="M23.6604 462.604V400.717H-38.2264V462.604H23.6604Z" stroke="#1F212A" stroke-width="0.773585"/>
</g>
</g>
<defs>
<radialGradient id="paint0_radial_154_1429" cx="0" cy="0" r="1" gradientUnits="userSpaceOnUse" gradientTransform="translate(1933 -282) rotate(164.362) scale(2038.46 3707.86)">
<stop stop-color="#D9D9D9"/>
<stop offset="1" stop-color="white" stop-opacity="0"/>
</radialGradient>
<clipPath id="clip0_154_1429">
<rect width="656" height="496.642" fill="white" transform="matrix(-1 0 0 1 412 0)"/>
</clipPath>
</defs>
</svg>
