<svg width="566" height="497" viewBox="0 0 566 497" fill="none" xmlns="http://www.w3.org/2000/svg">
<g opacity="0.3" clip-path="url(#clip0_129_513)">
<mask id="mask0_129_513" style="mask-type:alpha" maskUnits="userSpaceOnUse" x="-90" y="0" width="656" height="497">
<rect width="656" height="496.642" transform="matrix(1 0 0 -1 -90 496.642)" fill="url(#paint0_radial_129_513)"/>
</mask>
<g mask="url(#mask0_129_513)">
<path d="M-7.22642 400.717V462.604H54.6604V400.717H-7.22642Z" stroke="#1F212A" stroke-width="0.773585"/>
<path d="M53.8868 400.717V462.604H115.774V400.717H53.8868Z" stroke="#1F212A" stroke-width="0.773585"/>
<path d="M115 400.717V462.604H176.887V400.717H115Z" stroke="#1F212A" stroke-width="0.773585"/>
<path d="M176.113 400.717V462.604H238V400.717H176.113Z" stroke="#1F212A" stroke-width="0.773585"/>
<path d="M237.226 400.717V462.604H299.113V400.717H237.226Z" stroke="#1F212A" stroke-width="0.773585"/>
<path d="M298.34 400.717V462.604H360.226V400.717H298.34Z" stroke="#1F212A" stroke-width="0.773585"/>
<path d="M359.453 400.717V462.604H421.34V400.717H359.453Z" stroke="#1F212A" stroke-width="0.773585"/>
<path d="M420.566 400.717V462.604H482.453V400.717H420.566Z" stroke="#1F212A" stroke-width="0.773585"/>
<path d="M-7.22642 339.604V401.491H54.6604V339.604H-7.22642Z" stroke="#1F212A" stroke-width="0.773585"/>
<path d="M53.8868 339.604V401.491H115.774V339.604H53.8868Z" stroke="#1F212A" stroke-width="0.773585"/>
<path d="M115 339.604V401.491H176.887V339.604H115Z" stroke="#1F212A" stroke-width="0.773585"/>
<path d="M176.113 339.604V401.491H238V339.604H176.113Z" stroke="#1F212A" stroke-width="0.773585"/>
<path d="M237.226 339.604V401.491H299.113V339.604H237.226Z" stroke="#1F212A" stroke-width="0.773585"/>
<path d="M298.34 339.604V401.491H360.226V339.604H298.34Z" stroke="#1F212A" stroke-width="0.773585"/>
<path d="M359.453 339.604V401.491H421.34V339.604H359.453Z" stroke="#1F212A" stroke-width="0.773585"/>
<path d="M420.566 339.604V401.491H482.453V339.604H420.566Z" stroke="#1F212A" stroke-width="0.773585"/>
<path d="M-7.22642 278.491V340.377H54.6604V278.491H-7.22642Z" stroke="#1F212A" stroke-width="0.773585"/>
<path d="M53.8868 278.491V340.377H115.774V278.491H53.8868Z" stroke="#1F212A" stroke-width="0.773585"/>
<path d="M115 278.491V340.377H176.887V278.491H115Z" stroke="#1F212A" stroke-width="0.773585"/>
<path d="M176.113 278.491V340.377H238V278.491H176.113Z" stroke="#1F212A" stroke-width="0.773585"/>
<path d="M237.226 278.491V340.377H299.113V278.491H237.226Z" stroke="#1F212A" stroke-width="0.773585"/>
<path d="M298.34 278.491V340.377H360.226V278.491H298.34Z" stroke="#1F212A" stroke-width="0.773585"/>
<path d="M359.453 278.491V340.377H421.34V278.491H359.453Z" stroke="#1F212A" stroke-width="0.773585"/>
<path d="M420.566 278.491V340.377H482.453V278.491H420.566Z" stroke="#1F212A" stroke-width="0.773585"/>
<path d="M-7.22642 217.377V279.264H54.6604V217.377H-7.22642Z" stroke="#1F212A" stroke-width="0.773585"/>
<path d="M53.8868 217.377V279.264H115.774V217.377H53.8868Z" stroke="#1F212A" stroke-width="0.773585"/>
<path d="M115 217.377V279.264H176.887V217.377H115Z" stroke="#1F212A" stroke-width="0.773585"/>
<path d="M176.113 217.377V279.264H238V217.377H176.113Z" stroke="#1F212A" stroke-width="0.773585"/>
<path d="M237.226 217.377V279.264H299.113V217.377H237.226Z" stroke="#1F212A" stroke-width="0.773585"/>
<path d="M298.34 217.377V279.264H360.226V217.377H298.34Z" stroke="#1F212A" stroke-width="0.773585"/>
<path d="M359.453 217.377V279.264H421.34V217.377H359.453Z" stroke="#1F212A" stroke-width="0.773585"/>
<path d="M420.566 217.377V279.264H482.453V217.377H420.566Z" stroke="#1F212A" stroke-width="0.773585"/>
<path d="M-7.22642 156.265V218.151H54.6604V156.265H-7.22642Z" stroke="#1F212A" stroke-width="0.773585"/>
<path d="M53.8868 156.265V218.151H115.774V156.265H53.8868Z" stroke="#1F212A" stroke-width="0.773585"/>
<path d="M115 156.265V218.151H176.887V156.265H115Z" stroke="#1F212A" stroke-width="0.773585"/>
<path d="M176.113 156.265V218.151H238V156.265H176.113Z" stroke="#1F212A" stroke-width="0.773585"/>
<path d="M237.226 156.265V218.151H299.113V156.265H237.226Z" stroke="#1F212A" stroke-width="0.773585"/>
<path d="M298.34 156.265V218.151H360.226V156.265H298.34Z" stroke="#1F212A" stroke-width="0.773585"/>
<path d="M359.453 156.265V218.151H421.34V156.265H359.453Z" stroke="#1F212A" stroke-width="0.773585"/>
<path d="M420.566 156.265V218.151H482.453V156.265H420.566Z" stroke="#1F212A" stroke-width="0.773585"/>
<path d="M-7.22642 95.1513V157.038H54.6604V95.1513H-7.22642Z" stroke="#1F212A" stroke-width="0.773585"/>
<path d="M53.8868 95.1513V157.038H115.774V95.1513H53.8868Z" stroke="#1F212A" stroke-width="0.773585"/>
<path d="M115 95.1513V157.038H176.887V95.1513H115Z" stroke="#1F212A" stroke-width="0.773585"/>
<path d="M176.113 95.1513V157.038H238V95.1513H176.113Z" stroke="#1F212A" stroke-width="0.773585"/>
<path d="M237.226 95.1513V157.038H299.113V95.1513H237.226Z" stroke="#1F212A" stroke-width="0.773585"/>
<path d="M298.34 95.1513V157.038H360.226V95.1513H298.34Z" stroke="#1F212A" stroke-width="0.773585"/>
<path d="M359.453 95.1513V157.038H421.34V95.1513H359.453Z" stroke="#1F212A" stroke-width="0.773585"/>
<path d="M420.566 95.1513V157.038H482.453V95.1513H420.566Z" stroke="#1F212A" stroke-width="0.773585"/>
<path d="M-7.22642 34.038V95.9248H54.6604V34.038H-7.22642Z" stroke="#1F212A" stroke-width="0.773585"/>
<path d="M53.8868 34.038V95.9248H115.774V34.038H53.8868Z" stroke="#1F212A" stroke-width="0.773585"/>
<path d="M115 34.038V95.9248H176.887V34.038H115Z" stroke="#1F212A" stroke-width="0.773585"/>
<path d="M176.113 34.038V95.9248H238V34.038H176.113Z" stroke="#1F212A" stroke-width="0.773585"/>
<path d="M237.226 34.038V95.9248H299.113V34.038H237.226Z" stroke="#1F212A" stroke-width="0.773585"/>
<path d="M298.34 34.038V95.9248H360.226V34.038H298.34Z" stroke="#1F212A" stroke-width="0.773585"/>
<path d="M359.453 34.038V95.9248H421.34V34.038H359.453Z" stroke="#1F212A" stroke-width="0.773585"/>
<path d="M420.566 34.038V95.9248H482.453V34.038H420.566Z" stroke="#1F212A" stroke-width="0.773585"/>
</g>
</g>
<defs>
<radialGradient id="paint0_radial_129_513" cx="0" cy="0" r="1" gradientUnits="userSpaceOnUse" gradientTransform="translate(-699.5 -969) rotate(52.6446) scale(1793.96 3263.13)">
<stop stop-color="#D9D9D9"/>
<stop offset="1" stop-color="white" stop-opacity="0"/>
</radialGradient>
<clipPath id="clip0_129_513">
<rect width="656" height="496.642" fill="white" transform="matrix(1 0 0 -1 -90 496.642)"/>
</clipPath>
</defs>
</svg>
