<svg width="523" height="497" viewBox="0 0 523 497" fill="none" xmlns="http://www.w3.org/2000/svg">
<g opacity="0.25" clip-path="url(#clip0_154_1496)">
<mask id="mask0_154_1496" style="mask-type:alpha" maskUnits="userSpaceOnUse" x="0" y="0" width="656" height="497">
<rect width="656" height="496.642" fill="url(#paint0_radial_154_1496)"/>
</mask>
<g mask="url(#mask0_154_1496)">
<path d="M82.7736 95.9244V34.0376H144.66V95.9244H82.7736Z" stroke="#1F212A" stroke-width="0.773585"/>
<path d="M143.887 95.9244V34.0376H205.774V95.9244H143.887Z" stroke="#1F212A" stroke-width="0.773585"/>
<path d="M205 95.9244V34.0376H266.887V95.9244H205Z" stroke="#1F212A" stroke-width="0.773585"/>
<path d="M266.113 95.9244V34.0376H328V95.9244H266.113Z" stroke="#1F212A" stroke-width="0.773585"/>
<path d="M327.226 95.9244V34.0376H389.113V95.9244H327.226Z" stroke="#1F212A" stroke-width="0.773585"/>
<path d="M388.34 95.9244V34.0376H450.226V95.9244H388.34Z" stroke="#1F212A" stroke-width="0.773585"/>
<path d="M449.453 95.9244V34.0376H511.34V95.9244H449.453Z" stroke="#1F212A" stroke-width="0.773585"/>
<path d="M510.566 95.9244V34.0376H572.453V95.9244H510.566Z" stroke="#1F212A" stroke-width="0.773585"/>
<path d="M82.7736 157.038V95.1509H144.66V157.038H82.7736Z" stroke="#1F212A" stroke-width="0.773585"/>
<path d="M143.887 157.038V95.1509H205.774V157.038H143.887Z" stroke="#1F212A" stroke-width="0.773585"/>
<path d="M205 157.038V95.1509H266.887V157.038H205Z" stroke="#1F212A" stroke-width="0.773585"/>
<path d="M266.113 157.038V95.1509H328V157.038H266.113Z" stroke="#1F212A" stroke-width="0.773585"/>
<path d="M327.226 157.038V95.1509H389.113V157.038H327.226Z" stroke="#1F212A" stroke-width="0.773585"/>
<path d="M388.34 157.038V95.1509H450.226V157.038H388.34Z" stroke="#1F212A" stroke-width="0.773585"/>
<path d="M449.453 157.038V95.1509H511.34V157.038H449.453Z" stroke="#1F212A" stroke-width="0.773585"/>
<path d="M510.566 157.038V95.1509H572.453V157.038H510.566Z" stroke="#1F212A" stroke-width="0.773585"/>
<path d="M82.7736 218.151V156.264H144.66V218.151H82.7736Z" stroke="#1F212A" stroke-width="0.773585"/>
<path d="M143.887 218.151V156.264H205.774V218.151H143.887Z" stroke="#1F212A" stroke-width="0.773585"/>
<path d="M205 218.151V156.264H266.887V218.151H205Z" stroke="#1F212A" stroke-width="0.773585"/>
<path d="M266.113 218.151V156.264H328V218.151H266.113Z" stroke="#1F212A" stroke-width="0.773585"/>
<path d="M327.226 218.151V156.264H389.113V218.151H327.226Z" stroke="#1F212A" stroke-width="0.773585"/>
<path d="M388.34 218.151V156.264H450.226V218.151H388.34Z" stroke="#1F212A" stroke-width="0.773585"/>
<path d="M449.453 218.151V156.264H511.34V218.151H449.453Z" stroke="#1F212A" stroke-width="0.773585"/>
<path d="M510.566 218.151V156.264H572.453V218.151H510.566Z" stroke="#1F212A" stroke-width="0.773585"/>
<path d="M82.7736 279.264V217.377H144.66V279.264H82.7736Z" stroke="#1F212A" stroke-width="0.773585"/>
<path d="M143.887 279.264V217.377H205.774V279.264H143.887Z" stroke="#1F212A" stroke-width="0.773585"/>
<path d="M205 279.264V217.377H266.887V279.264H205Z" stroke="#1F212A" stroke-width="0.773585"/>
<path d="M266.113 279.264V217.377H328V279.264H266.113Z" stroke="#1F212A" stroke-width="0.773585"/>
<path d="M327.226 279.264V217.377H389.113V279.264H327.226Z" stroke="#1F212A" stroke-width="0.773585"/>
<path d="M388.34 279.264V217.377H450.226V279.264H388.34Z" stroke="#1F212A" stroke-width="0.773585"/>
<path d="M449.453 279.264V217.377H511.34V279.264H449.453Z" stroke="#1F212A" stroke-width="0.773585"/>
<path d="M510.566 279.264V217.377H572.453V279.264H510.566Z" stroke="#1F212A" stroke-width="0.773585"/>
<path d="M82.7736 340.377V278.49H144.66V340.377H82.7736Z" stroke="#1F212A" stroke-width="0.773585"/>
<path d="M143.887 340.377V278.49H205.774V340.377H143.887Z" stroke="#1F212A" stroke-width="0.773585"/>
<path d="M205 340.377V278.49H266.887V340.377H205Z" stroke="#1F212A" stroke-width="0.773585"/>
<path d="M266.113 340.377V278.49H328V340.377H266.113Z" stroke="#1F212A" stroke-width="0.773585"/>
<path d="M327.226 340.377V278.49H389.113V340.377H327.226Z" stroke="#1F212A" stroke-width="0.773585"/>
<path d="M388.34 340.377V278.49H450.226V340.377H388.34Z" stroke="#1F212A" stroke-width="0.773585"/>
<path d="M449.453 340.377V278.49H511.34V340.377H449.453Z" stroke="#1F212A" stroke-width="0.773585"/>
<path d="M510.566 340.377V278.49H572.453V340.377H510.566Z" stroke="#1F212A" stroke-width="0.773585"/>
<path d="M82.7736 401.49V339.604H144.66V401.49H82.7736Z" stroke="#1F212A" stroke-width="0.773585"/>
<path d="M143.887 401.49V339.604H205.774V401.49H143.887Z" stroke="#1F212A" stroke-width="0.773585"/>
<path d="M205 401.49V339.604H266.887V401.49H205Z" stroke="#1F212A" stroke-width="0.773585"/>
<path d="M266.113 401.49V339.604H328V401.49H266.113Z" stroke="#1F212A" stroke-width="0.773585"/>
<path d="M327.226 401.49V339.604H389.113V401.49H327.226Z" stroke="#1F212A" stroke-width="0.773585"/>
<path d="M388.34 401.49V339.604H450.226V401.49H388.34Z" stroke="#1F212A" stroke-width="0.773585"/>
<path d="M449.453 401.49V339.604H511.34V401.49H449.453Z" stroke="#1F212A" stroke-width="0.773585"/>
<path d="M510.566 401.49V339.604H572.453V401.49H510.566Z" stroke="#1F212A" stroke-width="0.773585"/>
<path d="M82.7736 462.604V400.717H144.66V462.604H82.7736Z" stroke="#1F212A" stroke-width="0.773585"/>
<path d="M143.887 462.604V400.717H205.774V462.604H143.887Z" stroke="#1F212A" stroke-width="0.773585"/>
<path d="M205 462.604V400.717H266.887V462.604H205Z" stroke="#1F212A" stroke-width="0.773585"/>
<path d="M266.113 462.604V400.717H328V462.604H266.113Z" stroke="#1F212A" stroke-width="0.773585"/>
<path d="M327.226 462.604V400.717H389.113V462.604H327.226Z" stroke="#1F212A" stroke-width="0.773585"/>
<path d="M388.34 462.604V400.717H450.226V462.604H388.34Z" stroke="#1F212A" stroke-width="0.773585"/>
<path d="M449.453 462.604V400.717H511.34V462.604H449.453Z" stroke="#1F212A" stroke-width="0.773585"/>
<path d="M510.566 462.604V400.717H572.453V462.604H510.566Z" stroke="#1F212A" stroke-width="0.773585"/>
</g>
</g>
<defs>
<radialGradient id="paint0_radial_154_1496" cx="0" cy="0" r="1" gradientUnits="userSpaceOnUse" gradientTransform="translate(1933 -282) rotate(164.362) scale(2038.46 3707.86)">
<stop stop-color="#D9D9D9"/>
<stop offset="1" stop-color="white" stop-opacity="0"/>
</radialGradient>
<clipPath id="clip0_154_1496">
<rect width="656" height="496.642" fill="white"/>
</clipPath>
</defs>
</svg>
