<svg width="14" height="14" viewBox="0 0 14 14" fill="none" xmlns="http://www.w3.org/2000/svg">
<path d="M11.1563 3.5V9.1875C11.1563 9.36155 11.0871 9.52847 10.9641 9.65154C10.841 9.77461 10.6741 9.84375 10.5 9.84375C10.326 9.84375 10.1591 9.77461 10.036 9.65154C9.91293 9.52847 9.84379 9.36155 9.84379 9.1875V5.08594L3.96433 10.9643C3.84105 11.0876 3.67384 11.1568 3.49949 11.1568C3.32514 11.1568 3.15793 11.0876 3.03465 10.9643C2.91136 10.841 2.8421 10.6738 2.8421 10.4995C2.8421 10.3251 2.91136 10.1579 3.03465 10.0346L8.9141 4.15625H4.81254C4.63849 4.15625 4.47157 4.08711 4.3485 3.96404C4.22543 3.84097 4.15629 3.67405 4.15629 3.5C4.15629 3.32595 4.22543 3.15903 4.3485 3.03596C4.47157 2.91289 4.63849 2.84375 4.81254 2.84375H10.5C10.6741 2.84375 10.841 2.91289 10.9641 3.03596C11.0871 3.15903 11.1563 3.32595 11.1563 3.5Z" fill="black"/>
</svg>
