<svg width="48" height="48" viewBox="0 0 48 48" fill="none" xmlns="http://www.w3.org/2000/svg">
<path opacity="0.25" d="M40.5 24C40.5 27.2634 39.5323 30.4535 37.7193 33.1669C35.9062 35.8803 33.3293 37.9952 30.3143 39.244C27.2993 40.4929 23.9817 40.8196 20.781 40.183C17.5803 39.5463 14.6403 37.9748 12.3327 35.6673C10.0252 33.3597 8.45371 30.4197 7.81705 27.219C7.18039 24.0183 7.50715 20.7007 8.756 17.6857C10.0048 14.6707 12.1197 12.0938 14.8331 10.2808C17.5465 8.46771 20.7366 7.5 24 7.5C28.3761 7.5 32.5729 9.23839 35.6673 12.3327C38.7616 15.4271 40.5 19.6239 40.5 24Z" fill="#9BB9F5"/>
<path d="M25.5 15.0001V23.1507L32.2725 27.2138C32.6136 27.4187 32.8594 27.7507 32.9558 28.1368C33.0521 28.5229 32.9911 28.9314 32.7863 29.2726C32.5814 29.6137 32.2494 29.8595 31.8633 29.9558C31.4772 30.0522 31.0686 29.9912 30.7275 29.7863L23.2275 25.2863C23.0055 25.1529 22.8219 24.9644 22.6944 24.739C22.5669 24.5136 22.4999 24.259 22.5 24.0001V15.0001C22.5 14.6022 22.658 14.2207 22.9393 13.9394C23.2206 13.6581 23.6022 13.5001 24 13.5001C24.3978 13.5001 24.7794 13.6581 25.0607 13.9394C25.342 14.2207 25.5 14.6022 25.5 15.0001ZM24 6.00006C21.6337 5.99416 19.2898 6.45762 17.1039 7.36361C14.9179 8.26959 12.9333 9.60012 11.265 11.2782C9.90188 12.6582 8.69063 13.9857 7.5 15.3751V12.0001C7.5 11.6022 7.34196 11.2207 7.06066 10.9394C6.77936 10.6581 6.39782 10.5001 6 10.5001C5.60218 10.5001 5.22064 10.6581 4.93934 10.9394C4.65804 11.2207 4.5 11.6022 4.5 12.0001V19.5001C4.5 19.8979 4.65804 20.2794 4.93934 20.5607C5.22064 20.842 5.60218 21.0001 6 21.0001H13.5C13.8978 21.0001 14.2794 20.842 14.5607 20.5607C14.842 20.2794 15 19.8979 15 19.5001C15 19.1022 14.842 18.7207 14.5607 18.4394C14.2794 18.1581 13.8978 18.0001 13.5 18.0001H9.1875C10.5281 16.4213 11.8631 14.9344 13.3856 13.3932C15.4704 11.3085 18.1232 9.88432 21.0127 9.2987C23.9022 8.71308 26.9002 8.99195 29.6321 10.1005C32.364 11.209 34.7087 13.098 36.3731 15.5314C38.0376 17.9649 38.948 20.8349 38.9906 23.7828C39.0333 26.7308 38.2063 29.6259 36.6129 32.1065C35.0195 34.5871 32.7305 36.5431 30.0318 37.7302C27.3331 38.9173 24.3444 39.2827 21.4392 38.7809C18.534 38.2792 15.841 36.9323 13.6969 34.9088C13.5536 34.7734 13.385 34.6675 13.2008 34.5972C13.0166 34.527 12.8203 34.4937 12.6232 34.4992C12.4261 34.5048 12.232 34.5491 12.0521 34.6297C11.8721 34.7103 11.7098 34.8255 11.5744 34.9688C11.4389 35.1121 11.3331 35.2807 11.2628 35.4649C11.1925 35.6491 11.1592 35.8454 11.1648 36.0425C11.1704 36.2396 11.2147 36.4336 11.2953 36.6136C11.3758 36.7936 11.4911 36.9559 11.6344 37.0913C13.7708 39.1074 16.3683 40.5701 19.2 41.3515C22.0317 42.1329 25.0117 42.2094 27.8798 41.5744C30.7479 40.9393 33.4169 39.6119 35.6541 37.7081C37.8912 35.8042 39.6284 33.3818 40.714 30.6522C41.7996 27.9226 42.2007 24.9688 41.8822 22.0485C41.5637 19.1283 40.5353 16.3303 38.8869 13.8989C37.2384 11.4675 35.0199 9.4765 32.4249 8.09965C29.83 6.7228 26.9376 6.00197 24 6.00006Z" fill="#4A70E7"/>
</svg>
