<svg width="56" height="56" viewBox="0 0 56 56" fill="none" xmlns="http://www.w3.org/2000/svg">
<path d="M28 54.2499C27.86 54.2499 27.7025 54.2149 27.58 54.1449L24.08 52.2024C23.8 52.0449 23.625 51.7474 23.625 51.4324V47.1449C23.625 46.8299 23.8 46.5324 24.08 46.3749L27.58 44.4324C27.8425 44.2924 28.1575 44.2924 28.4375 44.4324L31.9375 46.3749C32.2175 46.5324 32.3925 46.8299 32.3925 47.1449V51.4324C32.3925 51.7474 32.2175 52.0449 31.9375 52.2024L28.4375 54.1449C28.2975 54.2149 28.14 54.2499 28 54.2499ZM25.375 50.9249L28 52.3774L30.625 50.9249V47.6699L28 46.1999L25.375 47.6524V50.9249Z" fill="#F05249"/>
<path d="M46.375 43.8901C46.235 43.8901 46.0775 43.8551 45.955 43.7851L42.455 41.8426C42.175 41.6851 42 41.3876 42 41.0726V36.8026C42 36.4876 42.175 36.1901 42.455 36.0326L45.955 34.0901C46.2175 33.9501 46.5325 33.9501 46.8125 34.0901L50.3125 36.0326C50.575 36.1901 50.75 36.4876 50.75 36.8026V41.0726C50.75 41.3876 50.575 41.6851 50.295 41.8426L46.795 43.7851C46.6725 43.8551 46.515 43.8901 46.375 43.8901ZM43.75 40.5651L46.375 42.0176L49 40.5651V37.3276L46.375 35.8751L43.75 37.3101V40.5651Z" fill="#F05249"/>
<path d="M9.625 43.8901C9.485 43.8901 9.3275 43.8551 9.205 43.7851L5.705 41.8426C5.425 41.6851 5.25 41.3876 5.25 41.0726V36.8026C5.25 36.4876 5.425 36.1901 5.705 36.0326L9.205 34.0901C9.4675 33.9501 9.7825 33.9501 10.0625 34.0901L13.5625 36.0326C13.825 36.1901 14 36.4876 14 36.8026V41.0726C14 41.3876 13.825 41.6851 13.545 41.8426L10.045 43.7851C9.9225 43.8551 9.765 43.8901 9.625 43.8901ZM7 40.5651L9.625 42.0176L12.25 40.5651V37.3276L9.625 35.8751L7 37.3101V40.5651Z" fill="#F05249"/>
<path d="M28 11.6725C27.86 11.6725 27.7025 11.6375 27.58 11.5675L24.08 9.625C23.8 9.4675 23.625 9.17 23.625 8.855V4.5675C23.625 4.2525 23.8 3.955 24.08 3.7975L27.58 1.855C27.8425 1.715 28.1575 1.715 28.4375 1.855L31.9375 3.7975C32.2175 3.955 32.3925 4.2525 32.3925 4.5675V8.855C32.3925 9.17 32.2175 9.4675 31.9375 9.625L28.4375 11.5675C28.2975 11.6375 28.14 11.6725 28 11.6725ZM25.375 8.3475L28 9.8L30.625 8.3475V5.075L28 3.6225L25.375 5.075V8.3475Z" fill="#F05249"/>
<path d="M46.375 21.1401C46.235 21.1401 46.0775 21.1051 45.955 21.0351L42.455 19.0926C42.175 18.9351 42 18.6376 42 18.3226V14.0526C42 13.7376 42.175 13.4401 42.455 13.2826L45.955 11.3401C46.2175 11.2001 46.5325 11.2001 46.8125 11.3401L50.3125 13.2826C50.575 13.4401 50.75 13.7376 50.75 14.0526V18.3226C50.75 18.6376 50.575 18.9351 50.295 19.0926L46.795 21.0351C46.6725 21.1051 46.515 21.1401 46.375 21.1401ZM43.75 17.8151L46.375 19.2676L49 17.8151V14.5601L46.375 13.1076L43.75 14.5601V17.8151Z" fill="#F05249"/>
<path d="M9.625 21.1401C9.485 21.1401 9.3275 21.1051 9.205 21.0351L5.705 19.0926C5.425 18.9351 5.25 18.6376 5.25 18.3226V14.0526C5.25 13.7376 5.425 13.4401 5.705 13.2826L9.205 11.3401C9.4675 11.2001 9.7825 11.2001 10.0625 11.3401L13.5625 13.2826C13.825 13.4401 14 13.7376 14 14.0526V18.3226C14 18.6376 13.825 18.9351 13.545 19.0926L10.045 21.0351C9.9225 21.1051 9.765 21.1401 9.625 21.1401ZM7 17.8151L9.625 19.2676L12.25 17.8151V14.5601L9.625 13.1076L7 14.5601V17.8151Z" fill="#F05249"/>
<path d="M46.375 35.7349C45.885 35.7349 45.5 35.3499 45.5 34.8599V20.2649C45.5 19.7749 45.885 19.3899 46.375 19.3899C46.865 19.3899 47.25 19.7749 47.25 20.2649V34.8599C47.25 35.3499 46.865 35.7349 46.375 35.7349Z" fill="#F05249"/>
<path d="M31.5 48.37C31.185 48.37 30.8875 48.2125 30.73 47.915C30.5025 47.495 30.6425 46.9525 31.0625 46.725L42.525 40.355C42.945 40.1275 43.4875 40.2675 43.715 40.6875C43.9425 41.1075 43.8025 41.65 43.3825 41.8775L31.92 48.2475C31.7975 48.335 31.64 48.37 31.5 48.37Z" fill="#F05249"/>
<path d="M24.5 48.37C24.36 48.37 24.2025 48.335 24.08 48.265L12.6175 41.895C12.1975 41.6675 12.04 41.125 12.285 40.705C12.5125 40.285 13.055 40.1275 13.475 40.3725L24.9375 46.7425C25.3575 46.97 25.515 47.5125 25.27 47.9325C25.1125 48.2125 24.815 48.37 24.5 48.37Z" fill="#F05249"/>
<path d="M9.625 35.7349C9.135 35.7349 8.75 35.3499 8.75 34.8599V20.2649C8.75 19.7749 9.135 19.3899 9.625 19.3899C10.115 19.3899 10.5 19.7749 10.5 20.2649V34.8599C10.5 35.3499 10.115 35.7349 9.625 35.7349Z" fill="#F05249"/>
<path d="M13.125 15.6975C12.81 15.6975 12.5125 15.54 12.355 15.2425C12.1275 14.8225 12.285 14.2975 12.705 14.07L24.08 7.7525C24.5 7.5075 25.025 7.665 25.27 8.085C25.4975 8.505 25.3575 9.0475 24.9375 9.275L13.5625 15.5925C13.4225 15.6625 13.265 15.6975 13.125 15.6975Z" fill="#F05249"/>
<path d="M42.875 15.6975C42.735 15.6975 42.5775 15.6625 42.455 15.5925L31.08 9.27497C30.66 9.04747 30.5025 8.50497 30.7475 8.08497C30.975 7.66497 31.5 7.50747 31.92 7.73497L43.295 14.0525C43.715 14.28 43.8725 14.8225 43.6275 15.2425C43.4875 15.54 43.19 15.6975 42.875 15.6975Z" fill="#F05249"/>
<path d="M35.875 23.275C35.735 23.275 35.5775 23.24 35.455 23.17L28 19.0225L20.545 23.17C20.125 23.3975 19.5825 23.2575 19.355 22.8375C19.1275 22.4175 19.2675 21.875 19.6875 21.6475L27.5625 17.2725C27.825 17.1325 28.14 17.1325 28.42 17.2725L36.295 21.6475C36.715 21.875 36.8725 22.4175 36.6275 22.8375C36.4875 23.1175 36.19 23.275 35.875 23.275Z" fill="#F05249"/>
<path d="M28 37.2751C27.685 37.2751 27.3875 37.1176 27.23 36.8201C27.0025 36.4001 27.1425 35.8576 27.5625 35.6301L35 31.5176V23.8876L28.42 27.5451C28 27.7726 27.4575 27.6326 27.23 27.2126C27.0025 26.7926 27.1425 26.2501 27.5625 26.0226L35.4375 21.6476C35.7 21.4901 36.0325 21.5076 36.3125 21.6651C36.5925 21.8226 36.75 22.0851 36.75 22.4001V32.0251C36.75 32.3401 36.575 32.6376 36.295 32.7951L28.42 37.1701C28.2975 37.2401 28.14 37.2751 28 37.2751Z" fill="#F05249"/>
<path d="M28 37.275C27.86 37.275 27.7025 37.24 27.58 37.17L19.705 32.795C19.425 32.6375 19.25 32.34 19.25 32.025V22.4C19.25 22.085 19.4075 21.805 19.6875 21.6475C19.95 21.49 20.2825 21.49 20.5625 21.63L28.4375 26.005C28.7175 26.1625 28.8925 26.46 28.8925 26.775V36.4C28.8925 36.715 28.735 36.995 28.455 37.1525C28.315 37.24 28.1575 37.275 28 37.275ZM21 31.5175L27.125 34.9125V27.2825L21 23.8875V31.5175Z" fill="#F05249"/>
<path d="M28 45.7975C27.51 45.7975 27.125 45.4125 27.125 44.9225V39.375C27.125 38.885 27.51 38.5 28 38.5C28.49 38.5 28.875 38.885 28.875 39.375V44.9225C28.875 45.395 28.49 45.7975 28 45.7975Z" fill="#F05249"/>
<path d="M38.5 21.9275C38.2025 21.9275 37.9225 21.7875 37.765 21.525C37.5025 21.1225 37.625 20.58 38.045 20.3175L42.35 17.605C42.7525 17.3425 43.295 17.465 43.5575 17.885C43.82 18.2875 43.6975 18.83 43.2775 19.0925L38.9725 21.805C38.815 21.875 38.6575 21.9275 38.5 21.9275Z" fill="#F05249"/>
<path d="M17.43 21.9275C17.2725 21.9275 17.115 21.875 16.9575 21.7875L12.6525 19.075C12.25 18.8125 12.1275 18.27 12.3725 17.8675C12.635 17.465 13.1775 17.3425 13.58 17.5875L17.885 20.3C18.2875 20.5625 18.41 21.105 18.165 21.5075C18.0075 21.7875 17.7275 21.9275 17.43 21.9275Z" fill="#F05249"/>
<path d="M42.805 37.6775C42.6475 37.6775 42.49 37.625 42.3325 37.5375L38.0275 34.825C37.625 34.5625 37.5025 34.02 37.7475 33.6175C38.01 33.215 38.5525 33.0925 38.955 33.3375L43.26 36.05C43.6625 36.3125 43.785 36.855 43.54 37.2575C43.3825 37.5375 43.1025 37.6775 42.805 37.6775Z" fill="#F05249"/>
<path d="M13.125 37.6775C12.8275 37.6775 12.5475 37.5375 12.39 37.275C12.1275 36.855 12.25 36.3125 12.6525 36.05L16.9575 33.3375C17.36 33.075 17.9025 33.1975 18.165 33.6175C18.4275 34.02 18.305 34.5625 17.885 34.825L13.58 37.5375C13.44 37.625 13.2825 37.6775 13.125 37.6775Z" fill="#F05249"/>
<path d="M28 15.75C27.51 15.75 27.125 15.365 27.125 14.875V11.375C27.125 10.885 27.51 10.5 28 10.5C28.49 10.5 28.875 10.885 28.875 11.375V14.875C28.875 15.365 28.49 15.75 28 15.75Z" fill="#F05249"/>
</svg>
