<svg width="56" height="56" viewBox="0 0 56 56" fill="none" xmlns="http://www.w3.org/2000/svg">
<path d="M12.3749 33.035C15.994 29.6891 21.1952 29.0111 25.5096 31.3231C25.9542 31.5611 26.1224 32.1177 25.8827 32.5624L25.8817 32.5614C25.6436 33.008 25.0868 33.1711 24.6444 32.9374H24.6434C20.9035 30.9333 16.3745 31.6055 13.37 34.6083L12.9862 35.0643C12.8066 35.2805 12.5495 35.3885 12.2899 35.3885C12.106 35.3885 11.9219 35.3335 11.7635 35.2206L11.6971 35.1688C11.3129 34.8413 11.2672 34.2631 11.5927 33.8788L12.0272 33.369L12.0292 33.3671L12.3749 33.035Z" fill="#F05249" stroke="#F05249" stroke-width="0.08"/>
<path d="M44.5289 32.4697C47.3161 31.1638 49.7801 30.9586 51.4976 31.9004C52.3965 32.3924 53.5244 33.4444 53.815 35.6455C53.8607 36.0093 53.6893 36.367 53.3726 36.5537L43.6744 42.2686C43.6066 42.3089 43.5333 42.3404 43.4586 42.3623H43.4576L33.9996 45.0244C32.7763 45.3666 31.512 45.54 30.2379 45.54H21.5797C21.2026 45.54 20.7348 45.6411 20.2916 45.8037C19.9037 45.946 19.5373 46.134 19.2681 46.3389L19.1588 46.4277C19.0966 46.4825 19.0255 46.5298 18.9488 46.5664V46.5674L18.5425 46.7578C18.4163 46.8164 18.2807 46.8438 18.1509 46.8438C17.807 46.8437 17.4794 46.6496 17.3238 46.3184C17.108 45.8609 17.3039 45.3155 17.7613 45.0996L18.0591 44.959C18.9606 44.2297 20.4146 43.71 21.5797 43.71H30.2379C31.3436 43.71 32.4409 43.558 33.4996 43.2598L42.8433 40.6289L51.8892 35.3018C51.672 34.45 51.2473 33.8488 50.6187 33.5039C50.0369 33.1846 49.2663 33.0785 48.3648 33.1816C47.4637 33.2847 46.4345 33.5963 45.3384 34.1104L45.3375 34.1094L40.3912 36.6807H40.3902C40.3082 36.7225 40.2226 36.7521 40.1314 36.7686L38.1207 37.1318C37.6338 37.2197 37.1469 36.8926 37.0572 36.3945C36.9677 35.8987 37.2987 35.4218 37.7945 35.332L39.6695 34.9932L44.5279 32.4707L44.5289 32.4697Z" fill="#F05249" stroke="#F05249" stroke-width="0.08"/>
<path d="M31.8829 31.46C34.1308 31.46 35.905 32.0202 37.1172 33.0732C38.3301 34.127 38.9756 35.6699 38.9756 37.625L38.9717 37.7188C38.9262 38.1799 38.5359 38.54 38.0626 38.54H25.3751C24.87 38.54 24.46 38.1301 24.46 37.625C24.46 37.1199 24.87 36.71 25.3751 36.71H37.0801C36.9057 35.5807 36.3903 34.7318 35.5372 34.1621C34.671 33.5837 33.4538 33.29 31.8848 33.29H25.3575C24.8524 33.29 24.4424 32.8801 24.4424 32.375C24.4424 31.8699 24.8524 31.46 25.3575 31.46H31.8829Z" fill="#F05249" stroke="#F05249" stroke-width="0.08"/>
<path d="M8.16553 36.0198C8.52242 35.6631 9.10268 35.663 9.45947 36.0198L20.5962 47.1565C20.7683 47.3286 20.8628 47.5617 20.8628 47.8049C20.8627 48.0177 20.7891 48.2222 20.6567 48.385L20.5962 48.4524L14.8911 54.1555C14.7136 54.3331 14.4788 54.4231 14.2446 54.4231C14.0105 54.423 13.7763 54.3328 13.5972 54.1555C13.2404 53.7986 13.2403 53.2184 13.5972 52.8616L18.6538 47.804L8.81104 37.9612L3.84326 42.9299C3.48643 43.2865 2.90613 43.2865 2.54932 42.9299C2.19252 42.5731 2.19268 41.9929 2.54932 41.636L8.16553 36.0198Z" fill="#F05249" stroke="#F05249" stroke-width="0.08"/>
<path d="M49.875 3.45996C50.3801 3.45996 50.79 3.86991 50.79 4.375V21.875C50.79 22.1184 50.6925 22.3506 50.5225 22.5225L45.2725 27.7725C45.1006 27.9425 44.8684 28.04 44.625 28.04H27.125C26.6199 28.04 26.21 27.6301 26.21 27.125V9.625C26.21 9.38159 26.3075 9.14944 26.4775 8.97754L31.7275 3.72754L31.7949 3.66699C31.9579 3.53455 32.1621 3.45996 32.375 3.45996H49.875ZM28.04 10.0039V26.21H44.2461L48.96 21.4961V5.29004H32.7539L28.04 10.0039Z" fill="#F05249" stroke="#F05249" stroke-width="0.08"/>
<path d="M44.625 8.70996C45.1301 8.70996 45.54 9.11991 45.54 9.625V22.75C45.54 23.2551 45.1301 23.665 44.625 23.665C44.1199 23.665 43.71 23.2551 43.71 22.75V10.54H31.5C30.9949 10.54 30.585 10.1301 30.585 9.625C30.585 9.11991 30.9949 8.70996 31.5 8.70996H44.625Z" fill="#F05249" stroke="#F05249" stroke-width="0.08"/>
<path d="M45.7271 7.22888C46.0839 6.87203 46.6641 6.87206 47.021 7.22888C47.3779 7.58575 47.3779 8.16596 47.021 8.52283L45.271 10.2728C45.0934 10.4504 44.8587 10.5404 44.6245 10.5404C44.4198 10.5403 44.2153 10.4711 44.0474 10.3353L43.9771 10.2728C43.6202 9.91595 43.6202 9.33574 43.9771 8.97888L45.7271 7.22888Z" fill="#F05249" stroke="#F05249" stroke-width="0.08"/>
</svg>
