<svg width="56" height="56" viewBox="0 0 56 56" fill="none" xmlns="http://www.w3.org/2000/svg">
<path d="M32.1508 2.15857C32.8255 2.15857 33.3984 2.6624 33.4818 3.33337L33.8754 6.47498C35.6896 6.96123 37.4384 7.68498 39.0736 8.62146L41.5648 6.68103L41.6654 6.61072C42.1826 6.28485 42.901 6.35388 43.3373 6.79138L49.2084 12.6625C49.6865 13.1392 49.7335 13.9013 49.3207 14.4349H49.3197L47.3744 16.9349C48.3146 18.5611 49.0376 20.3102 49.5336 22.1273L52.6674 22.517C53.338 22.6015 53.8431 23.1728 53.8431 23.848V32.1508C53.8431 32.8257 53.3386 33.3986 52.6674 33.4818L49.5248 33.8754C49.0385 35.6898 48.3139 37.4383 47.3773 39.0736L49.3187 41.5648C49.733 42.0984 49.6863 42.8595 49.2084 43.3363L43.3373 49.2094C43.084 49.4626 42.746 49.6019 42.3881 49.6019C42.0915 49.6018 41.8001 49.5013 41.5658 49.3207L41.5648 49.3197L39.0638 47.3744C37.4379 48.3144 35.6893 49.0377 33.8724 49.5336L33.4828 52.6674C33.3983 53.3369 32.8268 53.8422 32.1517 53.8422H23.849C23.2164 53.8421 22.6735 53.3987 22.5394 52.7904L22.5179 52.6664L22.1234 49.5248C20.3091 49.0384 18.5604 48.314 16.9252 47.3773L14.4359 49.3187H14.4349C13.9136 49.7241 13.1272 49.6741 12.6625 49.2094L6.79138 43.3373C6.31323 42.8605 6.26708 42.0985 6.68005 41.5648L8.62439 39.0638C7.6845 37.438 6.96099 35.6892 6.46521 33.8724L3.3324 33.4828C2.66284 33.3983 2.15857 32.8268 2.15857 32.1517V23.849C2.15859 23.1742 2.66239 22.6014 3.33337 22.5179L6.47498 22.1234C6.96032 20.3092 7.68492 18.5602 8.62146 16.9252L6.68103 14.4369V14.4359C6.26693 13.9023 6.31347 13.1412 6.79138 12.6644L12.6625 6.79236C13.1285 6.32629 13.9162 6.27829 14.4349 6.68103L16.9349 8.62634C18.5611 7.68613 20.3101 6.9621 22.1273 6.46619L22.517 3.33337C22.6015 2.66278 23.1729 2.15857 23.848 2.15857H32.1508ZM23.6156 6.77869C23.5484 7.31925 23.162 7.75909 22.6332 7.89978C20.8655 8.37062 19.167 9.07513 17.5844 9.99255C17.1208 10.2599 16.5163 10.219 16.098 9.89392L13.6263 7.97302L7.974 13.6254L9.8949 16.0961L9.95447 16.1781C10.2336 16.5976 10.2511 17.1398 9.99353 17.5834C9.07501 19.1671 8.3716 20.8655 7.90076 22.6332C7.76882 23.128 7.37307 23.4993 6.8783 23.598L6.77869 23.6146L3.67517 24.0023V31.9955L6.77869 32.3842C7.31934 32.4514 7.75916 32.8386 7.89978 33.3676C8.3706 35.135 9.07525 36.8329 9.99255 38.4154C10.2673 38.8898 10.2272 39.474 9.89392 39.9027L7.97205 42.3724L13.6263 48.0258L16.0961 46.1049C16.3274 45.9246 16.6162 45.8256 16.9105 45.8256C17.1459 45.8256 17.378 45.8887 17.5824 46.0062H17.5834C19.1672 46.9237 20.8655 47.6282 22.6332 48.099C23.1607 48.2396 23.5485 48.6803 23.6146 49.2211L24.0023 52.3246H31.9965L32.3842 49.2211L32.4008 49.1215C32.5004 48.627 32.8715 48.2328 33.3676 48.101C35.135 47.6302 36.833 46.9254 38.4154 46.0082L38.4164 46.0072C38.8787 45.7419 39.4838 45.7793 39.9017 46.1058L42.3724 48.0277L48.0258 42.3734L46.1049 39.9037C45.7703 39.4748 45.732 38.8913 46.0062 38.4174C46.9236 36.8336 47.6282 35.135 48.099 33.3676C48.2396 32.84 48.6803 32.4522 49.2211 32.3861L52.3246 31.9974V24.0033L49.2211 23.6156C48.6806 23.5484 48.2417 23.1619 48.101 22.6332C47.6301 20.8656 46.9255 19.1669 46.0082 17.5844C45.7336 17.1101 45.7729 16.5267 46.1058 16.098L48.0267 13.6263L42.3734 7.97302L39.9037 9.8949C39.4854 10.2213 38.881 10.2621 38.4174 9.99353C36.8336 9.07615 35.1351 8.37159 33.3676 7.90076C32.8727 7.76887 32.5005 7.37316 32.4017 6.8783L32.3861 6.77869L31.9984 3.67517H24.0033L23.6156 6.77869Z" fill="#F05249" stroke="#F05249" stroke-width="0.35"/>
<path d="M27.6185 27.3446C27.9798 27.1327 28.4455 27.2581 28.6556 27.621C28.8648 27.9835 28.7407 28.4478 28.3783 28.6571L21.306 32.7401L21.3051 32.7391C21.1857 32.8092 21.0555 32.8416 20.9281 32.8417C20.6667 32.8417 20.4111 32.707 20.2699 32.4628C20.0606 32.1002 20.1848 31.636 20.5472 31.4266L27.6185 27.3446Z" fill="#F05249" stroke="#F05249" stroke-width="0.35"/>
<path d="M28.0004 26.6586C28.7412 26.6587 29.3422 27.2595 29.3422 28.0004C29.342 28.7411 28.7411 29.342 28.0004 29.3422C27.2595 29.3422 26.6587 28.7412 26.6586 28.0004C26.6586 27.2594 27.2594 26.6586 28.0004 26.6586Z" fill="#F05249" stroke="#F05249" stroke-width="0.35"/>
<path d="M28 26.0752C29.0615 26.0752 29.9248 26.9385 29.9248 28C29.9248 29.0615 29.0615 29.9248 28 29.9248C26.9385 29.9248 26.0752 29.0615 26.0752 28C26.0752 26.9385 26.9385 26.0752 28 26.0752ZM28 27.5918C27.7746 27.5918 27.5918 27.7746 27.5918 28C27.5918 28.2254 27.7746 28.4082 28 28.4082C28.2254 28.4082 28.4082 28.2254 28.4082 28C28.4082 27.7746 28.2254 27.5918 28 27.5918Z" fill="#F05249" stroke="#F05249" stroke-width="0.35"/>
<path d="M28 13.8252C35.8165 13.8252 42.1748 20.1835 42.1748 28C42.1748 35.8165 35.8165 42.1748 28 42.1748C25.6023 42.1748 23.2317 41.5644 21.1465 40.4102C20.7794 40.2069 20.6475 39.7456 20.8506 39.3789C21.0539 39.0119 21.5151 38.88 21.8818 39.083C23.7421 40.1138 25.8583 40.6582 28 40.6582C34.9792 40.6582 40.6582 34.9792 40.6582 28C40.6582 21.0208 34.9792 15.3418 28 15.3418C21.0208 15.3418 15.3418 21.0208 15.3418 28C15.3418 30.2246 15.9266 32.4121 17.0322 34.3242L17.0674 34.3936C17.226 34.7441 17.0955 35.1641 16.7559 35.3604C16.4142 35.5574 15.9856 35.4609 15.7617 35.1484L15.7197 35.084C14.4805 32.9409 13.8252 30.491 13.8252 28C13.8252 20.1835 20.1835 13.8252 28 13.8252Z" fill="#F05249" stroke="#F05249" stroke-width="0.35"/>
<path d="M34.0511 16.0021C34.2604 15.6382 34.7254 15.5137 35.0883 15.7247L35.0873 15.7257C35.4495 15.9351 35.5738 16.3975 35.3646 16.7599L34.1986 18.7814C34.0578 19.0236 33.8024 19.1603 33.5414 19.1603C33.4133 19.1602 33.2828 19.1277 33.1625 19.0577C32.8003 18.8483 32.6759 18.385 32.8851 18.0226L34.0511 16.0021Z" fill="#F05249" stroke="#F05249" stroke-width="0.35"/>
<path d="M18.0906 32.85C18.417 32.7029 18.8039 32.8071 19.0144 33.097L19.0574 33.1625L19.0925 33.2318C19.25 33.5822 19.1198 34.0024 18.78 34.1986L16.7595 35.3636L16.7605 35.3646C16.6408 35.4352 16.5095 35.4671 16.3816 35.4672C16.1196 35.4672 15.8643 35.3306 15.7234 35.0883V35.0873C15.5142 34.7248 15.6385 34.2615 16.0007 34.0521L18.0212 32.8851L18.0906 32.85Z" fill="#F05249" stroke="#F05249" stroke-width="0.35"/>
<path d="M39.2384 20.6362C39.5997 20.4243 40.0654 20.5497 40.2755 20.9126C40.4848 21.2751 40.3607 21.7394 39.9982 21.9487L37.9777 23.1147C37.8577 23.1846 37.7282 23.2162 37.5997 23.2163C37.3378 23.2163 37.0825 23.0806 36.9415 22.8384V22.8374C36.7322 22.4749 36.8564 22.0106 37.2189 21.8013L39.2384 20.6362Z" fill="#F05249" stroke="#F05249" stroke-width="0.35"/>
<path d="M41.417 27.2418C41.8354 27.242 42.1746 27.5812 42.1748 27.9996C42.1748 28.4182 41.8355 28.7582 41.417 28.7584H39.083C38.6645 28.7582 38.3252 28.4182 38.3252 27.9996C38.3254 27.5812 38.6646 27.242 39.083 27.2418H41.417Z" fill="#F05249" stroke="#F05249" stroke-width="0.35"/>
<path d="M16.917 27.2418C17.3354 27.242 17.6746 27.5812 17.6748 27.9996C17.6748 28.4182 17.3355 28.7582 16.917 28.7584H14.583C14.1645 28.7582 13.8252 28.4182 13.8252 27.9996C13.8254 27.5812 14.1646 27.242 14.583 27.2418H16.917Z" fill="#F05249" stroke="#F05249" stroke-width="0.35"/>
<path d="M36.9415 33.1625C37.1509 32.8 37.6132 32.6762 37.9767 32.8851H37.9777L39.9982 34.0521C40.3379 34.2485 40.4684 34.6685 40.3107 35.0189L40.2755 35.0873C40.1358 35.3303 39.8809 35.467 39.6193 35.4672C39.5231 35.4672 39.4248 35.449 39.3312 35.4105L39.2394 35.3646L37.2189 34.1986C36.8564 33.9893 36.7322 33.525 36.9415 33.1625Z" fill="#F05249" stroke="#F05249" stroke-width="0.35"/>
<path d="M15.7654 20.8472C15.9901 20.5345 16.4185 20.4377 16.7595 20.6353L18.78 21.8013C19.1198 21.9975 19.2499 22.4176 19.0925 22.7681L19.0574 22.8374C18.9176 23.0803 18.6627 23.2161 18.4011 23.2163C18.305 23.2163 18.2067 23.1991 18.113 23.1606L18.0212 23.1147L16.0007 21.9487C15.6382 21.7394 15.5141 21.2751 15.7234 20.9126L15.7654 20.8472Z" fill="#F05249" stroke="#F05249" stroke-width="0.35"/>
<path d="M33.1603 36.9427C33.499 36.7441 33.9288 36.8417 34.1544 37.1537L34.1974 37.2191L35.3634 39.2396C35.5725 39.6017 35.4486 40.0641 35.087 40.2738C34.9672 40.3445 34.8362 40.3773 34.7081 40.3773C34.4789 40.3773 34.2552 40.2728 34.1085 40.0844L34.0509 39.9984L32.8839 37.9769C32.675 37.6149 32.7989 37.1524 33.1603 36.9427Z" fill="#F05249" stroke="#F05249" stroke-width="0.35"/>
<path d="M20.9103 15.7257C21.2499 15.5274 21.6789 15.6246 21.9044 15.9366L21.9474 16.0021L23.1134 18.0226C23.3227 18.3851 23.1986 18.8494 22.8361 19.0587C22.7181 19.1267 22.5874 19.1603 22.4581 19.1603C22.2289 19.1602 22.0052 19.0558 21.8585 18.8673L21.8009 18.7814L20.6339 16.7599C20.425 16.3978 20.5489 15.9354 20.9103 15.7257Z" fill="#F05249" stroke="#F05249" stroke-width="0.35"/>
<path d="M27.9996 38.3252C28.4182 38.3252 28.7582 38.6645 28.7584 39.083V41.417C28.7582 41.8355 28.4182 42.1748 27.9996 42.1748C27.5812 42.1746 27.242 41.8354 27.2418 41.417V39.083C27.242 38.6646 27.5812 38.3254 27.9996 38.3252Z" fill="#F05249" stroke="#F05249" stroke-width="0.35"/>
<path d="M27.9996 13.8252C28.4182 13.8252 28.7582 14.1645 28.7584 14.583V27.417C28.7582 27.8355 28.4182 28.1748 27.9996 28.1748C27.5812 28.1746 27.242 27.8354 27.2418 27.417V14.583C27.242 14.1646 27.5812 13.8254 27.9996 13.8252Z" fill="#F05249" stroke="#F05249" stroke-width="0.35"/>
<path d="M19.8685 38.4845L23.4828 39.2247L23.7211 39.2736L23.599 39.4835L22.433 41.504L22.3109 41.715L22.1498 41.5323L19.7025 38.7726L19.3539 38.38L19.8685 38.4845Z" fill="#F05249" stroke="#F05249" stroke-width="0.35"/>
<path d="M19.9861 37.9132L19.9851 37.9142L23.5994 38.6525L23.6873 38.6759C23.8877 38.7423 24.0519 38.8903 24.1394 39.0851C24.2395 39.308 24.2253 39.564 24.1042 39.7745V39.7755L22.9373 41.796C22.8148 42.0062 22.6001 42.1462 22.3582 42.172H22.3503C22.3319 42.1732 22.3069 42.1749 22.281 42.1749C22.0656 42.1749 21.8578 42.0825 21.7136 41.92L19.2664 39.1603C19.0496 38.9162 19.013 38.5609 19.1765 38.2775C19.3399 37.9946 19.6651 37.8463 19.9861 37.9132ZM22.1511 40.1261L22.2654 39.9269L21.9099 39.8536L22.1511 40.1261Z" fill="#F05249" stroke="#F05249" stroke-width="0.35"/>
</svg>
