<svg width="56" height="56" viewBox="0 0 56 56" fill="none" xmlns="http://www.w3.org/2000/svg">
<path d="M36.4453 12.3253C36.6437 12.2599 36.8577 12.2597 37.0547 12.3253L45.9658 15.297C46.4717 15.465 46.7439 16.0114 46.5762 16.5167C46.4082 17.0226 45.8652 17.2947 45.3564 17.1271L36.75 14.2589L26.3398 17.7296V29.6046C26.3398 31.0005 26.8307 32.6228 27.6172 34.0929C28.4037 35.563 29.4805 36.8712 30.6416 37.6447L36.751 41.7169L42.8584 37.6447C44.0195 36.8703 45.0963 35.5618 45.8828 34.0919C46.6692 32.6221 47.1602 31.0004 47.1602 29.6046V24.5001C47.1602 23.9674 47.5923 23.5353 48.125 23.5353C48.6577 23.5353 49.0898 23.9674 49.0898 24.5001V29.6046C49.0898 31.3491 48.5215 33.2774 47.5947 35.0089C46.6679 36.7404 45.3786 38.2828 43.9277 39.2501L37.2861 43.6798C37.1245 43.7857 36.9391 43.8399 36.752 43.84C36.5647 43.84 36.3788 43.7859 36.2168 43.6779L29.5723 39.2482C28.1214 38.2817 26.832 36.7401 25.9053 35.0089C24.9785 33.2776 24.4102 31.3491 24.4102 29.6046V17.0323C24.4103 16.6174 24.6768 16.2495 25.0703 16.1183L36.4453 12.3253Z" fill="#F05249" stroke="#F05249" stroke-width="0.18"/>
<path d="M48.317 17.6937C48.6933 17.3173 49.3048 17.3174 49.6812 17.6937C50.0576 18.0701 50.0576 18.6816 49.6812 19.058L37.4312 31.308C37.2439 31.4953 36.9965 31.5902 36.7496 31.5902C36.5028 31.5901 36.2557 31.4957 36.067 31.309V31.308L30.817 26.058C30.4406 25.6816 30.4406 25.0701 30.817 24.6937C31.1933 24.3173 31.8048 24.3174 32.1812 24.6937L36.7496 29.2601L48.317 17.6937Z" fill="#F05249" stroke="#F05249" stroke-width="0.18"/>
<path d="M25.375 48.9102C25.9077 48.9102 26.3398 49.3423 26.3398 49.875C26.3398 50.4077 25.9077 50.8398 25.375 50.8398H23.625C23.0923 50.8398 22.6602 50.4077 22.6602 49.875C22.6602 49.3423 23.0923 48.9102 23.625 48.9102H25.375Z" fill="#F05249" stroke="#F05249" stroke-width="0.18"/>
<path d="M28.875 5.16016C29.4077 5.16016 29.8398 5.59229 29.8398 6.125C29.8398 6.65771 29.4077 7.08984 28.875 7.08984H20.125C19.5923 7.08984 19.1602 6.65771 19.1602 6.125C19.1602 5.59229 19.5923 5.16016 20.125 5.16016H28.875Z" fill="#F05249" stroke="#F05249" stroke-width="0.18"/>
<path d="M34.125 1.66016C36.5862 1.66016 38.5898 3.66379 38.5898 6.125V9.625C38.5898 10.1577 38.1577 10.5898 37.625 10.5898C37.0923 10.5898 36.6602 10.1577 36.6602 9.625V6.125C36.6602 4.72746 35.5225 3.58984 34.125 3.58984H14.875C13.4775 3.58984 12.3398 4.72746 12.3398 6.125V49.875C12.3398 51.2725 13.4775 52.4102 14.875 52.4102H34.125C35.5225 52.4102 36.6602 51.2725 36.6602 49.875V46.375C36.6602 45.8423 37.0923 45.4102 37.625 45.4102C38.1577 45.4102 38.5898 45.8423 38.5898 46.375V49.875C38.5898 52.3362 36.5862 54.3398 34.125 54.3398H14.875C12.4138 54.3398 10.4102 52.3362 10.4102 49.875V6.125C10.4102 3.66379 12.4138 1.66016 14.875 1.66016H34.125Z" fill="#F05249" stroke="#F05249" stroke-width="0.18"/>
</svg>
