<svg width="56" height="56" viewBox="0 0 56 56" fill="none" xmlns="http://www.w3.org/2000/svg">
<path d="M18.375 10.46C18.8801 10.46 19.29 10.8699 19.29 11.375C19.29 11.8801 18.8801 12.29 18.375 12.29H9.625C9.11991 12.29 8.70996 11.8801 8.70996 11.375C8.70996 10.8699 9.11991 10.46 9.625 10.46H18.375Z" fill="#F05249" stroke="#F05249" stroke-width="0.08"/>
<path d="M14.875 13.96C15.3801 13.96 15.79 14.3699 15.79 14.875C15.79 15.3801 15.3801 15.79 14.875 15.79H9.625C9.11991 15.79 8.70996 15.3801 8.70996 14.875C8.70996 14.3699 9.11991 13.96 9.625 13.96H14.875Z" fill="#F05249" stroke="#F05249" stroke-width="0.08"/>
<path d="M24.5645 38.6309C24.7621 38.1644 25.3007 37.9483 25.7656 38.1514L29.5947 39.7949C30.8188 40.3216 31.8559 41.2482 32.5146 42.4072C32.7497 42.8175 32.6293 43.3349 32.25 43.6045L32.1709 43.6553C32.0298 43.7376 31.8742 43.7754 31.7207 43.7754C31.4024 43.7754 31.0932 43.609 30.9248 43.3125C30.4549 42.4854 29.7433 41.8509 28.8711 41.4746V41.4736L25.0439 39.832V39.8311C24.5794 39.6331 24.3651 39.0953 24.5645 38.6309Z" fill="#F05249" stroke="#F05249" stroke-width="0.08"/>
<path d="M19.7915 38.1355C20.2589 37.9422 20.7932 38.1488 20.9946 38.6121L21.0269 38.7C21.1661 39.1426 20.9531 39.6274 20.519 39.8162L16.688 41.4783C15.8283 41.844 15.101 42.4938 14.6362 43.3103L14.6372 43.3113C14.4705 43.6062 14.1605 43.7722 13.8423 43.7722C13.6886 43.7722 13.5327 43.7335 13.3901 43.6531C12.9514 43.4024 12.7979 42.8468 13.0464 42.406V42.405C13.7069 41.2427 14.7426 40.3163 15.9634 39.7966L19.7905 38.1365L19.7915 38.1355Z" fill="#F05249" stroke="#F05249" stroke-width="0.08"/>
<path d="M22.7815 24.4634C25.6981 24.4634 28.0715 26.8368 28.0715 29.7534V32.3784C28.0715 33.8799 27.4394 35.281 26.3215 36.2886V39.0288C26.3213 39.5337 25.9115 39.9438 25.4065 39.9438C24.9015 39.9438 24.4917 39.5337 24.4915 39.0288V35.8589C24.4915 35.5736 24.6249 35.3025 24.8538 35.1304C25.7364 34.4622 26.2415 33.4593 26.2415 32.3784V29.7534C26.2415 27.8453 24.6897 26.2935 22.7815 26.2935C20.8733 26.2935 19.3215 27.8453 19.3215 29.7534V32.3784C19.3215 33.4593 19.8265 34.4622 20.7092 35.1304C20.9378 35.3041 21.0714 35.5734 21.0715 35.8589V39.0288C21.0713 39.5337 20.6615 39.9438 20.1565 39.9438C19.6515 39.9438 19.2417 39.5337 19.2415 39.0288V36.2886C18.1236 35.2827 17.4915 33.8816 17.4915 32.3784V29.7534C17.4915 26.8368 19.8649 24.4634 22.7815 24.4634Z" fill="#F05249" stroke="#F05249" stroke-width="0.08"/>
<path d="M27.1584 31.4634C27.6635 31.4634 28.0735 31.8734 28.0735 32.3784C28.0735 34.8807 26.2955 37.0585 23.8479 37.561C23.784 37.5738 23.7233 37.5796 23.6614 37.5796C23.2369 37.5794 22.8565 37.2808 22.7668 36.8491C22.6662 36.3533 22.9849 35.8696 23.4807 35.7671C25.0807 35.4401 26.2434 34.0131 26.2434 32.3784C26.2434 31.8733 26.6534 31.4634 27.1584 31.4634Z" fill="#F05249" stroke="#F05249" stroke-width="0.08"/>
<path d="M40.6597 32.3857C41.1647 32.3858 41.5747 32.7957 41.5747 33.3008C41.5747 33.8058 41.1665 34.2158 40.6597 34.2158H35.9976C35.4925 34.2158 35.0825 33.8059 35.0825 33.3008C35.0825 32.7957 35.4925 32.3857 35.9976 32.3857H40.6597Z" fill="#F05249" stroke="#F05249" stroke-width="0.08"/>
<path d="M22.8271 19.21C26.5775 19.21 30.1031 20.6705 32.7549 23.3223C38.227 28.7961 38.227 37.7039 32.7549 43.1777C30.1014 45.8295 26.5775 47.29 22.8271 47.29C19.0768 47.29 15.5512 45.8295 12.8994 43.1777C7.4273 37.7039 7.4273 28.7961 12.8994 23.3223C15.5512 20.6705 19.0768 19.21 22.8271 19.21ZM22.8271 21.04C19.5653 21.04 16.4984 22.3102 14.1924 24.6162C9.43286 29.3762 9.43286 37.1238 14.1924 41.8838C16.4984 44.1898 19.5653 45.46 22.8271 45.46C26.089 45.4599 29.155 44.1898 31.4609 41.8838C36.221 37.1237 36.221 29.3763 31.4609 24.6162C29.155 22.3102 26.089 21.0401 22.8271 21.04Z" fill="#F05249" stroke="#F05249" stroke-width="0.08"/>
<path d="M50.7498 29.71C51.6948 29.71 52.5837 30.0782 53.2527 30.7471C53.9217 31.4161 54.2898 32.3049 54.2898 33.25C54.2898 34.1951 53.9217 35.0839 53.2527 35.7529C52.5837 36.4218 51.6948 36.79 50.7498 36.79H43.4998C42.5546 36.79 41.6658 36.4219 40.9968 35.7529C40.3278 35.0839 39.9597 34.1951 39.9597 33.25C39.9597 32.3049 40.3278 31.4161 40.9968 30.7471C41.6658 30.0781 42.5546 29.71 43.4998 29.71H50.7498ZM43.4998 31.54C43.1002 31.54 42.7217 31.6761 42.4167 31.9268L42.2908 32.041C41.9692 32.3644 41.7898 32.7935 41.7898 33.25C41.7898 33.7066 41.9675 34.1357 42.2908 34.459L42.4177 34.5732C42.7238 34.8238 43.1019 34.96 43.4998 34.96H50.7498C51.2063 34.96 51.6355 34.7822 51.9587 34.459C52.282 34.1357 52.4597 33.7066 52.4597 33.25C52.4597 32.7934 52.282 32.3643 51.9587 32.041C51.6355 31.7178 51.2063 31.54 50.7498 31.54H43.4998Z" fill="#F05249" stroke="#F05249" stroke-width="0.08"/>
<path d="M41.125 12.21C41.6301 12.21 42.04 12.6199 42.04 13.125V27.125C42.04 27.6301 41.6301 28.04 41.125 28.04C40.6199 28.04 40.21 27.6301 40.21 27.125V13.125C40.21 12.6199 40.6199 12.21 41.125 12.21Z" fill="#F05249" stroke="#F05249" stroke-width="0.08"/>
<path d="M30.625 1.70996C31.1301 1.70996 31.54 2.11991 31.54 2.625C31.54 3.13009 31.1301 3.54004 30.625 3.54004H3.54004V52.46H40.21V39.375C40.21 38.8699 40.6199 38.46 41.125 38.46C41.6301 38.46 42.04 38.8699 42.04 39.375V53.375C42.04 53.8801 41.6301 54.29 41.125 54.29H2.625C2.11991 54.29 1.70996 53.8801 1.70996 53.375V2.625C1.70996 2.11991 2.11991 1.70996 2.625 1.70996H30.625Z" fill="#F05249" stroke="#F05249" stroke-width="0.08"/>
<path d="M30.0483 1.91528C30.4073 1.62508 30.9381 1.64245 31.2729 1.98071L41.7358 12.4807C41.9975 12.7423 42.0746 13.1338 41.9321 13.4758V13.4768C41.7894 13.8168 41.458 14.0402 41.0884 14.0403H30.6245C30.1197 14.04 29.7097 13.63 29.7095 13.1252V7.87524C29.7095 7.3703 30.1196 6.96044 30.6245 6.96021C31.1296 6.96021 31.5396 7.37015 31.5396 7.87524V12.2102H38.8823L29.9751 3.27075C29.6202 2.91386 29.6204 2.33361 29.979 1.97681L30.0483 1.91528Z" fill="#F05249" stroke="#F05249" stroke-width="0.08"/>
</svg>
