<svg width="48" height="48" viewBox="0 0 48 48" fill="none" xmlns="http://www.w3.org/2000/svg">
<path opacity="0.25" d="M18 45L21 30L9 25.5L30 3L27 18L39 22.5L18 45Z" fill="#9BB9F5"/>
<path d="M40.4607 22.1567C40.4039 21.9163 40.2886 21.6936 40.125 21.5085C39.9615 21.3233 39.7548 21.1815 39.5232 21.0954L28.7213 17.0436L31.4701 3.29419C31.5323 2.97472 31.489 2.64369 31.3465 2.35103C31.2041 2.05836 30.9704 1.81996 30.6806 1.67179C30.3909 1.52362 30.0607 1.47372 29.7401 1.52962C29.4195 1.58552 29.1257 1.74419 28.9032 1.98169L7.90319 24.4817C7.73263 24.6614 7.60924 24.8806 7.54406 25.1196C7.47887 25.3587 7.47391 25.6101 7.52962 25.8515C7.58534 26.093 7.69999 26.3168 7.86333 26.5031C8.02667 26.6894 8.23362 26.8324 8.46569 26.9192L19.2713 30.9711L16.5301 44.7054C16.4678 45.0249 16.5112 45.3559 16.6536 45.6486C16.796 45.9413 17.0297 46.1797 17.3195 46.3278C17.6093 46.476 17.9394 46.5259 18.26 46.47C18.5806 46.4141 18.8744 46.2554 19.0969 46.0179L40.0969 23.5179C40.2644 23.3382 40.3852 23.12 40.4486 22.8827C40.512 22.6453 40.5162 22.396 40.4607 22.1567ZM20.5069 40.1248L22.4701 30.3036C22.5403 29.9552 22.4846 29.5933 22.313 29.2822C22.1413 28.9711 21.8647 28.731 21.5326 28.6048L11.6251 24.8829L27.4913 7.88419L25.5301 17.7054C25.4598 18.0538 25.5155 18.4157 25.6872 18.7268C25.8589 19.0379 26.1354 19.278 26.4676 19.4042L36.3676 23.1167L20.5069 40.1248Z" fill="#4A70E7"/>
</svg>
