<svg width="18" height="18" viewBox="0 0 18 18" fill="none" xmlns="http://www.w3.org/2000/svg">
<path d="M1.96876 9.00003C1.96876 9.2238 2.05765 9.43842 2.21589 9.59665C2.37412 9.75488 2.58873 9.84378 2.81251 9.84378H13.1484L9.52594 13.4656C9.36744 13.6241 9.27839 13.8391 9.27839 14.0632C9.27839 14.2874 9.36744 14.5024 9.52594 14.6609C9.68445 14.8194 9.89944 14.9084 10.1236 14.9084C10.3478 14.9084 10.5627 14.8194 10.7213 14.6609L15.7838 9.59839C15.8624 9.52 15.9248 9.42686 15.9674 9.3243C16.01 9.22174 16.0319 9.11178 16.0319 9.00073C16.0319 8.88968 16.01 8.77972 15.9674 8.67717C15.9248 8.57461 15.8624 8.48146 15.7838 8.40307L10.7213 3.34057C10.6428 3.26209 10.5496 3.19983 10.447 3.15736C10.3445 3.11488 10.2346 3.09302 10.1236 3.09302C10.0126 3.09302 9.9027 3.11488 9.80015 3.15736C9.6976 3.19983 9.60443 3.26209 9.52594 3.34057C9.44746 3.41906 9.3852 3.51224 9.34272 3.61478C9.30025 3.71733 9.27839 3.82724 9.27839 3.93823C9.27839 4.04923 9.30025 4.15913 9.34272 4.26168C9.3852 4.36423 9.44746 4.4574 9.52594 4.53589L13.1484 8.15628H2.81251C2.58873 8.15628 2.37412 8.24517 2.21589 8.40341C2.05765 8.56164 1.96876 8.77625 1.96876 9.00003Z" fill="black"/>
</svg>
