<svg width="48" height="48" viewBox="0 0 48 48" fill="none" xmlns="http://www.w3.org/2000/svg">
<path opacity="0.25" d="M9 28.5V39H3C2.60218 39 2.22064 38.842 1.93934 38.5607C1.65804 38.2794 1.5 37.8978 1.5 37.5V30C1.5 29.6022 1.65804 29.2206 1.93934 28.9393C2.22064 28.658 2.60218 28.5 3 28.5H9Z" fill="#9BB9F5"/>
<path d="M43.1869 26.4485C42.6287 26.019 41.979 25.724 41.2883 25.5865C40.5976 25.4489 39.8845 25.4725 39.2044 25.6553L31.3594 27.4591C31.5419 26.6881 31.5475 25.8857 31.3759 25.1122C31.2042 24.3387 30.8597 23.6141 30.3681 22.9927C29.8766 22.3713 29.2508 21.8692 28.5376 21.524C27.8244 21.1789 27.0423 20.9996 26.25 20.9997H16.8638C16.0755 20.9977 15.2947 21.152 14.5664 21.4535C13.8381 21.7551 13.1768 22.198 12.6206 22.7566L8.37938 26.9997H3C2.20435 26.9997 1.44129 27.3158 0.87868 27.8784C0.316071 28.441 0 29.2041 0 29.9997L0 37.4997C0 38.2954 0.316071 39.0584 0.87868 39.621C1.44129 40.1836 2.20435 40.4997 3 40.4997H22.5C22.6226 40.4996 22.7448 40.4845 22.8638 40.4547L34.8638 37.4547C34.9408 37.4362 35.016 37.4111 35.0888 37.3797L42.375 34.2785L42.4575 34.241C43.1579 33.891 43.7578 33.3684 44.2004 32.7225C44.6431 32.0766 44.914 31.3287 44.9878 30.5491C45.0615 29.7696 44.9355 28.9841 44.6218 28.2667C44.308 27.5493 43.8168 26.9236 43.1944 26.4485H43.1869ZM3 29.9997H7.5V37.4997H3V29.9997ZM41.1431 31.5391L34.0181 34.5728L22.3125 37.4997H10.5V29.1203L14.7431 24.8791C15.0207 24.5993 15.3511 24.3775 15.7152 24.2265C16.0792 24.0756 16.4696 23.9985 16.8638 23.9997H26.25C26.8467 23.9997 27.419 24.2368 27.841 24.6587C28.2629 25.0807 28.5 25.653 28.5 26.2497C28.5 26.8465 28.2629 27.4187 27.841 27.8407C27.419 28.2627 26.8467 28.4997 26.25 28.4997H21C20.6022 28.4997 20.2206 28.6577 19.9393 28.9391C19.658 29.2204 19.5 29.6019 19.5 29.9997C19.5 30.3975 19.658 30.7791 19.9393 31.0604C20.2206 31.3417 20.6022 31.4997 21 31.4997H27C27.1129 31.4994 27.2254 31.4869 27.3356 31.4622L39.8981 28.5728L39.9563 28.5578C40.3397 28.4514 40.7491 28.4905 41.1054 28.6677C41.4618 28.8449 41.7401 29.1476 41.8867 29.5176C42.0333 29.8876 42.0379 30.2988 41.8996 30.6719C41.7613 31.0451 41.4898 31.354 41.1375 31.5391H41.1431ZM28.9388 11.561C28.7993 11.4217 28.6886 11.2562 28.6132 11.0741C28.5377 10.892 28.4988 10.6968 28.4988 10.4997C28.4988 10.3026 28.5377 10.1074 28.6132 9.9253C28.6886 9.74321 28.7993 9.57778 28.9388 9.43847L34.9388 3.43847C35.0781 3.299 35.2435 3.18836 35.4256 3.11288C35.6077 3.03739 35.8029 2.99854 36 2.99854C36.1971 2.99854 36.3923 3.03739 36.5744 3.11288C36.7565 3.18836 36.9219 3.299 37.0613 3.43847L43.0613 9.43847C43.2006 9.57783 43.3112 9.74328 43.3866 9.92537C43.462 10.1075 43.5008 10.3026 43.5008 10.4997C43.5008 10.6968 43.462 10.892 43.3866 11.0741C43.3112 11.2561 43.2006 11.4216 43.0613 11.561C42.9219 11.7003 42.7564 11.8109 42.5743 11.8863C42.3923 11.9617 42.1971 12.0005 42 12.0005C41.8029 12.0005 41.6077 11.9617 41.4257 11.8863C41.2436 11.8109 41.0781 11.7003 40.9388 11.561L37.5 8.12034V19.4997C37.5 19.8975 37.342 20.2791 37.0607 20.5604C36.7794 20.8417 36.3978 20.9997 36 20.9997C35.6022 20.9997 35.2206 20.8417 34.9393 20.5604C34.658 20.2791 34.5 19.8975 34.5 19.4997V8.12034L31.0613 11.561C30.9219 11.7004 30.7565 11.8111 30.5744 11.8866C30.3923 11.962 30.1971 12.0009 30 12.0009C29.8029 12.0009 29.6077 11.962 29.4256 11.8866C29.2435 11.8111 29.0781 11.7004 28.9388 11.561Z" fill="#4A70E7"/>
</svg>
