<svg width="18" height="18" viewBox="0 0 18 18" fill="none" xmlns="http://www.w3.org/2000/svg">
<path d="M16.347 5.65973L7.34698 14.6597C7.2686 14.7384 7.17545 14.8008 7.07289 14.8434C6.97033 14.886 6.86038 14.9079 6.74933 14.9079C6.63828 14.9079 6.52832 14.886 6.42576 14.8434C6.3232 14.8008 6.23006 14.7384 6.15167 14.6597L2.21417 10.7222C2.13569 10.6437 2.07343 10.5506 2.03095 10.448C1.98848 10.3455 1.96661 10.2356 1.96661 10.1246C1.96661 10.0136 1.98848 9.90367 2.03095 9.80112C2.07343 9.69857 2.13569 9.6054 2.21417 9.52691C2.29266 9.44843 2.38583 9.38617 2.48838 9.34369C2.59092 9.30122 2.70083 9.27936 2.81183 9.27936C2.92282 9.27936 3.03273 9.30122 3.13528 9.34369C3.23782 9.38617 3.331 9.44843 3.40948 9.52691L6.75003 12.8675L15.1531 4.46582C15.3116 4.30731 15.5266 4.21826 15.7507 4.21826C15.9749 4.21826 16.1899 4.30731 16.3484 4.46582C16.5069 4.62433 16.5959 4.83931 16.5959 5.06348C16.5959 5.28764 16.5069 5.50262 16.3484 5.66113L16.347 5.65973Z" fill="#00BC7D"/>
</svg>
