<svg width="16" height="16" viewBox="0 0 16 16" fill="none" xmlns="http://www.w3.org/2000/svg">
<g clip-path="url(#clip0_95_606)">
<path d="M15.8406 4.8002C15.8406 4.8002 15.6844 3.69707 15.2031 3.2127C14.5937 2.5752 13.9125 2.57207 13.6 2.53457C11.3625 2.37207 8.00311 2.37207 8.00311 2.37207H7.99686C7.99686 2.37207 4.63749 2.37207 2.39998 2.53457C2.08748 2.57207 1.40623 2.5752 0.79686 3.2127C0.31561 3.69707 0.162485 4.8002 0.162485 4.8002C0.162485 4.8002 -1.52588e-05 6.09707 -1.52588e-05 7.39082V8.60332C-1.52588e-05 9.89707 0.15936 11.1939 0.15936 11.1939C0.15936 11.1939 0.31561 12.2971 0.793735 12.7814C1.40311 13.4189 2.20311 13.3971 2.55936 13.4658C3.84061 13.5877 7.99998 13.6252 7.99998 13.6252C7.99998 13.6252 11.3625 13.6189 13.6 13.4596C13.9125 13.4221 14.5937 13.4189 15.2031 12.7814C15.6844 12.2971 15.8406 11.1939 15.8406 11.1939C15.8406 11.1939 16 9.90019 16 8.60332V7.39082C16 6.09707 15.8406 4.8002 15.8406 4.8002ZM6.34686 10.0752V5.57832L10.6687 7.83457L6.34686 10.0752Z" fill="#D4D4D4"/>
</g>
<defs>
<clipPath id="clip0_95_606">
<rect width="16" height="16" fill="white"/>
</clipPath>
</defs>
</svg>
