<svg width="8" height="8" viewBox="0 0 8 8" fill="none" xmlns="http://www.w3.org/2000/svg">
<path d="M7.43052 2.2917V5.7083C7.43029 5.81064 7.40258 5.91104 7.3503 5.99901C7.29802 6.08699 7.22308 6.15931 7.1333 6.20844L3.98962 7.92924C3.90562 7.97566 3.81122 8 3.71526 8C3.61929 8 3.5249 7.97566 3.4409 7.92924L0.297221 6.20844C0.207443 6.15931 0.1325 6.08699 0.0802181 5.99901C0.027936 5.91104 0.000232296 5.81064 0 5.7083V2.2917C0.000232296 2.18936 0.027936 2.08896 0.0802181 2.00099C0.1325 1.91301 0.207443 1.84069 0.297221 1.79156L3.4409 0.070756C3.5249 0.0243446 3.61929 0 3.71526 0C3.81122 0 3.90562 0.0243446 3.98962 0.070756L7.1333 1.79156C7.22308 1.84069 7.29802 1.91301 7.3503 2.00099C7.40258 2.08896 7.43029 2.18936 7.43052 2.2917Z" fill="#F05249"/>
</svg>
